<svg xmlns="http://www.w3.org/2000/svg" xmlns:xlink="http://www.w3.org/1999/xlink" width="860" zoomAndPan="magnify" viewBox="0 0 645 183.750001" height="245" preserveAspectRatio="xMidYMid meet" version="1.0"><path fill="#0acf83" d="M 327.730469 165.148438 C 340.726562 165.148438 351.269531 154.578125 351.269531 141.554688 L 351.269531 117.964844 L 327.730469 117.964844 C 314.738281 117.964844 304.191406 128.535156 304.191406 141.554688 C 304.191406 154.578125 314.738281 165.148438 327.730469 165.148438 Z M 327.730469 165.148438 " fill-opacity="1" fill-rule="nonzero"/><path fill="#a259ff" d="M 304.191406 94.371094 C 304.191406 81.347656 314.738281 70.777344 327.730469 70.777344 L 351.269531 70.777344 L 351.269531 117.964844 L 327.730469 117.964844 C 314.738281 117.964844 304.191406 107.394531 304.191406 94.371094 Z M 304.191406 94.371094 " fill-opacity="1" fill-rule="nonzero"/><path fill="#f24e1e" d="M 304.191406 47.1875 C 304.191406 34.164062 314.738281 23.59375 327.730469 23.59375 L 351.269531 23.59375 L 351.269531 70.777344 L 327.730469 70.777344 C 314.738281 70.777344 304.191406 60.210938 304.191406 47.1875 Z M 304.191406 47.1875 " fill-opacity="1" fill-rule="nonzero"/><path fill="#ff7262" d="M 351.269531 23.59375 L 374.808594 23.59375 C 387.804688 23.59375 398.347656 34.164062 398.347656 47.1875 C 398.347656 60.210938 387.804688 70.777344 374.808594 70.777344 L 351.269531 70.777344 Z M 351.269531 23.59375 " fill-opacity="1" fill-rule="nonzero"/><path fill="#1abcfe" d="M 398.347656 94.371094 C 398.347656 107.394531 387.804688 117.964844 374.808594 117.964844 C 361.816406 117.964844 351.269531 107.394531 351.269531 94.371094 C 351.269531 81.347656 361.816406 70.777344 374.808594 70.777344 C 387.804688 70.777344 398.347656 81.347656 398.347656 94.371094 Z M 398.347656 94.371094 " fill-opacity="1" fill-rule="nonzero"/></svg>