<svg xmlns="http://www.w3.org/2000/svg" xmlns:xlink="http://www.w3.org/1999/xlink" width="860" zoomAndPan="magnify" viewBox="0 0 645 183.750001" height="245" preserveAspectRatio="xMidYMid meet" version="1.0"><defs><clipPath id="f541218a93"><path d="M 257.132812 18.351562 L 403.933594 18.351562 L 403.933594 165.148438 L 257.132812 165.148438 Z M 257.132812 18.351562 " clip-rule="nonzero"/></clipPath></defs><g clip-path="url(#f541218a93)"><path fill="#f03c2e" d="M 401.160156 85.214844 L 337.070312 21.121094 C 336.632812 20.683594 336.152344 20.289062 335.636719 19.945312 C 335.121094 19.601562 334.578125 19.308594 334.003906 19.070312 C 333.429688 18.832031 332.839844 18.652344 332.230469 18.53125 C 331.621094 18.410156 331.007812 18.351562 330.386719 18.351562 C 329.765625 18.351562 329.148438 18.410156 328.542969 18.53125 C 327.933594 18.652344 327.339844 18.832031 326.769531 19.070312 C 326.195312 19.308594 325.648438 19.601562 325.132812 19.945312 C 324.617188 20.289062 324.140625 20.683594 323.703125 21.121094 L 310.398438 34.425781 L 327.28125 51.308594 C 331.207031 49.929688 335.703125 50.871094 338.832031 54 C 339.574219 54.746094 340.203125 55.578125 340.714844 56.503906 C 341.222656 57.425781 341.597656 58.398438 341.832031 59.425781 C 342.066406 60.453125 342.15625 61.496094 342.101562 62.546875 C 342.042969 63.597656 341.839844 64.625 341.496094 65.621094 L 357.769531 81.890625 C 361.703125 80.535156 366.246094 81.410156 369.390625 84.5625 C 369.910156 85.082031 370.378906 85.652344 370.789062 86.265625 C 371.199219 86.882812 371.546875 87.53125 371.828125 88.210938 C 372.113281 88.894531 372.324219 89.597656 372.46875 90.324219 C 372.613281 91.046875 372.6875 91.78125 372.6875 92.519531 C 372.6875 93.257812 372.613281 93.988281 372.472656 94.714844 C 372.328125 95.441406 372.113281 96.144531 371.832031 96.824219 C 371.546875 97.507812 371.199219 98.15625 370.789062 98.773438 C 370.378906 99.386719 369.914062 99.953125 369.390625 100.476562 C 368.867188 101 368.300781 101.464844 367.683594 101.875 C 367.070312 102.285156 366.421875 102.632812 365.738281 102.917969 C 365.054688 103.199219 364.351562 103.410156 363.628906 103.554688 C 362.902344 103.699219 362.171875 103.773438 361.429688 103.773438 C 360.691406 103.769531 359.960938 103.699219 359.234375 103.554688 C 358.511719 103.410156 357.808594 103.195312 357.125 102.914062 C 356.441406 102.628906 355.792969 102.28125 355.179688 101.871094 C 354.566406 101.460938 353.996094 100.992188 353.476562 100.472656 C 350.171875 97.167969 349.355469 92.304688 351.023438 88.234375 L 335.847656 73.0625 L 335.847656 112.996094 C 336.957031 113.542969 337.953125 114.253906 338.832031 115.125 C 339.355469 115.644531 339.820312 116.214844 340.230469 116.828125 C 340.640625 117.441406 340.988281 118.089844 341.269531 118.773438 C 341.550781 119.457031 341.765625 120.160156 341.910156 120.882812 C 342.054688 121.609375 342.125 122.339844 342.125 123.078125 C 342.125 123.816406 342.054688 124.546875 341.910156 125.273438 C 341.765625 125.996094 341.550781 126.699219 341.269531 127.382812 C 340.988281 128.066406 340.640625 128.714844 340.230469 129.328125 C 339.820312 129.941406 339.355469 130.511719 338.832031 131.03125 C 338.308594 131.554688 337.742188 132.023438 337.125 132.433594 C 336.511719 132.84375 335.863281 133.1875 335.183594 133.472656 C 334.5 133.753906 333.796875 133.96875 333.070312 134.113281 C 332.347656 134.257812 331.617188 134.328125 330.875 134.328125 C 330.136719 134.328125 329.40625 134.257812 328.683594 134.113281 C 327.957031 133.96875 327.253906 133.753906 326.570312 133.472656 C 325.890625 133.1875 325.242188 132.84375 324.625 132.433594 C 324.011719 132.023438 323.445312 131.554688 322.921875 131.03125 C 322.398438 130.511719 321.933594 129.941406 321.519531 129.328125 C 321.109375 128.714844 320.761719 128.066406 320.480469 127.382812 C 320.195312 126.703125 319.984375 126 319.839844 125.273438 C 319.695312 124.550781 319.621094 123.816406 319.621094 123.078125 C 319.621094 122.339844 319.695312 121.609375 319.839844 120.882812 C 319.984375 120.160156 320.195312 119.453125 320.480469 118.773438 C 320.761719 118.089844 321.109375 117.441406 321.519531 116.828125 C 321.933594 116.214844 322.398438 115.644531 322.921875 115.125 C 324.007812 114.039062 325.214844 113.21875 326.605469 112.667969 L 326.605469 72.363281 C 325.265625 71.8125 324.007812 71 322.921875 69.910156 C 322.132812 69.121094 321.472656 68.234375 320.949219 67.25 C 320.421875 66.265625 320.050781 65.222656 319.835938 64.128906 C 319.621094 63.035156 319.570312 61.929688 319.683594 60.820312 C 319.796875 59.710938 320.066406 58.640625 320.5 57.609375 L 303.847656 40.964844 L 259.898438 84.867188 C 259.460938 85.308594 259.066406 85.785156 258.722656 86.300781 C 258.375 86.816406 258.085938 87.363281 257.847656 87.9375 C 257.609375 88.511719 257.429688 89.101562 257.308594 89.710938 C 257.1875 90.320312 257.125 90.933594 257.125 91.554688 C 257.125 92.175781 257.1875 92.792969 257.308594 93.398438 C 257.429688 94.007812 257.609375 94.601562 257.847656 95.175781 C 258.085938 95.746094 258.375 96.292969 258.722656 96.808594 C 259.066406 97.324219 259.460938 97.800781 259.898438 98.242188 L 323.996094 162.328125 C 324.433594 162.769531 324.910156 163.160156 325.425781 163.503906 C 325.945312 163.851562 326.488281 164.140625 327.0625 164.378906 C 327.636719 164.617188 328.226562 164.796875 328.835938 164.917969 C 329.445312 165.039062 330.058594 165.097656 330.679688 165.097656 C 331.300781 165.097656 331.914062 165.039062 332.523438 164.917969 C 333.132812 164.796875 333.722656 164.617188 334.296875 164.378906 C 334.871094 164.140625 335.414062 163.851562 335.929688 163.503906 C 336.445312 163.160156 336.925781 162.769531 337.363281 162.328125 L 401.160156 98.632812 C 401.601562 98.191406 401.992188 97.714844 402.339844 97.199219 C 402.683594 96.683594 402.976562 96.136719 403.214844 95.5625 C 403.449219 94.992188 403.628906 94.398438 403.75 93.789062 C 403.871094 93.179688 403.933594 92.566406 403.933594 91.945312 C 403.933594 91.324219 403.871094 90.710938 403.75 90.101562 C 403.628906 89.492188 403.449219 88.898438 403.214844 88.324219 C 402.976562 87.753906 402.683594 87.207031 402.339844 86.691406 C 401.992188 86.175781 401.601562 85.699219 401.160156 85.257812 " fill-opacity="1" fill-rule="nonzero"/></g></svg>