<svg xmlns="http://www.w3.org/2000/svg" xmlns:xlink="http://www.w3.org/1999/xlink" width="860" zoomAndPan="magnify" viewBox="0 0 645 183.750001" height="245" preserveAspectRatio="xMidYMid meet" version="1.0"><defs><clipPath id="66ea99027b"><path d="M 134.164062 59 L 377.960938 59 L 377.960938 116 L 134.164062 116 Z M 134.164062 59 " clip-rule="nonzero"/></clipPath><clipPath id="bef9a566da"><path d="M 386 27.527344 L 491.367188 27.527344 L 491.367188 147.757812 L 386 147.757812 Z M 386 27.527344 " clip-rule="nonzero"/></clipPath></defs><g clip-path="url(#66ea99027b)"><path fill="#5271ff" d="M 134.164062 59.140625 L 153.121094 59.140625 L 153.121094 77.898438 L 170.460938 77.898438 L 170.460938 59.140625 L 189.417969 59.140625 L 189.417969 115.957031 L 170.460938 115.957031 L 170.460938 96.960938 L 153.121094 96.960938 L 153.121094 115.957031 L 134.164062 115.957031 Z M 214.34375 77.984375 L 197.625 77.984375 L 197.625 59.144531 L 249.957031 59.144531 L 249.957031 77.984375 L 233.261719 77.984375 L 233.261719 115.960938 L 214.304688 115.960938 L 214.304688 77.984375 Z M 258.265625 59.140625 L 278.03125 59.140625 L 290.191406 79.132812 L 302.339844 59.140625 L 322.078125 59.140625 L 322.078125 115.957031 L 303.199219 115.957031 L 303.199219 87.789062 L 290.160156 107.992188 L 289.835938 107.992188 L 276.84375 87.792969 L 276.84375 115.960938 L 258.300781 115.960938 Z M 331.535156 59.140625 L 350.496094 59.140625 L 350.496094 97.210938 L 377.148438 97.210938 L 377.148438 115.988281 L 331.539062 115.988281 Z M 331.535156 59.140625 " fill-opacity="1" fill-rule="nonzero"/></g><g clip-path="url(#bef9a566da)"><path fill="#e44d26" d="M 386.167969 27.765625 L 491.386719 27.765625 L 481.800781 135.359375 L 438.699219 147.328125 L 395.726562 135.375 Z M 386.167969 27.765625 " fill-opacity="1" fill-rule="nonzero"/></g><path fill="#f16529" d="M 473.601562 128.511719 L 481.796875 36.566406 L 438.824219 36.566406 L 438.824219 138.179688 Z M 473.601562 128.511719 " fill-opacity="1" fill-rule="nonzero"/><path fill="#ebebeb" d="M 421.355469 76.476562 L 420.152344 62.960938 L 438.816406 62.960938 L 438.816406 49.765625 L 405.789062 49.765625 L 409.34375 89.675781 L 438.816406 89.675781 L 438.816406 76.480469 Z M 409.894531 96.277344 L 411.742188 117.003906 L 438.722656 124.507812 L 438.785156 124.492188 L 438.785156 110.761719 L 438.726562 110.78125 L 424.09375 106.78125 L 423.152344 96.25 L 416.027344 96.25 Z M 409.894531 96.277344 " fill-opacity="1" fill-rule="nonzero"/><path fill="#ffffff" d="M 469.046875 80.015625 L 469.367188 76.46875 L 438.753906 76.46875 L 438.753906 89.667969 L 454.972656 89.667969 L 453.441406 106.785156 L 438.753906 110.757812 L 438.753906 124.484375 L 465.757812 116.984375 L 465.957031 114.753906 Z M 438.785156 62.960938 L 470.601562 62.960938 L 471.78125 49.734375 L 438.785156 49.734375 Z M 438.785156 62.960938 " fill-opacity="1" fill-rule="nonzero"/></svg>