<svg xmlns="http://www.w3.org/2000/svg" xmlns:xlink="http://www.w3.org/1999/xlink" width="860" zoomAndPan="magnify" viewBox="0 0 645 183.750001" height="245" preserveAspectRatio="xMidYMid meet" version="1.0"><defs><clipPath id="a8225f5c0e"><path d="M 264.285156 70 L 511 70 L 511 142 L 264.285156 142 Z M 264.285156 70 " clip-rule="nonzero"/></clipPath><clipPath id="3d6bf2b25d"><path d="M 126 18 L 236.835938 18 L 236.835938 113 L 126 113 Z M 126 18 " clip-rule="nonzero"/></clipPath><clipPath id="cc76aa698f"><path d="M 164 11.863281 L 233 11.863281 L 233 71 L 164 71 Z M 164 11.863281 " clip-rule="nonzero"/></clipPath></defs><path fill="#5e17eb" d="M 358.40625 84.976562 L 355.773438 94.316406 L 358.40625 84.980469 Z M 371.957031 105.246094 L 369.054688 105.230469 Z M 371.246094 119.191406 L 353.851562 119.253906 Z M 374.886719 105.269531 L 371.980469 105.25 Z M 372.808594 118.007812 L 375.84375 106.449219 Z M 436.816406 64.789062 L 431.175781 91.324219 Z M 422.304688 64.789062 L 418.023438 84.613281 Z M 422.304688 64.789062 " fill-opacity="1" fill-rule="nonzero"/><path fill="#5e17eb" d="M 435.816406 63.59375 L 423.75 63.59375 C 423.082031 63.59375 422.417969 64.128906 422.273438 64.785156 L 413.707031 104.4375 C 413.5625 105.089844 412.898438 105.625 412.230469 105.625 L 403.6875 105.625 C 395.234375 105.625 396.210938 99.78125 397.976562 91.773438 L 398.03125 91.53125 L 399.054688 86.070312 L 399.496094 83.820312 L 403.394531 64.785156 C 403.53125 64.128906 403.09375 63.589844 402.421875 63.589844 L 390.035156 63.589844 C 389.683594 63.601562 389.371094 63.71875 389.097656 63.9375 C 388.824219 64.160156 388.648438 64.441406 388.5625 64.78125 L 382.984375 91.25 C 379.914062 105.257812 380.726562 118.617188 397.40625 119.035156 L 397.886719 119.042969 L 424.0625 119.042969 C 424.734375 119.042969 425.394531 118.507812 425.535156 117.851562 L 436.824219 64.78125 C 436.96875 64.125 436.527344 63.589844 435.859375 63.589844 Z M 483.964844 105.765625 C 484.636719 105.765625 485.035156 106.300781 484.941406 106.957031 L 483.769531 112.6875 M 482.597656 118.421875 L 483.769531 112.6875 Z M 481.128906 119.625 L 458.886719 119.734375 Z M 481.128906 119.625 " fill-opacity="1" fill-rule="nonzero"/><path fill="#5e17eb" d="M 451.683594 98.390625 C 451.671875 97.761719 452.386719 96.683594 453.058594 96.683594 L 451.550781 96.65625 C 450.835938 103.492188 451.683594 98.390625 451.683594 98.390625 Z M 459.984375 119.730469 L 459.753906 119.730469 Z M 483.964844 105.765625 C 484.636719 105.765625 485.035156 106.300781 484.941406 106.957031 L 483.574219 113.617188 M 465.699219 119.75 L 465.648438 119.75 Z M 462.734375 119.726562 L 462.5625 119.726562 Z M 461.832031 119.730469 L 461.546875 119.730469 Z M 460.949219 119.730469 L 460.699219 119.730469 Z M 462.597656 119.726562 L 461.867188 119.726562 Z M 462.597656 119.726562 " fill-opacity="1" fill-rule="nonzero"/><path fill="#5e17eb" d="M 465.652344 119.75 L 462.738281 119.757812 Z M 481.132812 119.660156 L 465.695312 119.75 Z M 482.5625 118.421875 L 483.542969 113.621094 Z M 461.515625 119.730469 L 460.949219 119.730469 L 461.585938 119.730469 Z M 459.746094 119.730469 L 458.890625 119.730469 Z M 460.664062 119.730469 L 459.949219 119.730469 Z M 284.097656 98.53125 L 285.96875 90.222656 L 283.828125 99.71875 L 283.578125 100.910156 L 284.097656 98.523438 Z M 306.535156 63.457031 L 293.28125 63.457031 C 292.929688 63.472656 292.617188 63.589844 292.34375 63.808594 C 292.066406 64.027344 291.882812 64.308594 291.792969 64.644531 L 289.28125 75.714844 C 289.238281 75.859375 289.230469 76.003906 289.257812 76.152344 C 289.289062 76.304688 289.351562 76.4375 289.445312 76.554688 C 289.539062 76.671875 289.65625 76.761719 289.792969 76.824219 C 289.933594 76.886719 290.078125 76.910156 290.230469 76.902344 L 303.585938 76.902344 C 304.257812 76.902344 304.921875 76.367188 305.066406 75.714844 L 307.492188 64.621094 C 307.636719 63.96875 307.207031 63.433594 306.53125 63.433594 Z M 303.652344 81.90625 L 299.726562 99.890625 Z M 265.148438 141.507812 L 276.078125 141.59375 C 272.851562 141.59375 267.519531 141.53125 265.144531 141.503906 Z M 265.148438 141.507812 " fill-opacity="1" fill-rule="nonzero"/><g clip-path="url(#a8225f5c0e)"><path fill="#5e17eb" d="M 287.808594 81.90625 L 285.929688 90.21875 Z M 302.695312 80.71875 L 289.332031 80.71875 C 288.980469 80.730469 288.667969 80.847656 288.394531 81.066406 C 288.117188 81.289062 287.9375 81.566406 287.84375 81.90625 L 284.097656 98.527344 L 283.574219 100.914062 L 280.003906 117.882812 C 279.828125 118.671875 279.613281 119.453125 279.363281 120.226562 C 279.363281 120.226562 276.863281 127.652344 272.671875 127.570312 L 268.511719 127.492188 C 268.164062 127.5 267.851562 127.613281 267.574219 127.828125 C 267.296875 128.042969 267.109375 128.316406 267.015625 128.65625 L 264.246094 140.304688 C 264.203125 140.449219 264.195312 140.59375 264.222656 140.742188 C 264.25 140.890625 264.308594 141.027344 264.402344 141.144531 C 264.496094 141.265625 264.609375 141.355469 264.746094 141.417969 C 264.882812 141.480469 265.027344 141.511719 265.179688 141.503906 L 276.113281 141.59375 C 286.59375 141.59375 292.117188 135.785156 295.664062 119.078125 L 303.695312 81.949219 C 303.835938 81.296875 303.402344 80.761719 302.730469 80.761719 Z M 492.480469 119.050781 C 491.808594 119.050781 491.410156 118.515625 491.515625 117.859375 L 501.566406 70.785156 M 506.445312 117.855469 L 510.515625 97.765625 Z M 506.445312 117.855469 " fill-opacity="1" fill-rule="nonzero"/></g><path fill="#5e17eb" d="M 491.660156 118.457031 C 491.578125 118.128906 491.625 117.324219 491.769531 116.671875 L 496.539062 94.324219 L 491.511719 117.859375 C 491.367188 118.515625 491.804688 119.050781 492.476562 119.050781 L 493.695312 119.050781 C 493.027344 119.050781 491.742188 118.785156 491.660156 118.457031 Z M 505.65625 118.785156 C 505.292969 118.925781 504.441406 119.050781 503.769531 119.050781 L 504.992188 119.050781 C 505.34375 119.039062 505.652344 118.921875 505.921875 118.699219 C 506.195312 118.476562 506.371094 118.195312 506.457031 117.855469 L 506.699219 116.664062 C 506.566406 117.320312 505.984375 118.636719 505.628906 118.785156 Z M 508.476562 107.808594 L 510.273438 98.941406 Z M 548.128906 73.9375 L 548.683594 76.222656 C 548.835938 76.878906 548.414062 77.410156 547.746094 77.414062 " fill-opacity="1" fill-rule="nonzero"/><path fill="#5e17eb" d="M 506.6875 116.664062 L 508.472656 107.808594 Z M 547.585938 71.554688 L 548.128906 73.894531 Z M 510.273438 98.941406 L 510.765625 96.570312 L 512.679688 87.59375 L 510.511719 97.761719 L 510.273438 98.9375 Z M 501.730469 70.011719 L 501.3125 71.976562 L 496.542969 94.324219 L 501.570312 70.785156 L 501.730469 70.015625 Z M 501.730469 70.011719 " fill-opacity="1" fill-rule="nonzero"/><path fill="#5e17eb" d="M 548.6875 76.222656 L 548.132812 73.9375 L 547.3125 70.367188 C 546.226562 66.15625 543.042969 63.71875 536.125 63.71875 L 504.28125 63.695312 C 503.929688 63.707031 503.617188 63.824219 503.347656 64.046875 C 503.074219 64.265625 502.894531 64.546875 502.8125 64.890625 L 502.316406 67.21875 L 501.605469 70.742188 L 491.808594 116.628906 C 491.664062 117.285156 491.617188 118.054688 491.699219 118.414062 C 491.785156 118.769531 493.070312 119.007812 493.734375 119.007812 L 503.804688 119.007812 C 504.472656 119.007812 505.320312 118.886719 505.6875 118.742188 C 506.054688 118.59375 506.59375 117.3125 506.757812 116.621094 L 510.578125 97.722656 L 514.667969 78.574219 C 514.808594 77.917969 515.46875 77.386719 516.136719 77.382812 L 547.8125 77.371094 C 548.480469 77.371094 548.90625 76.835938 548.753906 76.179688 Z M 589.46875 55.542969 L 587.027344 55.554688 L 576.890625 55.554688 C 576.101562 55.601562 575.46875 55.9375 574.984375 56.558594 L 552.566406 89.402344 C 552.1875 89.957031 551.753906 89.875 551.601562 89.226562 L 549.953125 81.988281 C 549.859375 81.648438 549.675781 81.371094 549.402344 81.148438 C 549.128906 80.929688 548.8125 80.8125 548.464844 80.800781 L 534.050781 80.800781 C 533.378906 80.800781 532.980469 81.324219 533.164062 81.972656 L 539.589844 104.597656 C 539.777344 105.238281 539.789062 106.300781 539.628906 106.953125 L 536.769531 117.902344 C 536.722656 118.046875 536.710938 118.191406 536.734375 118.339844 C 536.757812 118.488281 536.816406 118.621094 536.910156 118.742188 C 537.003906 118.859375 537.117188 118.953125 537.257812 119.011719 C 537.394531 119.074219 537.539062 119.097656 537.6875 119.085938 L 551.96875 119.085938 C 552.640625 119.085938 553.324219 118.546875 553.488281 117.90625 L 556.34375 106.957031 C 556.570312 106.179688 556.914062 105.460938 557.378906 104.800781 L 593.816406 56.488281 C 594.21875 55.953125 594 55.519531 593.328125 55.523438 L 589.511719 55.550781 Z M 474.957031 83.878906 C 474.871094 84.589844 474.203125 85.128906 473.53125 85.128906 L 455.253906 85.128906 C 454.621094 85.128906 454.300781 84.699219 454.394531 84.164062 L 454.410156 84.066406 L 454.492188 83.757812 C 456.277344 79.117188 459.792969 76.070312 466.472656 76.070312 C 473.996094 76.070312 475.460938 79.746094 474.949219 83.878906 Z M 469.597656 62.785156 C 446.140625 62.785156 440.582031 77.023438 437.46875 91.390625 C 434.347656 106.039062 434.617188 119.738281 458.886719 119.738281 L 462.734375 119.738281 L 465.699219 119.726562 L 481.140625 119.632812 C 481.488281 119.617188 481.796875 119.5 482.066406 119.277344 C 482.335938 119.054688 482.511719 118.777344 482.59375 118.4375 L 484.941406 106.972656 C 485.074219 106.316406 484.636719 105.777344 483.964844 105.777344 L 462.144531 105.777344 C 453.472656 105.777344 450.890625 103.472656 451.839844 96.695312 L 486.71875 96.695312 C 487.289062 96.683594 487.804688 96.335938 488.011719 95.792969 C 488.046875 95.699219 488.082031 95.59375 488.09375 95.492188 C 493.273438 75.964844 491.785156 62.800781 469.601562 62.800781 Z M 358.734375 83.800781 L 358.40625 84.964844 C 358.40625 84.96875 355.773438 94.304688 355.773438 94.304688 L 353.136719 103.636719 C 353.027344 103.972656 352.828125 104.25 352.546875 104.464844 C 352.261719 104.675781 351.945312 104.792969 351.589844 104.808594 L 337.644531 104.808594 C 327.070312 104.808594 324.496094 96.535156 327.070312 84.339844 C 329.640625 71.859375 334.691406 64.105469 345.097656 63.320312 C 359.320312 62.246094 362.164062 72.25 358.734375 83.796875 Z M 368.296875 104.09375 C 368.296875 104.09375 374.863281 88.136719 376.363281 78.914062 C 378.398438 66.574219 372.222656 48.679688 348.359375 48.679688 C 324.628906 48.679688 314.324219 65.765625 310.394531 84.378906 C 306.46875 103.082031 311.617188 119.492188 335.207031 119.363281 L 371.210938 119.230469 C 371.566406 119.214844 371.882812 119.097656 372.164062 118.878906 C 372.441406 118.660156 372.632812 118.382812 372.738281 118.046875 L 375.773438 106.484375 C 375.820312 106.34375 375.835938 106.199219 375.8125 106.050781 C 375.785156 105.902344 375.730469 105.765625 375.636719 105.648438 C 375.546875 105.527344 375.429688 105.4375 375.292969 105.375 C 375.15625 105.3125 375.011719 105.289062 374.859375 105.300781 L 369.054688 105.265625 C 368.480469 105.261719 368.160156 104.894531 368.226562 104.40625 C 368.238281 104.320312 368.261719 104.230469 368.296875 104.136719 Z M 368.296875 104.09375 " fill-opacity="1" fill-rule="nonzero"/><path fill="#5e17eb" d="M 485.761719 93.417969 C 485.761719 93.859375 485.402344 94.214844 484.960938 94.214844 C 484.519531 94.214844 484.160156 93.859375 484.160156 93.417969 C 484.160156 92.972656 484.519531 92.617188 484.960938 92.617188 C 485.402344 92.617188 485.761719 92.972656 485.761719 93.417969 Z M 485.761719 93.417969 " fill-opacity="1" fill-rule="nonzero"/><path fill="#1266a9" d="M 90.09375 114.78125 C 90.242188 115.117188 90.410156 115.429688 90.59375 115.742188 C 90.675781 115.921875 90.792969 116.113281 90.898438 116.28125 C 91.066406 116.617188 91.25 116.941406 91.425781 117.269531 L 92.445312 118.984375 C 92.632812 119.300781 92.8125 119.613281 93.027344 119.925781 C 93.386719 120.535156 93.808594 121.132812 94.179688 121.742188 C 94.347656 121.996094 94.503906 122.25 94.691406 122.503906 C 95.40625 123.613281 96.054688 124.535156 96.75 125.433594 C 97.242188 126.101562 97.738281 126.757812 98.269531 127.414062 C 98.445312 127.660156 98.640625 127.90625 98.820312 128.152344 L 100.257812 129.894531 C 100.433594 130.09375 100.609375 130.328125 100.796875 130.535156 C 101.433594 131.304688 102.109375 132.042969 102.785156 132.796875 C 102.785156 132.808594 102.804688 132.824219 102.816406 132.84375 C 103.652344 133.894531 104.558594 134.828125 105.542969 135.660156 L 105.570312 135.6875 C 106.089844 136.21875 106.609375 136.746094 107.160156 137.265625 L 107.816406 137.894531 C 108.539062 138.570312 109.257812 139.238281 110.019531 139.890625 C 110.03125 139.890625 110.039062 139.902344 110.050781 139.910156 L 110.421875 140.234375 C 111.082031 140.8125 111.753906 141.382812 112.433594 141.914062 L 113.246094 142.597656 C 113.796875 143.039062 114.371094 143.453125 114.933594 143.890625 L 115.820312 144.566406 C 116.421875 145.019531 117.066406 145.460938 117.683594 145.902344 C 117.910156 146.066406 118.136719 146.226562 118.371094 146.378906 L 118.558594 146.527344 L 120.382812 147.722656 L 121.164062 148.242188 C 122.117188 148.851562 123.066406 149.421875 124.015625 149.996094 C 124.289062 150.132812 124.5625 150.28125 124.8125 150.4375 C 125.515625 150.839844 126.242188 151.25 126.949219 151.617188 C 127.339844 151.839844 127.742188 152.027344 128.144531 152.230469 C 128.632812 152.503906 129.140625 152.769531 129.660156 153.042969 C 129.800781 153.085938 129.917969 153.132812 130.035156 153.195312 L 130.0625 153.171875 C 130.277344 153.269531 130.476562 153.371094 130.683594 153.476562 C 131.464844 153.867188 132.277344 154.234375 133.121094 154.601562 C 133.277344 154.664062 133.445312 154.730469 133.613281 154.820312 C 134.550781 155.230469 135.484375 155.621094 136.453125 155.996094 C 136.671875 156.0625 136.90625 156.171875 137.132812 156.257812 C 138.011719 156.585938 138.914062 156.925781 139.808594 157.242188 L 140.136719 157.359375 C 141.128906 157.699219 142.109375 158.023438 143.121094 158.328125 C 143.355469 158.394531 143.597656 158.476562 143.84375 158.542969 C 144.875 158.855469 145.875 159.222656 146.921875 159.417969 C 213.644531 171.519531 233.03125 119.503906 233.03125 119.503906 C 216.742188 140.609375 187.832031 146.175781 160.457031 139.980469 C 159.445312 139.746094 158.429688 139.421875 157.40625 139.121094 C 155.546875 138.582031 154.3125 138.195312 153.097656 137.765625 L 153.714844 137.953125 L 153.3125 137.796875 C 152.429688 137.5 151.578125 137.167969 150.714844 136.835938 C 150.550781 136.765625 150.3125 136.675781 150.070312 136.589844 L 150 136.570312 C 149.046875 136.1875 148.117188 135.796875 147.195312 135.386719 C 146.992188 135.324219 146.824219 135.234375 146.625 135.15625 C 144.921875 134.402344 144.148438 134.039062 143.375 133.660156 L 144.273438 134.058594 C 144.03125 133.953125 143.816406 133.84375 143.582031 133.71875 C 142.972656 133.433594 142.363281 133.109375 141.765625 132.804688 C 141.207031 132.539062 140.808594 132.328125 140.421875 132.113281 L 140.550781 132.179688 C 139.816406 131.789062 139.082031 131.367188 138.34375 130.972656 C 138.121094 130.816406 137.867188 130.6875 137.613281 130.542969 C 136.210938 129.726562 135.285156 129.148438 134.355469 128.554688 L 134.765625 128.804688 C 134.453125 128.609375 134.199219 128.4375 133.957031 128.265625 L 133.996094 128.289062 C 133.199219 127.796875 132.5625 127.375 131.945312 126.9375 C 131.722656 126.796875 131.523438 126.640625 131.296875 126.484375 C 130.464844 125.914062 129.839844 125.464844 129.230469 125.003906 L 129.386719 125.113281 C 129.113281 124.894531 128.820312 124.683594 128.527344 124.472656 C 127.957031 124.023438 127.378906 123.59375 126.808594 123.125 L 126.042969 122.515625 C 125.214844 121.851562 124.527344 121.273438 123.851562 120.683594 C 123.789062 120.621094 123.714844 120.5625 123.636719 120.507812 L 123.632812 120.503906 L 121.378906 118.457031 L 120.730469 117.847656 C 120.195312 117.308594 119.652344 116.792969 119.105469 116.261719 L 118.476562 115.613281 C 117.800781 114.941406 117.148438 114.265625 116.507812 113.566406 L 116.46875 113.519531 L 116.359375 113.429688 C 115.667969 112.675781 115 111.917969 114.324219 111.136719 C 114.148438 110.9375 113.988281 110.722656 113.804688 110.507812 L 112.332031 108.722656 C 111.816406 108.085938 111.097656 107.144531 110.382812 106.179688 L 110.121094 105.816406 C 94.9375 85.191406 89.445312 56.722656 101.59375 33.367188 L 90.867188 46.9375 C 77.0625 66.675781 78.773438 92.339844 89.328125 113.300781 C 89.566406 113.8125 89.832031 114.292969 90.09375 114.78125 Z M 90.09375 114.78125 " fill-opacity="1" fill-rule="nonzero"/><path fill="#000000" d="M 136.574219 86.347656 C 136.550781 86.3125 136.53125 86.273438 136.503906 86.242188 C 136.484375 86.214844 136.464844 86.191406 136.445312 86.164062 Z M 136.574219 86.347656 " fill-opacity="1" fill-rule="nonzero"/><g clip-path="url(#3d6bf2b25d)"><path fill="#1266a9" d="M 143.835938 94.867188 L 144.421875 95.453125 C 145.160156 96.167969 145.921875 96.863281 146.695312 97.554688 L 146.792969 97.640625 C 147.570312 98.328125 148.449219 99.050781 149.351562 99.75 L 149.488281 99.855469 C 149.707031 100.003906 149.898438 100.179688 150.109375 100.328125 C 151.019531 101.03125 151.9375 101.699219 152.890625 102.367188 L 152.988281 102.425781 C 153.390625 102.71875 153.820312 102.984375 154.273438 103.273438 C 154.457031 103.390625 154.664062 103.542969 154.859375 103.660156 C 155.546875 104.101562 156.222656 104.511719 156.917969 104.933594 C 157.027344 104.980469 157.125 105.039062 157.230469 105.082031 C 157.8125 105.441406 158.449219 105.785156 159.0625 106.097656 C 159.273438 106.226562 159.484375 106.324219 159.703125 106.449219 C 160.140625 106.664062 160.566406 106.890625 160.984375 107.109375 L 161.191406 107.203125 C 162.066406 107.628906 162.964844 108.03125 163.839844 108.429688 C 164.0625 108.511719 164.25 108.585938 164.4375 108.675781 C 165.160156 108.988281 165.894531 109.285156 166.613281 109.558594 C 166.9375 109.667969 167.242188 109.800781 167.550781 109.898438 C 168.210938 110.144531 168.90625 110.371094 169.5625 110.597656 L 170.472656 110.890625 C 171.421875 111.183594 172.382812 111.566406 173.386719 111.722656 C 224.910156 120.203125 236.835938 80.734375 236.835938 80.734375 C 226.097656 96.109375 205.324219 103.433594 183.183594 97.710938 C 181.835938 97.367188 180.863281 97.082031 179.894531 96.769531 L 180.265625 96.875 C 179.953125 96.789062 179.679688 96.691406 179.382812 96.601562 C 178.707031 96.367188 178.011719 96.140625 177.355469 95.898438 L 176.421875 95.550781 C 175.695312 95.257812 174.953125 94.984375 174.246094 94.671875 C 174.023438 94.574219 173.824219 94.511719 173.65625 94.414062 C 172.746094 94.003906 171.828125 93.601562 170.941406 93.171875 L 169.601562 92.476562 L 168.828125 92.089844 C 168.230469 91.777344 167.679688 91.453125 167.109375 91.121094 C 166.945312 91.042969 166.816406 90.972656 166.683594 90.886719 L 166.703125 90.894531 C 166.015625 90.464844 165.300781 90.046875 164.640625 89.613281 C 164.417969 89.488281 164.21875 89.339844 164.007812 89.210938 L 162.660156 88.332031 C 161.722656 87.683594 160.808594 86.988281 159.878906 86.3125 C 159.671875 86.125 159.46875 85.96875 159.269531 85.800781 C 149.53125 78.183594 141.855469 67.773438 138.210938 55.984375 C 134.375 43.726562 135.21875 29.984375 141.851562 18.832031 L 133.699219 30.316406 C 123.691406 44.609375 124.253906 63.71875 132.050781 78.839844 C 133.472656 81.632812 134.914062 83.988281 136.503906 86.234375 C 137.984375 88.351562 139.621094 90.835938 141.597656 92.535156 C 142.296875 93.335938 143.050781 94.09375 143.835938 94.867188 Z M 143.835938 94.867188 " fill-opacity="1" fill-rule="nonzero"/></g><path fill="#000000" d="M 96.78125 125.472656 L 96.757812 125.433594 L 96.710938 125.375 Z M 96.78125 125.472656 " fill-opacity="1" fill-rule="nonzero"/><path fill="#000000" d="M 123.789062 120.640625 L 123.851562 120.683594 L 123.867188 120.703125 Z M 123.789062 120.640625 " fill-opacity="1" fill-rule="nonzero"/><g clip-path="url(#cc76aa698f)"><path fill="#1266a9" d="M 169.71875 17.886719 C 163.816406 26.503906 163.25 37.207031 167.316406 46.710938 C 171.632812 56.800781 180.460938 64.726562 190.75 68.480469 C 191.171875 68.640625 191.578125 68.777344 192.015625 68.933594 L 192.585938 69.109375 C 193.183594 69.296875 193.789062 69.519531 194.40625 69.65625 C 222.859375 75.117188 230.5625 55.121094 232.632812 52.175781 C 225.859375 61.855469 214.5 64.179688 200.5625 60.808594 C 199.199219 60.472656 198.074219 60.113281 196.988281 59.703125 L 197.203125 59.777344 C 195.5625 59.199219 194.234375 58.644531 192.945312 58.023438 L 193.191406 58.132812 C 190.527344 56.835938 188.242188 55.429688 186.117188 53.820312 C 173.660156 44.402344 165.957031 26.472656 174.089844 11.863281 Z M 169.71875 17.886719 " fill-opacity="1" fill-rule="nonzero"/></g></svg>