<svg xmlns="http://www.w3.org/2000/svg" xmlns:xlink="http://www.w3.org/1999/xlink" width="860" zoomAndPan="magnify" viewBox="0 0 645 183.750001" height="245" preserveAspectRatio="xMidYMid meet" version="1.0"><defs><clipPath id="5ef2eaab9d"><path d="M 212.214844 62.335938 L 556 62.335938 L 556 139.324219 L 212.214844 139.324219 Z M 212.214844 62.335938 " clip-rule="nonzero"/></clipPath><clipPath id="8e7b55f85d"><path d="M 237.335938 62.335938 L 465.820312 62.335938 L 465.820312 139.324219 L 237.335938 139.324219 Z M 237.335938 62.335938 " clip-rule="nonzero"/></clipPath><clipPath id="9f8ae551f7"><path d="M 433.417969 62.335938 L 477 62.335938 L 477 137.5625 L 433.417969 137.5625 Z M 433.417969 62.335938 " clip-rule="nonzero"/></clipPath><clipPath id="e9e4d5e712"><path d="M 448.371094 62.335938 L 534.78125 62.335938 L 534.78125 139.324219 L 448.371094 139.324219 Z M 448.371094 62.335938 " clip-rule="nonzero"/></clipPath><clipPath id="ed463ccf6f"><path d="M 88.84375 51.804688 L 186.65625 51.804688 L 186.65625 149.789062 L 88.84375 149.789062 Z M 88.84375 51.804688 " clip-rule="nonzero"/></clipPath></defs><g clip-path="url(#5ef2eaab9d)"><path fill="#ff3131" d="M 223.398438 113.71875 C 223.398438 110.949219 222.449219 108.949219 220.554688 107.773438 C 218.6875 106.59375 215.960938 106.003906 212.371094 106.003906 L 212.371094 95.6875 C 214.152344 95.6875 215.730469 95.558594 217.109375 95.300781 C 218.515625 95.011719 219.695312 94.566406 220.640625 93.960938 C 221.589844 93.347656 222.289062 92.527344 222.75 91.546875 C 223.238281 90.570312 223.457031 89.390625 223.398438 88.015625 L 223.398438 74.308594 C 223.398438 72.179688 223.667969 70.371094 224.214844 68.878906 C 224.761719 67.335938 225.753906 66.117188 227.144531 65.167969 C 228.578125 64.191406 230.515625 63.472656 232.957031 63.011719 C 235.398438 62.550781 238.5 62.335938 242.257812 62.335938 L 242.257812 72.039062 C 241.203125 72.0625 240.15625 72.160156 239.113281 72.339844 C 238.195312 72.515625 237.425781 72.828125 236.746094 73.289062 C 236.132812 73.71875 235.625 74.324219 235.28125 75.097656 C 234.9375 75.875 234.765625 76.882812 234.765625 78.117188 L 234.765625 91.003906 C 234.59375 96.394531 231.234375 99.570312 224.691406 100.574219 L 224.691406 101.09375 C 227.992188 101.578125 230.535156 102.628906 232.269531 104.195312 C 234.003906 105.757812 234.855469 107.917969 234.769531 110.617188 L 234.769531 123.503906 C 234.769531 124.738281 234.941406 125.746094 235.285156 126.519531 C 235.628906 127.296875 236.117188 127.898438 236.75 128.332031 C 237.410156 128.796875 238.199219 129.105469 239.117188 129.28125 C 240.066406 129.453125 241.113281 129.550781 242.261719 129.582031 L 242.261719 139.324219 C 238.5 139.324219 235.402344 139.09375 232.960938 138.636719 C 230.519531 138.175781 228.582031 137.457031 227.144531 136.476562 C 225.738281 135.53125 224.761719 134.292969 224.21875 132.773438 C 223.671875 131.25 223.398438 129.425781 223.398438 127.296875 L 223.398438 113.71875 M 544.933594 127.296875 C 544.933594 129.421875 544.660156 131.25 544.117188 132.773438 C 543.570312 134.292969 542.578125 135.53125 541.148438 136.476562 C 539.738281 137.453125 537.8125 138.171875 535.375 138.636719 C 532.9375 139.097656 529.839844 139.324219 526.054688 139.324219 L 526.054688 129.582031 C 527.203125 129.546875 528.238281 129.453125 529.15625 129.28125 C 530.078125 129.109375 530.847656 128.792969 531.480469 128.332031 C 532.144531 127.898438 532.648438 127.296875 532.992188 126.519531 C 533.363281 125.746094 533.550781 124.738281 533.550781 123.503906 L 533.550781 110.617188 C 533.464844 107.914062 534.296875 105.777344 536.046875 104.195312 C 537.800781 102.617188 540.3125 101.582031 543.585938 101.09375 L 543.585938 100.574219 C 537.066406 99.570312 533.742188 96.378906 533.550781 91.003906 L 533.550781 78.117188 C 533.550781 76.882812 533.367188 75.875 532.992188 75.097656 C 532.667969 74.34375 532.171875 73.742188 531.484375 73.289062 C 530.867188 72.832031 530.078125 72.511719 529.15625 72.339844 C 528.132812 72.160156 527.101562 72.058594 526.058594 72.039062 L 526.058594 62.335938 C 529.816406 62.335938 532.917969 62.566406 535.359375 63.027344 C 537.800781 63.488281 539.722656 64.207031 541.128906 65.183594 C 542.5625 66.132812 543.550781 67.367188 544.097656 68.890625 C 544.644531 70.386719 544.917969 72.195312 544.917969 74.324219 L 544.917969 88.027344 C 544.886719 89.410156 545.101562 90.585938 545.5625 91.5625 C 546.023438 92.539062 546.726562 93.34375 547.671875 93.976562 C 548.621094 94.582031 549.785156 95.027344 551.164062 95.316406 C 552.566406 95.574219 554.160156 95.703125 555.941406 95.703125 L 555.941406 106.019531 C 552.355469 106.019531 549.613281 106.605469 547.71875 107.789062 C 545.851562 108.964844 544.917969 110.949219 544.917969 113.734375 L 544.917969 127.316406 " fill-opacity="1" fill-rule="nonzero"/></g><path fill="#ffc44d" d="M 260.679688 129.96875 C 259.699219 129.96875 258.835938 129.902344 258.117188 129.761719 C 257.386719 129.648438 256.753906 129.488281 256.21875 129.277344 L 256.21875 124.667969 C 256.910156 124.847656 257.609375 124.980469 258.320312 125.070312 C 259.121094 125.191406 259.925781 125.25 260.738281 125.246094 C 261.460938 125.242188 262.171875 125.148438 262.867188 124.957031 C 263.59375 124.785156 264.25 124.460938 264.824219 123.976562 C 265.417969 123.496094 265.898438 122.832031 266.261719 121.972656 C 266.625 121.117188 266.8125 120.050781 266.8125 118.746094 L 266.8125 76.621094 L 272.195312 76.621094 L 272.195312 118.183594 C 272.195312 120.183594 271.90625 121.949219 271.332031 123.429688 C 270.777344 124.90625 269.992188 126.128906 268.972656 127.089844 C 267.972656 128.070312 266.765625 128.789062 265.34375 129.25 C 263.960938 129.730469 262.035156 129.96875 260.324219 129.96875 M 298.953125 114.382812 L 298.722656 114.382812 C 298.089844 115.242188 297.457031 115.996094 296.824219 116.628906 C 296.203125 117.234375 295.511719 117.746094 294.75 118.15625 C 294 118.558594 293.164062 118.859375 292.246094 119.050781 C 291.324219 119.242188 290.246094 119.339844 289.050781 119.339844 C 287.730469 119.339844 286.507812 119.144531 285.394531 118.761719 C 284.296875 118.410156 283.332031 117.84375 282.488281 117.0625 C 281.683594 116.289062 281.046875 115.292969 280.589844 114.136719 C 280.125 112.945312 279.894531 111.542969 279.894531 109.929688 C 279.894531 106.777344 280.996094 104.359375 283.203125 102.667969 C 285.429688 100.980469 288.808594 100.058594 293.335938 99.902344 L 298.632812 99.699219 L 298.632812 97.699219 C 298.632812 96.410156 298.488281 95.335938 298.203125 94.46875 C 297.933594 93.609375 297.53125 92.929688 296.996094 92.394531 C 296.476562 91.855469 295.824219 91.472656 295.035156 91.242188 C 294.265625 91.007812 293.386719 90.894531 292.386719 90.894531 C 290.859375 90.882812 289.375 91.113281 287.925781 91.585938 C 286.5625 92.050781 285.25 92.601562 283.980469 93.257812 L 282.136719 89.3125 C 283.558594 88.539062 285.140625 87.890625 286.886719 87.351562 C 288.679688 86.800781 290.515625 86.535156 292.386719 86.542969 C 294.34375 86.542969 296.03125 86.746094 297.453125 87.148438 C 298.890625 87.53125 300.070312 88.15625 300.992188 89.019531 C 301.914062 89.867188 302.636719 90.949219 303.09375 92.277344 C 303.554688 93.601562 303.789062 95.207031 303.789062 97.085938 L 303.789062 118.757812 L 300.007812 118.757812 Z M 290.402344 115.085938 C 291.570312 115.085938 292.660156 114.902344 293.65625 114.539062 C 294.65625 114.175781 295.503906 113.625 296.246094 112.894531 C 296.976562 112.144531 297.539062 111.214844 297.945312 110.101562 C 298.363281 108.96875 298.578125 107.640625 298.578125 106.121094 L 298.578125 103.269531 L 294.464844 103.472656 C 292.734375 103.550781 291.285156 103.742188 290.113281 104.050781 C 288.945312 104.355469 288.003906 104.789062 287.292969 105.347656 C 286.609375 105.871094 286.109375 106.53125 285.796875 107.332031 C 285.488281 108.101562 285.335938 108.976562 285.335938 109.957031 C 285.335938 111.722656 285.796875 113.035156 286.714844 113.84375 C 287.640625 114.671875 288.871094 115.082031 290.398438 115.082031 M 308.183594 87.125 L 313.59375 87.125 L 319.320312 104.726562 L 320.070312 107.191406 L 320.929688 110.246094 L 321.710938 113.171875 L 322.199219 115.273438 L 322.398438 115.273438 L 322.886719 113.171875 L 323.664062 110.246094 L 324.527344 107.191406 L 325.273438 104.726562 L 331 87.121094 L 336.414062 87.121094 L 325.621094 118.761719 L 318.96875 118.761719 Z M 357.820312 114.382812 L 357.589844 114.382812 C 356.957031 115.242188 356.324219 115.996094 355.691406 116.628906 C 355.074219 117.234375 354.382812 117.746094 353.617188 118.15625 C 352.871094 118.558594 352.035156 118.859375 351.117188 119.050781 C 350.195312 119.242188 349.113281 119.339844 347.921875 119.339844 C 346.597656 119.339844 345.378906 119.144531 344.265625 118.761719 C 343.167969 118.410156 342.203125 117.84375 341.359375 117.0625 C 340.554688 116.289062 339.917969 115.292969 339.460938 114.136719 C 338.996094 112.945312 338.765625 111.542969 338.765625 109.929688 C 338.765625 106.777344 339.867188 104.359375 342.074219 102.667969 C 344.300781 100.980469 347.679688 100.058594 352.207031 99.902344 L 357.503906 99.699219 L 357.503906 97.699219 C 357.503906 96.410156 357.359375 95.335938 357.074219 94.46875 C 356.804688 93.609375 356.402344 92.929688 355.863281 92.394531 C 355.347656 91.855469 354.695312 91.472656 353.90625 91.242188 C 353.136719 91.007812 352.257812 90.894531 351.257812 90.894531 C 349.730469 90.882812 348.246094 91.113281 346.792969 91.585938 C 345.429688 92.050781 344.121094 92.601562 342.851562 93.257812 L 341.007812 89.3125 C 342.429688 88.539062 344.007812 87.890625 345.757812 87.351562 C 347.550781 86.800781 349.382812 86.535156 351.257812 86.542969 C 353.214844 86.542969 354.902344 86.746094 356.324219 87.148438 C 357.761719 87.53125 358.941406 88.15625 359.863281 89.019531 C 360.785156 89.867188 361.503906 90.949219 361.964844 92.277344 C 362.425781 93.601562 362.65625 95.207031 362.65625 97.085938 L 362.65625 118.757812 L 358.886719 118.757812 Z M 349.273438 115.101562 C 350.441406 115.101562 351.527344 114.914062 352.527344 114.550781 C 353.523438 114.1875 354.371094 113.640625 355.117188 112.910156 C 355.84375 112.160156 356.410156 111.226562 356.8125 110.113281 C 357.234375 108.980469 357.449219 107.65625 357.449219 106.140625 L 357.449219 103.28125 L 353.332031 103.488281 C 351.605469 103.566406 350.15625 103.757812 348.984375 104.0625 C 347.8125 104.371094 346.875 104.800781 346.164062 105.359375 C 345.480469 105.882812 344.980469 106.542969 344.667969 107.347656 C 344.359375 108.117188 344.207031 108.992188 344.207031 109.96875 C 344.207031 111.738281 344.667969 113.046875 345.585938 113.859375 C 346.511719 114.683594 347.742188 115.101562 349.269531 115.101562 M 394.945312 107.492188 C 394.945312 109.339844 394.609375 111.027344 393.9375 112.507812 C 393.285156 113.964844 392.34375 115.203125 391.117188 116.222656 C 389.890625 117.242188 388.390625 118.019531 386.625 118.554688 C 384.859375 119.074219 382.871094 119.335938 380.667969 119.335938 C 378.535156 119.335938 376.542969 119.160156 374.679688 118.816406 C 372.835938 118.488281 371.292969 118 370.042969 117.347656 L 370.042969 112.21875 L 372.261719 113.144531 L 374.910156 113.917969 L 377.757812 114.496094 C 378.730469 114.628906 379.703125 114.699219 380.683594 114.699219 C 383.753906 114.699219 386.015625 114.121094 387.472656 112.972656 C 388.949219 111.816406 389.691406 110.164062 389.691406 108.011719 C 389.691406 106.972656 389.542969 106.070312 389.257812 105.300781 C 388.988281 104.53125 388.5 103.832031 387.789062 103.199219 C 387.101562 102.546875 386.171875 101.917969 385 101.324219 C 383.832031 100.710938 382.351562 100.046875 380.566406 99.324219 C 378.875 98.652344 377.371094 97.9375 376.105469 97.136719 C 374.875 96.328125 373.824219 95.441406 372.996094 94.425781 C 372.179688 93.40625 371.578125 92.269531 371.183594 91.023438 C 370.800781 89.757812 370.609375 88.316406 370.609375 86.703125 C 370.609375 85.015625 370.917969 83.503906 371.53125 82.179688 C 372.148438 80.851562 373.007812 79.738281 374.121094 78.839844 C 375.234375 77.914062 376.558594 77.214844 378.09375 76.734375 C 379.628906 76.253906 381.355469 76.015625 383.214844 76.015625 C 385.5 76.015625 387.554688 76.234375 389.375 76.675781 C 391.199219 77.097656 392.820312 77.648438 394.238281 78.320312 L 392.3125 82.816406 C 391.082031 82.257812 389.644531 81.777344 388.050781 81.371094 C 386.449219 80.949219 384.816406 80.738281 383.160156 80.738281 C 380.820312 80.738281 379.003906 81.289062 377.71875 82.382812 C 376.433594 83.460938 375.789062 84.921875 375.789062 86.761719 C 375.789062 87.839844 375.933594 88.808594 376.222656 89.617188 C 376.507812 90.402344 376.988281 91.121094 377.660156 91.777344 C 378.332031 92.410156 379.199219 93.015625 380.308594 93.59375 C 381.644531 94.25 383.007812 94.847656 384.394531 95.378906 C 386.140625 96.070312 387.667969 96.765625 388.972656 97.511719 C 390.296875 98.242188 391.398438 99.050781 392.28125 99.976562 C 393.171875 100.902344 393.832031 101.964844 394.269531 103.171875 C 394.730469 104.382812 394.972656 105.871094 394.972656 107.523438 M 414.449219 119.304688 C 412.511719 119.304688 410.699219 119.003906 409.011719 118.410156 C 407.316406 117.796875 405.84375 116.839844 404.605469 115.527344 C 403.375 114.203125 402.378906 112.523438 401.683594 110.488281 C 400.972656 108.429688 400.621094 105.964844 400.621094 103.097656 C 400.621094 100.078125 400.984375 97.527344 401.695312 95.433594 C 402.425781 93.320312 403.425781 91.609375 404.691406 90.304688 C 405.976562 88.980469 407.457031 88.019531 409.183594 87.425781 C 410.902344 86.832031 412.722656 86.53125 414.675781 86.53125 C 416.152344 86.53125 417.613281 86.691406 419.050781 87.023438 C 420.492188 87.351562 421.691406 87.753906 422.652344 88.234375 L 421.113281 92.671875 C 420.636719 92.460938 420.144531 92.28125 419.644531 92.121094 C 419.101562 91.921875 418.546875 91.761719 417.976562 91.632812 C 417.417969 91.480469 416.851562 91.367188 416.28125 91.285156 C 415.722656 91.191406 415.195312 91.140625 414.695312 91.140625 C 411.679688 91.140625 409.484375 92.113281 408.105469 94.066406 C 406.722656 95.988281 406.03125 98.984375 406.03125 103.054688 C 406.03125 107.109375 406.726562 110.074219 408.105469 111.957031 C 409.488281 113.808594 411.640625 114.753906 414.464844 114.753906 C 416.003906 114.753906 417.417969 114.582031 418.667969 114.234375 C 419.933594 113.871094 421.085938 113.464844 422.121094 112.96875 L 422.121094 117.632812 C 421.0625 118.203125 419.949219 118.625 418.78125 118.902344 C 417.613281 119.191406 416.09375 119.335938 414.386719 119.335938 M 442.992188 86.546875 L 444.863281 86.628906 C 445.464844 86.65625 446.058594 86.722656 446.648438 86.832031 L 445.957031 91.675781 L 444.289062 91.445312 C 443.730469 91.367188 443.203125 91.328125 442.703125 91.328125 C 441.492188 91.328125 440.390625 91.578125 439.394531 92.078125 C 438.394531 92.554688 437.546875 93.257812 436.804688 94.179688 C 436.09375 95.082031 435.539062 96.179688 435.132812 97.464844 C 434.75 98.734375 434.558594 100.144531 434.558594 101.699219 L 434.558594 118.753906 L 429.320312 118.753906 L 429.320312 87.125 L 433.582031 87.125 L 434.214844 92.914062 L 434.445312 92.914062 L 435.96875 90.523438 C 436.503906 89.777344 437.117188 89.109375 437.8125 88.523438 C 438.503906 87.925781 439.269531 87.453125 440.113281 87.109375 C 440.960938 86.742188 442.007812 86.5625 443.085938 86.5625 " fill-opacity="1" fill-rule="nonzero"/><g clip-path="url(#8e7b55f85d)"><path stroke-linecap="butt" transform="matrix(1.538154, 0, 0, 1.539724, 196.992107, 54.640109)" fill="none" stroke-linejoin="miter" d="M 41.405203 48.92346 C 40.767771 48.92346 40.206526 48.880331 39.739245 48.789 C 39.264346 48.715427 38.852935 48.611411 38.505014 48.474414 L 38.505014 45.480778 C 38.954518 45.597479 39.409101 45.686273 39.871303 45.742087 C 40.391915 45.820733 40.915066 45.858788 41.443297 45.856251 C 41.913117 45.853714 42.375319 45.792826 42.827363 45.668514 C 43.299723 45.556887 43.72637 45.346318 44.099687 45.031732 C 44.485702 44.719684 44.798069 44.290934 45.034249 43.730261 C 45.270429 43.174663 45.392328 42.482067 45.392328 41.634716 L 45.392328 14.275922 L 48.891856 14.275922 L 48.891856 41.269391 C 48.891856 42.570861 48.703928 43.715039 48.330611 44.676555 C 47.969992 45.635533 47.459539 46.429608 46.796711 47.053705 C 46.146581 47.690487 45.361854 48.157292 44.43745 48.456655 C 43.538442 48.768704 42.286434 48.925997 41.174102 48.925997 M 66.287911 38.800909 L 66.138077 38.800909 C 65.726666 39.359045 65.315256 39.848682 64.903846 40.259673 C 64.500054 40.652904 64.05055 40.985249 63.555334 41.251632 C 63.067737 41.512941 62.524269 41.708288 61.92747 41.8326 C 61.328131 41.956912 60.62721 42.020337 59.850101 42.020337 C 58.991726 42.020337 58.196841 41.893488 57.473064 41.644864 C 56.759444 41.416535 56.132171 41.05121 55.583623 40.541277 C 55.060472 40.041492 54.646522 39.392025 54.349392 38.641079 C 54.047183 37.8673 53.897349 36.956524 53.897349 35.908752 C 53.897349 33.861409 54.613508 32.291018 56.048365 31.192506 C 57.49592 30.09653 59.692648 29.497803 62.63601 29.396324 L 66.079667 29.264401 L 66.079667 27.965467 C 66.079667 27.128263 65.985703 26.430594 65.800314 25.867384 C 65.625084 25.309249 65.363508 24.867814 65.015587 24.520248 C 64.677824 24.170145 64.253716 23.92152 63.740723 23.771839 C 63.240427 23.61962 62.669024 23.546047 62.018894 23.546047 C 61.025922 23.538436 60.060886 23.688118 59.116165 23.995093 C 58.232395 24.296994 57.379099 24.654708 56.553739 25.08092 L 55.355062 22.51857 C 56.279466 22.016248 57.307991 21.59511 58.443179 21.245006 C 59.608842 20.887292 60.7999 20.714778 62.018894 20.719852 C 63.291219 20.719852 64.388313 20.851775 65.312717 21.113083 C 66.247278 21.361708 67.014229 21.767624 67.613567 22.328297 C 68.212906 22.878822 68.682726 23.581565 68.979856 24.444138 C 69.279525 25.304175 69.431899 26.346873 69.431899 27.567161 L 69.431899 41.642327 L 66.973595 41.642327 Z M 60.728792 39.257565 C 61.488124 39.257565 62.196664 39.138327 62.844254 38.902388 C 63.494384 38.666449 64.045471 38.308735 64.527989 37.83432 C 65.002889 37.349756 65.368587 36.743418 65.632702 36.020379 C 65.904436 35.284654 66.044113 34.422081 66.044113 33.435196 L 66.044113 31.5832 L 63.369945 31.71766 C 62.244916 31.765863 61.302735 31.890175 60.540864 32.090596 C 59.781533 32.291018 59.169496 32.570086 58.707295 32.932874 C 58.26287 33.272829 57.937805 33.701579 57.734639 34.22166 C 57.534013 34.721445 57.43497 35.289728 57.43497 35.92651 C 57.43497 37.075762 57.734639 37.925651 58.331438 38.450806 C 58.933316 38.988645 59.733281 39.255028 60.726253 39.255028 M 72.288916 21.097862 L 75.80622 21.097862 L 79.52923 32.529494 L 80.016828 34.130329 L 80.575533 36.114247 L 81.083447 38.014445 L 81.400893 39.37934 L 81.530411 39.37934 L 81.847858 38.014445 L 82.353232 36.114247 L 82.914477 34.130329 L 83.399535 32.529494 L 87.122545 21.095325 L 90.642389 21.095325 L 83.625557 41.644864 L 79.300669 41.644864 Z M 104.559233 38.800909 L 104.409399 38.800909 C 103.997988 39.359045 103.586578 39.848682 103.175167 40.259673 C 102.773915 40.652904 102.324412 40.985249 101.826656 41.251632 C 101.341598 41.512941 100.79813 41.708288 100.201331 41.8326 C 99.601992 41.956912 98.898531 42.020337 98.121423 42.020337 C 97.263048 42.020337 96.470702 41.893488 95.746925 41.644864 C 95.033306 41.416535 94.406032 41.05121 93.857485 40.541277 C 93.331794 40.041492 92.920383 39.392025 92.620714 38.641079 C 92.321045 37.8673 92.17121 36.956524 92.17121 35.908752 C 92.17121 33.861409 92.887369 32.291018 94.322226 31.192506 C 95.769781 30.09653 97.966509 29.497803 100.909871 29.396324 L 104.353528 29.264401 L 104.353528 27.965467 C 104.353528 27.128263 104.259564 26.430594 104.071636 25.867384 C 103.896405 25.309249 103.63483 24.867814 103.286909 24.520248 C 102.949146 24.170145 102.525038 23.92152 102.014584 23.771839 C 101.514289 23.61962 100.940346 23.546047 100.292755 23.546047 C 99.299783 23.538436 98.334747 23.688118 97.390027 23.995093 C 96.503717 24.296994 95.652961 24.654708 94.8276 25.08092 L 93.628923 22.51857 C 94.553327 22.016248 95.579313 21.59511 96.717041 21.245006 C 97.882703 20.887292 99.073762 20.714778 100.292755 20.719852 C 101.56508 20.719852 102.662174 20.851775 103.586578 21.113083 C 104.52114 21.361708 105.28809 21.767624 105.887428 22.328297 C 106.486767 22.878822 106.954048 23.581565 107.253717 24.444138 C 107.553386 25.304175 107.703221 26.346873 107.703221 27.567161 L 107.703221 41.642327 L 105.252536 41.642327 Z M 99.002654 39.267713 C 99.761985 39.267713 100.467986 39.145938 101.115576 38.909999 C 101.765706 38.67406 102.316793 38.318883 102.799311 37.844467 C 103.274211 37.357367 103.642448 36.751029 103.904024 36.02799 C 104.178298 35.292265 104.317974 34.432229 104.317974 33.447881 L 104.317974 31.593348 L 101.638728 31.725271 C 100.516238 31.776011 99.576597 31.900323 98.814726 32.098207 C 98.052855 32.298629 97.443358 32.577697 96.981156 32.940485 C 96.536731 33.28044 96.211666 33.711727 96.008501 34.231808 C 95.807875 34.731593 95.708831 35.299876 95.708831 35.934121 C 95.708831 37.083373 96.008501 37.935799 96.6053 38.460954 C 97.207178 38.996256 98.007142 39.267713 99.000114 39.267713 M 128.695308 34.325676 C 128.695308 35.525668 128.476905 36.621643 128.040099 37.583158 C 127.61599 38.529452 127.003954 39.333675 126.206529 39.995827 C 125.409104 40.657978 124.433909 41.162837 123.286023 41.510404 C 122.138138 41.847822 120.845496 42.0178 119.413179 42.0178 C 118.026574 42.0178 116.731393 41.903636 115.520018 41.680381 C 114.321341 41.467275 113.318211 41.150153 112.505548 40.726477 L 112.505548 37.395422 L 113.948024 37.996686 L 115.669853 38.499008 L 117.521199 38.874481 C 118.153552 38.960739 118.785905 39.006404 119.423337 39.006404 C 121.419439 39.006404 122.88985 38.633468 123.83711 37.885059 C 124.797068 37.134113 125.277046 36.06097 125.277046 34.663094 C 125.277046 33.988258 125.183082 33.402215 124.997694 32.90243 C 124.822463 32.402645 124.505017 31.948526 124.042815 31.537535 C 123.593311 31.113859 122.991433 30.707942 122.229562 30.322321 C 121.470231 29.921478 120.507734 29.490192 119.34715 29.020851 C 118.247516 28.58449 117.269782 28.120223 116.446961 27.600142 C 115.646996 27.074987 114.961312 26.499092 114.425463 25.839477 C 113.894693 25.177326 113.503599 24.439064 113.247103 23.629768 C 112.998225 22.807786 112.873786 21.871641 112.873786 20.823868 C 112.873786 19.727892 113.074412 18.746081 113.473124 17.886045 C 113.874376 17.026008 114.433082 16.302969 115.156859 15.716927 C 115.880637 15.115662 116.741551 14.661543 117.739602 14.349494 C 118.737653 14.037446 119.860143 13.88269 121.068979 13.88269 C 122.554627 13.88269 123.890441 14.024761 125.073881 14.31144 C 126.25986 14.585434 127.313782 14.943148 128.235645 15.379508 L 126.983637 18.299572 C 126.183673 17.936784 125.249111 17.624736 124.212966 17.36089 C 123.169203 17.086896 122.110202 16.949899 121.033425 16.949899 C 119.512222 16.949899 118.331322 17.307613 117.495803 18.017968 C 116.660285 18.718174 116.241256 19.667005 116.241256 20.861922 C 116.241256 21.562129 116.33522 22.1913 116.520608 22.716455 C 116.708537 23.226388 117.020904 23.693192 117.45771 24.119405 C 117.894516 24.530396 118.458301 24.926165 119.179538 25.299101 C 120.048071 25.725313 120.934381 26.113471 121.835929 26.458501 C 122.971117 26.907546 123.964089 27.359129 124.812305 27.843692 C 125.673219 28.318107 126.389378 28.843262 126.963321 29.444526 C 127.542343 30.045791 127.97153 30.735849 128.255962 31.519776 C 128.555631 32.30624 128.713085 33.272829 128.713085 34.345972 M 141.375381 41.997504 C 140.115755 41.997504 138.937394 41.802156 137.83776 41.416535 C 136.738126 41.01823 135.780708 40.396669 134.975665 39.544244 C 134.1757 38.684208 133.52811 37.593306 133.076066 36.27154 C 132.613864 34.934551 132.385303 33.333717 132.385303 31.471573 C 132.385303 29.510488 132.621483 27.85384 133.083685 26.494018 C 133.558584 25.121512 134.208714 24.010315 135.031535 23.162963 C 135.867054 22.302927 136.829551 21.67883 137.952041 21.293209 C 139.069452 20.907588 140.252891 20.712241 141.522676 20.712241 C 142.482634 20.712241 143.432433 20.816257 144.366995 21.0319 C 145.304096 21.245006 146.083744 21.506315 146.708479 21.818364 L 145.707888 24.700373 C 145.39806 24.563376 145.078075 24.446675 144.75301 24.342659 C 144.400009 24.21581 144.036851 24.109257 143.668613 24.025537 C 143.305455 23.929131 142.937217 23.853022 142.56644 23.799745 C 142.203281 23.738858 141.860439 23.705877 141.535374 23.705877 C 139.574826 23.705877 138.147588 24.337585 137.251119 25.606075 C 136.352112 26.854269 135.902608 28.800133 135.902608 31.443667 C 135.902608 34.077052 136.354651 36.00262 137.251119 37.225444 C 138.150127 38.427973 139.54943 39.041922 141.38554 39.041922 C 142.38613 39.041922 143.305455 38.930295 144.118117 38.704504 C 144.940938 38.468565 145.690111 38.204719 146.363097 37.882522 L 146.363097 40.914213 C 145.674874 41.282076 144.951096 41.556069 144.191765 41.736195 C 143.432433 41.923931 142.44454 42.0178 141.334748 42.0178 M 159.93202 20.722389 L 161.148474 20.775665 C 161.539568 20.793424 161.925583 20.83909 162.309058 20.907588 L 161.859554 24.053443 L 160.775157 23.903762 C 160.411999 23.853022 160.069157 23.827652 159.744092 23.827652 C 158.956825 23.827652 158.240666 23.990019 157.593076 24.314752 C 156.942946 24.626801 156.391859 25.08092 155.909341 25.679648 C 155.447139 26.26569 155.08652 26.978582 154.822405 27.813248 C 154.573527 28.637767 154.449088 29.553616 154.449088 30.563334 L 154.449088 41.63979 L 151.043525 41.63979 L 151.043525 21.097862 L 153.814196 21.097862 L 154.225606 24.857666 L 154.375441 24.857666 L 155.365873 23.305034 C 155.713794 22.820471 156.112507 22.386647 156.56455 22.0061 C 157.014054 21.617943 157.51181 21.310968 158.060357 21.087714 C 158.611444 20.849238 159.292049 20.732536 159.99043 20.732536 " stroke="#000000" stroke-width="2.129" stroke-opacity="1" stroke-miterlimit="4"/></g><path fill="#ffc44d" d="M 457.726562 118.761719 L 452.480469 118.761719 L 452.480469 87.121094 L 457.71875 87.121094 L 457.71875 118.761719 M 452.933594 76.042969 C 453.53125 75.523438 454.257812 75.265625 455.121094 75.265625 C 455.542969 75.265625 455.9375 75.328125 456.304688 75.46875 C 456.675781 75.578125 457.003906 75.769531 457.28125 76.042969 C 457.570312 76.3125 457.785156 76.660156 457.941406 77.082031 C 458.113281 77.484375 458.203125 77.976562 458.203125 78.550781 C 458.203125 79.664062 457.894531 80.5 457.277344 81.058594 C 456.683594 81.597656 455.960938 81.863281 455.117188 81.863281 C 454.253906 81.863281 453.503906 81.460938 452.910156 80.921875 C 452.332031 80.382812 452.0625 79.546875 452.0625 78.480469 C 452.066406 77.398438 452.355469 76.558594 452.929688 76.042969 Z M 452.933594 76.042969 " fill-opacity="1" fill-rule="nonzero"/><g clip-path="url(#9f8ae551f7)"><path stroke-linecap="square" transform="matrix(1.538154, 0, 0, 1.539724, 196.992107, 54.640109)" fill="none" stroke-linejoin="miter" d="M 169.508739 41.644864 L 166.100636 41.644864 L 166.100636 21.095325 L 169.5062 21.095325 L 169.5062 41.644864 M 166.395226 13.900449 C 166.78378 13.563031 167.25614 13.39559 167.817385 13.39559 C 168.091659 13.39559 168.348156 13.436182 168.586875 13.527513 C 168.828134 13.598548 169.041458 13.72286 169.221768 13.900449 C 169.409696 14.075501 169.549372 14.301292 169.650955 14.575286 C 169.762696 14.836595 169.821106 15.156254 169.821106 15.52919 C 169.821106 16.25223 169.62048 16.795143 169.219228 17.157931 C 168.833213 17.508035 168.363393 17.680549 167.814846 17.680549 C 167.253601 17.680549 166.766003 17.41924 166.377449 17.069137 C 166.004132 16.719034 165.828902 16.178657 165.828902 15.483525 C 165.828902 14.780781 166.01683 14.23533 166.390147 13.900449 Z M 166.395226 13.900449 " stroke="#000000" stroke-width="2.129" stroke-opacity="1" stroke-miterlimit="4"/></g><path fill="#ffc44d" d="M 481.75 119.335938 C 480.617188 119.335938 479.59375 119.210938 478.671875 118.960938 C 477.753906 118.710938 476.914062 118.386719 476.167969 117.980469 C 475.4375 117.558594 474.785156 117.070312 474.207031 116.511719 C 473.664062 115.964844 473.164062 115.382812 472.710938 114.753906 L 472.367188 114.753906 L 472.539062 116.628906 L 472.652344 118.167969 L 472.710938 119.40625 L 472.710938 132.921875 L 467.472656 132.921875 L 467.472656 87.121094 L 471.730469 87.121094 L 472.480469 91.386719 L 472.710938 91.386719 C 473.152344 90.714844 473.652344 90.09375 474.207031 89.515625 C 474.777344 88.910156 475.417969 88.398438 476.140625 87.988281 C 476.886719 87.546875 477.722656 87.199219 478.640625 86.949219 C 479.5625 86.679688 480.597656 86.546875 481.746094 86.546875 C 483.550781 86.546875 485.195312 86.894531 486.671875 87.585938 C 488.191406 88.300781 489.445312 89.339844 490.441406 90.695312 C 491.496094 92.058594 492.3125 93.773438 492.902344 95.796875 C 493.492188 97.8125 493.761719 100.191406 493.761719 102.882812 C 493.761719 105.59375 493.476562 107.976562 492.902344 110.027344 C 492.328125 112.066406 491.511719 113.777344 490.441406 115.15625 C 489.402344 116.539062 488.136719 117.585938 486.675781 118.296875 C 485.199219 118.988281 483.191406 119.335938 481.386719 119.335938 M 480.742188 90.894531 C 479.285156 90.894531 478.042969 91.117188 477.027344 91.558594 C 476.023438 92 475.207031 92.671875 474.582031 93.574219 C 473.964844 94.476562 473.503906 95.601562 473.199219 96.960938 C 472.914062 98.308594 472.75 99.890625 472.710938 101.714844 L 472.710938 102.898438 C 472.710938 104.835938 472.835938 106.566406 473.085938 108.082031 C 473.355469 109.582031 473.796875 110.851562 474.40625 111.886719 C 475.027344 112.898438 475.859375 113.675781 476.914062 114.21875 C 477.949219 114.738281 479.242188 115 480.796875 115 C 483.386719 115 485.289062 113.949219 486.496094 111.859375 C 487.722656 109.765625 488.339844 106.757812 488.339844 102.839844 C 488.339844 98.84375 487.722656 95.855469 486.496094 93.878906 C 485.289062 91.902344 483.367188 90.910156 480.738281 90.910156 M 511.226562 115.042969 C 511.570312 115.042969 511.953125 115.011719 512.378906 114.984375 L 513.644531 114.839844 L 514.722656 114.636719 L 515.496094 114.433594 L 515.496094 118.410156 C 515.246094 118.527344 514.933594 118.640625 514.546875 118.757812 C 514.164062 118.871094 513.742188 118.964844 513.28125 119.046875 C 512.808594 119.144531 512.328125 119.210938 511.84375 119.246094 C 511.351562 119.304688 510.867188 119.332031 510.375 119.332031 C 509.246094 119.339844 508.144531 119.1875 507.066406 118.871094 C 506.046875 118.570312 505.164062 118.039062 504.414062 117.289062 C 503.6875 116.539062 503.113281 115.53125 502.6875 114.261719 C 502.265625 112.972656 502.054688 111.359375 502.054688 109.421875 L 502.054688 91.066406 L 497.597656 91.066406 L 497.597656 88.734375 L 502.054688 86.484375 L 504.300781 79.855469 L 507.324219 79.855469 L 507.324219 87.121094 L 515.265625 87.121094 L 515.265625 91.066406 L 507.324219 91.066406 L 507.324219 109.421875 C 507.324219 111.265625 507.621094 112.683594 508.214844 113.625 C 508.832031 114.550781 509.828125 115.039062 511.207031 115.039062 " fill-opacity="1" fill-rule="nonzero"/><g clip-path="url(#e9e4d5e712)"><path stroke-linecap="butt" transform="matrix(1.538154, 0, 0, 1.539724, 196.992107, 54.640109)" fill="none" stroke-linejoin="miter" d="M 185.129635 42.0178 C 184.39316 42.0178 183.727792 41.936616 183.128454 41.77425 C 182.531655 41.611883 181.985647 41.401314 181.500589 41.137468 C 181.02569 40.863474 180.601581 40.546351 180.225725 40.183563 C 179.872725 39.828386 179.54766 39.450376 179.25307 39.044459 L 179.027048 39.044459 L 179.141329 40.259673 L 179.214976 41.259243 L 179.25307 42.063465 L 179.25307 50.841417 L 175.844967 50.841417 L 175.844967 21.095325 L 178.615638 21.095325 L 179.103235 23.865707 L 179.25307 23.865707 C 179.540041 23.429346 179.862567 23.025966 180.225725 22.650493 C 180.596502 22.257261 181.012992 21.924917 181.482812 21.658534 C 181.96787 21.371855 182.511338 21.146064 183.108137 20.983697 C 183.707476 20.808646 184.380462 20.722389 185.127095 20.722389 C 186.300377 20.722389 187.369536 20.94818 188.329493 21.397225 C 189.317386 21.861493 190.132588 22.536329 190.780178 23.416661 C 191.465862 24.302067 191.996633 25.415802 192.380108 26.729957 C 192.763583 28.041576 192.938813 29.586597 192.938813 31.332039 C 192.938813 33.092704 192.753424 34.640262 192.380108 35.972176 C 192.006791 37.29648 191.476021 38.407677 190.780178 39.303231 C 190.104653 40.201322 189.279293 40.881233 188.332033 41.342963 C 187.372075 41.792009 186.066736 42.0178 184.893455 42.0178 M 184.474426 23.546047 C 183.527166 23.546047 182.719583 23.690655 182.059295 23.977334 C 181.406625 24.264013 180.875855 24.700373 180.469524 25.286416 C 180.068272 25.872458 179.768602 26.603108 179.570516 27.485978 C 179.385127 28.361236 179.275926 29.388713 179.25307 30.573482 L 179.25307 31.342187 C 179.25307 32.600529 179.334336 33.724412 179.496868 34.70876 C 179.672099 35.68296 179.95907 36.507479 180.355243 37.179779 C 180.759035 37.836856 181.299963 38.341716 181.983108 38.694356 C 182.656094 39.031774 183.499231 39.201752 184.50998 39.201752 C 186.193715 39.201752 187.430486 38.521841 188.215213 37.16202 C 189.012638 35.802198 189.41389 33.848724 189.41389 31.304133 C 189.41389 28.708802 189.012638 26.770549 188.215213 25.4843 C 187.430486 24.200588 186.181017 23.556195 184.471886 23.556195 M 204.293231 39.229659 C 204.516713 39.229659 204.765591 39.209363 205.042404 39.194141 L 205.865225 39.097736 L 206.566146 38.965813 L 207.068981 38.83389 L 207.068981 41.416535 C 206.906449 41.492645 206.703283 41.566217 206.451866 41.642327 C 206.202988 41.715899 205.928714 41.776787 205.629045 41.830063 C 205.321757 41.893488 205.00939 41.936616 204.694483 41.959449 C 204.374497 41.997504 204.059591 42.015263 203.737065 42.015263 C 203.005669 42.022874 202.28951 41.921394 201.588589 41.715899 C 200.925761 41.520552 200.351818 41.175522 199.864221 40.688422 C 199.391861 40.201322 199.018544 39.546781 198.741731 38.722263 C 198.467457 37.885059 198.33032 36.837286 198.33032 35.578944 L 198.33032 23.657675 L 195.430131 23.657675 L 195.430131 22.143097 L 198.33032 20.681797 L 199.790573 16.376542 L 201.753661 16.376542 L 201.753661 21.095325 L 206.919147 21.095325 L 206.919147 23.657675 L 201.753661 23.657675 L 201.753661 35.578944 C 201.753661 36.776399 201.949208 37.697323 202.335223 38.308735 C 202.736475 38.909999 203.384065 39.227122 204.280533 39.227122 " stroke="#000000" stroke-width="2.129" stroke-opacity="1" stroke-miterlimit="4"/></g><g clip-path="url(#ed463ccf6f)"><path fill="#ffc44d" d="M 92.03125 51.578125 C 90.144531 51.578125 88.613281 53.109375 88.613281 54.996094 L 88.613281 146.144531 C 88.613281 148.027344 90.144531 149.558594 92.03125 149.558594 L 183.179688 149.558594 C 185.0625 149.558594 186.597656 148.027344 186.597656 146.144531 L 186.597656 54.996094 C 186.597656 53.109375 185.0625 51.578125 183.179688 51.578125 Z M 92.03125 51.578125 " fill-opacity="1" fill-rule="nonzero"/></g><path fill="#ffffff" d="M 158.113281 103.988281 C 156.226562 103.988281 154.695312 105.519531 154.695312 107.40625 L 154.695312 109.683594 C 154.695312 111.570312 156.226562 113.101562 158.113281 113.101562 L 164.949219 113.101562 C 170.613281 113.101562 175.203125 117.691406 175.203125 123.355469 L 175.203125 125.632812 C 175.203125 131.296875 170.613281 135.886719 164.949219 135.886719 L 151.277344 135.886719 C 149.390625 135.886719 147.859375 134.359375 147.859375 132.46875 C 147.859375 130.585938 149.390625 129.050781 151.277344 129.050781 L 164.949219 129.050781 C 166.835938 129.050781 168.367188 127.523438 168.367188 125.632812 L 168.367188 123.355469 C 168.367188 121.46875 166.835938 119.9375 164.949219 119.9375 L 158.113281 119.9375 C 152.449219 119.9375 147.859375 115.347656 147.859375 109.683594 L 147.859375 107.40625 C 147.859375 101.742188 152.449219 97.152344 158.113281 97.152344 L 171.785156 97.152344 C 173.671875 97.152344 175.203125 98.679688 175.203125 100.570312 C 175.203125 102.457031 173.671875 103.988281 171.785156 103.988281 Z M 158.113281 103.988281 " fill-opacity="1" fill-rule="evenodd"/><path fill="#ffffff" d="M 139.882812 97.152344 C 141.773438 97.152344 143.300781 98.679688 143.300781 100.570312 L 143.300781 125.632812 C 143.300781 131.296875 138.710938 135.886719 133.050781 135.886719 L 126.210938 135.886719 C 120.546875 135.886719 115.957031 131.296875 115.957031 125.632812 L 115.957031 123.355469 C 115.957031 121.46875 117.488281 119.9375 119.375 119.9375 C 121.265625 119.9375 122.792969 121.46875 122.792969 123.355469 L 122.792969 125.632812 C 122.792969 127.523438 124.324219 129.050781 126.210938 129.050781 L 133.050781 129.050781 C 134.933594 129.050781 136.464844 127.523438 136.464844 125.632812 L 136.464844 100.570312 C 136.464844 98.679688 137.996094 97.152344 139.882812 97.152344 Z M 139.882812 97.152344 " fill-opacity="1" fill-rule="evenodd"/></svg>