<svg xmlns="http://www.w3.org/2000/svg" xmlns:xlink="http://www.w3.org/1999/xlink" width="500" zoomAndPan="magnify" viewBox="0 0 375 374.999991" height="500" preserveAspectRatio="xMidYMid meet" version="1.0"><defs><g/></defs><g fill="#e4e2dd" fill-opacity="1"><g transform="translate(100.386496, 178.975608)"><g><path d="M 1.828125 -25.125 L 11 -25.125 C 13.550781 -25.125 15.617188 -24.460938 17.203125 -23.140625 C 18.785156 -21.828125 19.578125 -19.910156 19.578125 -17.390625 C 19.578125 -14.867188 18.773438 -12.890625 17.171875 -11.453125 C 15.566406 -10.023438 13.507812 -9.3125 11 -9.3125 L 7.546875 -9.3125 L 7.546875 0 L 1.828125 0 Z M 7.546875 -13.890625 L 9.171875 -13.890625 C 10.441406 -13.890625 11.488281 -14.144531 12.3125 -14.65625 C 13.132812 -15.175781 13.546875 -16.023438 13.546875 -17.203125 C 13.546875 -18.398438 13.132812 -19.257812 12.3125 -19.78125 C 11.488281 -20.300781 10.441406 -20.5625 9.171875 -20.5625 L 7.546875 -20.5625 Z M 7.546875 -13.890625 "/></g></g></g><g fill="#e4e2dd" fill-opacity="1"><g transform="translate(120.084494, 178.975608)"><g><path d="M 7.546875 -25.125 L 7.546875 -5.03125 L 16.203125 -5.03125 L 16.203125 0 L 1.828125 0 L 1.828125 -25.125 Z M 7.546875 -25.125 "/></g></g></g><g fill="#e4e2dd" fill-opacity="1"><g transform="translate(136.707511, 178.975608)"><g><path d="M 14.59375 -25.125 L 24.734375 0 L 18.578125 0 L 16.71875 -5.03125 L 7.15625 -5.03125 L 5.296875 0 L -0.859375 0 L 9.28125 -25.125 Z M 14.765625 -10.046875 L 11.96875 -17.359375 L 11.90625 -17.359375 L 9.109375 -10.046875 Z M 14.765625 -10.046875 "/></g></g></g><g fill="#e4e2dd" fill-opacity="1"><g transform="translate(159.998073, 178.975608)"><g><path d="M 0.25 -20.09375 L 0.25 -25.125 L 17.90625 -25.125 L 17.90625 -20.09375 L 11.9375 -20.09375 L 11.9375 0 L 6.21875 0 L 6.21875 -20.09375 Z M 0.25 -20.09375 "/></g></g></g><g fill="#e4e2dd" fill-opacity="1"><g transform="translate(177.564896, 178.975608)"><g><path d="M 16.359375 -25.125 L 16.359375 -20.09375 L 7.546875 -20.09375 L 7.546875 -15.109375 L 15.6875 -15.109375 L 15.6875 -10.078125 L 7.546875 -10.078125 L 7.546875 0 L 1.828125 0 L 1.828125 -25.125 Z M 16.359375 -25.125 "/></g></g></g><g fill="#e4e2dd" fill-opacity="1"><g transform="translate(194.248807, 178.975608)"><g><path d="M 0.703125 -12.578125 C 0.703125 -16.210938 1.9375 -19.285156 4.40625 -21.796875 C 6.882812 -24.316406 9.875 -25.578125 13.375 -25.578125 C 16.882812 -25.578125 19.863281 -24.320312 22.3125 -21.8125 C 24.769531 -19.3125 26 -16.234375 26 -12.578125 C 26 -8.898438 24.789062 -5.804688 22.375 -3.296875 C 19.96875 -0.796875 16.96875 0.453125 13.375 0.453125 C 9.695312 0.453125 6.664062 -0.785156 4.28125 -3.265625 C 1.894531 -5.753906 0.703125 -8.859375 0.703125 -12.578125 Z M 6.875 -12.578125 C 6.875 -11.253906 7.078125 -10.050781 7.484375 -8.96875 C 7.890625 -7.882812 8.597656 -6.960938 9.609375 -6.203125 C 10.628906 -5.453125 11.882812 -5.078125 13.375 -5.078125 C 15.5 -5.078125 17.101562 -5.804688 18.1875 -7.265625 C 19.28125 -8.734375 19.828125 -10.503906 19.828125 -12.578125 C 19.828125 -14.628906 19.269531 -16.390625 18.15625 -17.859375 C 17.050781 -19.328125 15.457031 -20.0625 13.375 -20.0625 C 11.300781 -20.0625 9.695312 -19.328125 8.5625 -17.859375 C 7.4375 -16.390625 6.875 -14.628906 6.875 -12.578125 Z M 6.875 -12.578125 "/></g></g></g><g fill="#e4e2dd" fill-opacity="1"><g transform="translate(220.370786, 178.975608)"><g><path d="M 1.828125 -25.125 L 10.8125 -25.125 C 13.226562 -25.125 15.195312 -24.476562 16.71875 -23.1875 C 18.238281 -21.894531 19 -20.050781 19 -17.65625 C 19 -15.8125 18.535156 -14.265625 17.609375 -13.015625 C 16.691406 -11.765625 15.441406 -10.890625 13.859375 -10.390625 L 22.5 0 L 15.234375 0 L 7.546875 -9.921875 L 7.546875 0 L 1.828125 0 Z M 7.546875 -13.984375 L 8.21875 -13.984375 C 8.75 -13.984375 9.195312 -13.988281 9.5625 -14 C 9.925781 -14.019531 10.34375 -14.09375 10.8125 -14.21875 C 11.28125 -14.34375 11.65625 -14.515625 11.9375 -14.734375 C 12.21875 -14.960938 12.457031 -15.289062 12.65625 -15.71875 C 12.863281 -16.144531 12.96875 -16.660156 12.96875 -17.265625 C 12.96875 -17.878906 12.863281 -18.394531 12.65625 -18.8125 C 12.457031 -19.238281 12.21875 -19.5625 11.9375 -19.78125 C 11.65625 -20.007812 11.28125 -20.1875 10.8125 -20.3125 C 10.34375 -20.4375 9.925781 -20.507812 9.5625 -20.53125 C 9.195312 -20.550781 8.75 -20.5625 8.21875 -20.5625 L 7.546875 -20.5625 Z M 7.546875 -13.984375 "/></g></g></g><g fill="#e4e2dd" fill-opacity="1"><g transform="translate(241.591061, 178.975608)"><g><path d="M 16.203125 -25.125 L 16.203125 -20.09375 L 7.546875 -20.09375 L 7.546875 -15.109375 L 15.828125 -15.109375 L 15.828125 -10.078125 L 7.546875 -10.078125 L 7.546875 -5.03125 L 16.203125 -5.03125 L 16.203125 0 L 1.828125 0 L 1.828125 -25.125 Z M 16.203125 -25.125 "/></g></g></g><g fill="#e4e2dd" fill-opacity="1"><g transform="translate(258.670749, 178.975608)"><g><path d="M 0.703125 -12.578125 C 0.703125 -16.210938 1.9375 -19.285156 4.40625 -21.796875 C 6.882812 -24.316406 9.875 -25.578125 13.375 -25.578125 C 16.882812 -25.578125 19.863281 -24.320312 22.3125 -21.8125 C 24.769531 -19.3125 26 -16.234375 26 -12.578125 C 26 -8.898438 24.789062 -5.804688 22.375 -3.296875 C 19.96875 -0.796875 16.96875 0.453125 13.375 0.453125 C 9.695312 0.453125 6.664062 -0.785156 4.28125 -3.265625 C 1.894531 -5.753906 0.703125 -8.859375 0.703125 -12.578125 Z M 6.875 -12.578125 C 6.875 -11.253906 7.078125 -10.050781 7.484375 -8.96875 C 7.890625 -7.882812 8.597656 -6.960938 9.609375 -6.203125 C 10.628906 -5.453125 11.882812 -5.078125 13.375 -5.078125 C 15.5 -5.078125 17.101562 -5.804688 18.1875 -7.265625 C 19.28125 -8.734375 19.828125 -10.503906 19.828125 -12.578125 C 19.828125 -14.628906 19.269531 -16.390625 18.15625 -17.859375 C 17.050781 -19.328125 15.457031 -20.0625 13.375 -20.0625 C 11.300781 -20.0625 9.695312 -19.328125 8.5625 -17.859375 C 7.4375 -16.390625 6.875 -14.628906 6.875 -12.578125 Z M 6.875 -12.578125 "/></g></g></g><path stroke-linecap="butt" transform="matrix(0.75, 0, 0, 0.75, 72.518693, 196.024367)" fill="none" stroke-linejoin="miter" d="M 0.00111828 4.998761 L 84.433415 4.998761 " stroke="#ffffff" stroke-width="10" stroke-opacity="1" stroke-miterlimit="4"/><path stroke-linecap="butt" transform="matrix(0, 0.75, -0.75, 0, 80.014847, 139.430688)" fill="none" stroke-linejoin="miter" d="M -0.00133459 4.998963 L 82.462212 4.998963 " stroke="#ffffff" stroke-width="10" stroke-opacity="1" stroke-miterlimit="4"/><path stroke-linecap="butt" transform="matrix(-0.75, 0, 0, -0.75, 304.915794, 132.824962)" fill="none" stroke-linejoin="miter" d="M 0.00230877 5.000992 L 84.434606 5.000992 " stroke="#ffffff" stroke-width="10" stroke-opacity="1" stroke-miterlimit="4"/><path stroke-linecap="butt" transform="matrix(0, -0.75, 0.75, 0, 297.419635, 189.418639)" fill="none" stroke-linejoin="miter" d="M 0.000893349 4.997779 L 82.46444 4.997779 " stroke="#ffffff" stroke-width="10" stroke-opacity="1" stroke-miterlimit="4"/></svg>