<svg xmlns="http://www.w3.org/2000/svg" xmlns:xlink="http://www.w3.org/1999/xlink" width="860" zoomAndPan="magnify" viewBox="0 0 645 183.750001" height="245" preserveAspectRatio="xMidYMid meet" version="1.0"><defs><clipPath id="412f827ef4"><path d="M 159.902344 15.125 L 450.507812 15.125 L 450.507812 168.667969 L 159.902344 168.667969 Z M 159.902344 15.125 " clip-rule="nonzero"/></clipPath><clipPath id="6cb647172d"><path d="M 450.507812 91.894531 C 450.507812 93.148438 450.449219 94.402344 450.332031 95.652344 C 450.214844 96.90625 450.039062 98.152344 449.804688 99.402344 C 449.574219 100.648438 449.28125 101.890625 448.933594 103.128906 C 448.585938 104.371094 448.179688 105.601562 447.714844 106.832031 C 447.25 108.0625 446.730469 109.285156 446.152344 110.5 C 445.574219 111.714844 444.941406 112.921875 444.25 114.121094 C 443.558594 115.320312 442.8125 116.507812 442.011719 117.6875 C 441.210938 118.867188 440.355469 120.035156 439.445312 121.195312 C 438.535156 122.351562 437.570312 123.496094 436.554688 124.628906 C 435.539062 125.761719 434.46875 126.878906 433.347656 127.984375 C 432.226562 129.089844 431.054688 130.179688 429.832031 131.253906 C 428.609375 132.328125 427.339844 133.386719 426.019531 134.429688 C 424.695312 135.472656 423.328125 136.496094 421.910156 137.503906 C 420.496094 138.507812 419.03125 139.496094 417.523438 140.464844 C 416.015625 141.433594 414.460938 142.382812 412.867188 143.308594 C 411.269531 144.238281 409.628906 145.144531 407.949219 146.03125 C 406.265625 146.917969 404.542969 147.78125 402.78125 148.621094 C 401.019531 149.464844 399.21875 150.28125 397.382812 151.078125 C 395.542969 151.871094 393.671875 152.640625 391.761719 153.386719 C 389.851562 154.136719 387.90625 154.855469 385.929688 155.550781 C 383.953125 156.25 381.945312 156.917969 379.902344 157.5625 C 377.863281 158.207031 375.796875 158.824219 373.699219 159.414062 C 371.601562 160.003906 369.476562 160.570312 367.328125 161.105469 C 365.179688 161.640625 363.003906 162.148438 360.808594 162.628906 C 358.613281 163.105469 356.394531 163.558594 354.15625 163.980469 C 351.914062 164.402344 349.660156 164.792969 347.382812 165.15625 C 345.105469 165.523438 342.816406 165.855469 340.507812 166.160156 C 338.203125 166.464844 335.882812 166.738281 333.550781 166.984375 C 331.21875 167.226562 328.875 167.441406 326.523438 167.625 C 324.171875 167.808594 321.8125 167.964844 319.445312 168.085938 C 317.078125 168.207031 314.707031 168.300781 312.332031 168.363281 C 309.957031 168.425781 307.582031 168.453125 305.203125 168.453125 C 302.824219 168.453125 300.449219 168.425781 298.074219 168.363281 C 295.699219 168.300781 293.328125 168.207031 290.960938 168.085938 C 288.59375 167.964844 286.234375 167.808594 283.882812 167.625 C 281.53125 167.441406 279.1875 167.226562 276.855469 166.984375 C 274.523438 166.738281 272.203125 166.464844 269.898438 166.160156 C 267.589844 165.855469 265.300781 165.523438 263.023438 165.15625 C 260.75 164.792969 258.492188 164.402344 256.253906 163.980469 C 254.015625 163.558594 251.796875 163.105469 249.597656 162.628906 C 247.402344 162.148438 245.230469 161.640625 243.078125 161.105469 C 240.929688 160.570312 238.804688 160.003906 236.707031 159.414062 C 234.613281 158.824219 232.542969 158.207031 230.503906 157.5625 C 228.464844 156.917969 226.457031 156.25 224.476562 155.550781 C 222.5 154.855469 220.558594 154.136719 218.648438 153.386719 C 216.738281 152.640625 214.863281 151.871094 213.023438 151.078125 C 211.1875 150.28125 209.386719 149.464844 207.625 148.621094 C 205.863281 147.78125 204.140625 146.917969 202.460938 146.03125 C 200.777344 145.144531 199.140625 144.238281 197.542969 143.308594 C 195.945312 142.382812 194.390625 141.433594 192.882812 140.464844 C 191.375 139.496094 189.914062 138.507812 188.496094 137.503906 C 187.078125 136.496094 185.710938 135.472656 184.390625 134.429688 C 183.066406 133.386719 181.796875 132.328125 180.574219 131.253906 C 179.351562 130.179688 178.179688 129.089844 177.058594 127.984375 C 175.9375 126.878906 174.867188 125.761719 173.851562 124.628906 C 172.835938 123.496094 171.871094 122.351562 170.960938 121.195312 C 170.050781 120.035156 169.195312 118.867188 168.394531 117.6875 C 167.59375 116.507812 166.847656 115.320312 166.15625 114.121094 C 165.46875 112.921875 164.832031 111.714844 164.253906 110.5 C 163.679688 109.285156 163.15625 108.0625 162.691406 106.832031 C 162.230469 105.601562 161.824219 104.371094 161.472656 103.128906 C 161.125 101.890625 160.835938 100.648438 160.601562 99.402344 C 160.367188 98.152344 160.191406 96.90625 160.078125 95.652344 C 159.960938 94.402344 159.902344 93.148438 159.902344 91.894531 C 159.902344 90.644531 159.960938 89.390625 160.078125 88.140625 C 160.191406 86.886719 160.367188 85.640625 160.601562 84.390625 C 160.835938 83.144531 161.125 81.902344 161.472656 80.664062 C 161.824219 79.421875 162.230469 78.191406 162.691406 76.960938 C 163.15625 75.730469 163.679688 74.507812 164.253906 73.292969 C 164.832031 72.078125 165.46875 70.871094 166.15625 69.671875 C 166.847656 68.472656 167.59375 67.285156 168.394531 66.105469 C 169.195312 64.925781 170.050781 63.757812 170.960938 62.597656 C 171.871094 61.441406 172.835938 60.296875 173.851562 59.164062 C 174.867188 58.03125 175.9375 56.914062 177.058594 55.808594 C 178.179688 54.703125 179.351562 53.613281 180.574219 52.539062 C 181.796875 51.464844 183.066406 50.40625 184.390625 49.363281 C 185.710938 48.320312 187.078125 47.296875 188.496094 46.289062 C 189.914062 45.285156 191.375 44.296875 192.882812 43.328125 C 194.390625 42.359375 195.945312 41.410156 197.542969 40.484375 C 199.140625 39.554688 200.777344 38.648438 202.460938 37.761719 C 204.140625 36.875 205.863281 36.011719 207.625 35.171875 C 209.386719 34.328125 211.1875 33.511719 213.023438 32.714844 C 214.863281 31.921875 216.738281 31.152344 218.648438 30.40625 C 220.558594 29.65625 222.5 28.9375 224.476562 28.242188 C 226.457031 27.542969 228.464844 26.875 230.503906 26.230469 C 232.542969 25.585938 234.613281 24.96875 236.707031 24.378906 C 238.804688 23.789062 240.929688 23.222656 243.078125 22.6875 C 245.230469 22.152344 247.402344 21.644531 249.597656 21.164062 C 251.796875 20.6875 254.015625 20.234375 256.253906 19.8125 C 258.492188 19.390625 260.75 19 263.023438 18.636719 C 265.300781 18.269531 267.589844 17.9375 269.898438 17.632812 C 272.203125 17.328125 274.523438 17.054688 276.855469 16.808594 C 279.1875 16.566406 281.53125 16.351562 283.882812 16.167969 C 286.234375 15.984375 288.59375 15.828125 290.960938 15.707031 C 293.328125 15.585938 295.699219 15.492188 298.074219 15.429688 C 300.449219 15.367188 302.824219 15.339844 305.203125 15.339844 C 307.582031 15.339844 309.957031 15.367188 312.332031 15.429688 C 314.707031 15.492188 317.078125 15.585938 319.445312 15.707031 C 321.8125 15.828125 324.171875 15.984375 326.523438 16.167969 C 328.875 16.351562 331.21875 16.566406 333.550781 16.808594 C 335.882812 17.054688 338.203125 17.328125 340.507812 17.632812 C 342.816406 17.9375 345.105469 18.269531 347.382812 18.636719 C 349.660156 19 351.914062 19.390625 354.15625 19.8125 C 356.394531 20.234375 358.613281 20.6875 360.808594 21.164062 C 363.003906 21.644531 365.179688 22.152344 367.328125 22.6875 C 369.476562 23.222656 371.601562 23.789062 373.699219 24.378906 C 375.796875 24.96875 377.863281 25.585938 379.902344 26.230469 C 381.945312 26.875 383.953125 27.542969 385.929688 28.242188 C 387.90625 28.9375 389.851562 29.65625 391.761719 30.40625 C 393.671875 31.152344 395.542969 31.921875 397.382812 32.714844 C 399.21875 33.511719 401.019531 34.328125 402.78125 35.171875 C 404.542969 36.011719 406.265625 36.875 407.949219 37.761719 C 409.628906 38.648438 411.269531 39.554688 412.867188 40.484375 C 414.460938 41.410156 416.015625 42.359375 417.523438 43.328125 C 419.03125 44.296875 420.496094 45.285156 421.910156 46.289062 C 423.328125 47.296875 424.695312 48.320312 426.019531 49.363281 C 427.339844 50.40625 428.609375 51.464844 429.832031 52.539062 C 431.054688 53.613281 432.226562 54.703125 433.347656 55.808594 C 434.46875 56.914062 435.539062 58.03125 436.554688 59.164062 C 437.570312 60.296875 438.535156 61.441406 439.445312 62.597656 C 440.355469 63.757812 441.210938 64.925781 442.011719 66.105469 C 442.8125 67.285156 443.558594 68.472656 444.25 69.671875 C 444.941406 70.871094 445.574219 72.078125 446.152344 73.292969 C 446.730469 74.507812 447.25 75.730469 447.714844 76.960938 C 448.179688 78.191406 448.585938 79.421875 448.933594 80.664062 C 449.28125 81.902344 449.574219 83.144531 449.804688 84.390625 C 450.039062 85.640625 450.214844 86.886719 450.332031 88.140625 C 450.449219 89.390625 450.507812 90.644531 450.507812 91.894531 Z M 450.507812 91.894531 " clip-rule="nonzero"/></clipPath><radialGradient gradientTransform="matrix(0.998948, 0, 0, 1.001052, 246.701307, 108.525419)" gradientUnits="userSpaceOnUse" r="191.020148" cx="0.440168" id="c00a365e22" cy="-66.193589" fx="0.440168" fy="-66.193589"><stop stop-opacity="1" stop-color="rgb(99.725342%, 99.772644%, 99.839783%)" offset="0"/><stop stop-opacity="1" stop-color="rgb(99.176025%, 99.319458%, 99.520874%)" offset="0.00390625"/><stop stop-opacity="1" stop-color="rgb(98.628235%, 98.866272%, 99.201965%)" offset="0.0078125"/><stop stop-opacity="1" stop-color="rgb(98.078918%, 98.413086%, 98.883057%)" offset="0.0117188"/><stop stop-opacity="1" stop-color="rgb(97.531128%, 97.9599%, 98.564148%)" offset="0.015625"/><stop stop-opacity="1" stop-color="rgb(96.981812%, 97.506714%, 98.245239%)" offset="0.0195312"/><stop stop-opacity="1" stop-color="rgb(96.434021%, 97.053528%, 97.926331%)" offset="0.0234375"/><stop stop-opacity="1" stop-color="rgb(95.88623%, 96.600342%, 97.607422%)" offset="0.0273438"/><stop stop-opacity="1" stop-color="rgb(95.336914%, 96.147156%, 97.288513%)" offset="0.03125"/><stop stop-opacity="1" stop-color="rgb(94.789124%, 95.69397%, 96.97113%)" offset="0.0351562"/><stop stop-opacity="1" stop-color="rgb(94.239807%, 95.240784%, 96.652222%)" offset="0.0390625"/><stop stop-opacity="1" stop-color="rgb(93.692017%, 94.787598%, 96.333313%)" offset="0.0429688"/><stop stop-opacity="1" stop-color="rgb(93.1427%, 94.334412%, 96.014404%)" offset="0.046875"/><stop stop-opacity="1" stop-color="rgb(92.59491%, 93.881226%, 95.695496%)" offset="0.0507812"/><stop stop-opacity="1" stop-color="rgb(92.047119%, 93.42804%, 95.376587%)" offset="0.0546875"/><stop stop-opacity="1" stop-color="rgb(91.497803%, 92.974854%, 95.057678%)" offset="0.0585938"/><stop stop-opacity="1" stop-color="rgb(90.950012%, 92.521667%, 94.73877%)" offset="0.0625"/><stop stop-opacity="1" stop-color="rgb(90.400696%, 92.068481%, 94.419861%)" offset="0.0664062"/><stop stop-opacity="1" stop-color="rgb(89.852905%, 91.615295%, 94.100952%)" offset="0.0703125"/><stop stop-opacity="1" stop-color="rgb(89.303589%, 91.162109%, 93.783569%)" offset="0.0742188"/><stop stop-opacity="1" stop-color="rgb(88.755798%, 90.708923%, 93.464661%)" offset="0.078125"/><stop stop-opacity="1" stop-color="rgb(88.208008%, 90.255737%, 93.145752%)" offset="0.0820312"/><stop stop-opacity="1" stop-color="rgb(87.658691%, 89.802551%, 92.826843%)" offset="0.0859375"/><stop stop-opacity="1" stop-color="rgb(87.110901%, 89.349365%, 92.507935%)" offset="0.0898438"/><stop stop-opacity="1" stop-color="rgb(86.561584%, 88.897705%, 92.189026%)" offset="0.09375"/><stop stop-opacity="1" stop-color="rgb(86.013794%, 88.444519%, 91.870117%)" offset="0.0976562"/><stop stop-opacity="1" stop-color="rgb(85.464478%, 87.991333%, 91.551208%)" offset="0.101562"/><stop stop-opacity="1" stop-color="rgb(84.916687%, 87.538147%, 91.2323%)" offset="0.105469"/><stop stop-opacity="1" stop-color="rgb(84.368896%, 87.084961%, 90.914917%)" offset="0.109375"/><stop stop-opacity="1" stop-color="rgb(83.81958%, 86.631775%, 90.596008%)" offset="0.113281"/><stop stop-opacity="1" stop-color="rgb(83.27179%, 86.178589%, 90.2771%)" offset="0.117188"/><stop stop-opacity="1" stop-color="rgb(82.722473%, 85.725403%, 89.958191%)" offset="0.121094"/><stop stop-opacity="1" stop-color="rgb(82.174683%, 85.272217%, 89.639282%)" offset="0.125"/><stop stop-opacity="1" stop-color="rgb(81.626892%, 84.819031%, 89.320374%)" offset="0.128906"/><stop stop-opacity="1" stop-color="rgb(81.077576%, 84.365845%, 89.001465%)" offset="0.132812"/><stop stop-opacity="1" stop-color="rgb(80.529785%, 83.912659%, 88.682556%)" offset="0.136719"/><stop stop-opacity="1" stop-color="rgb(79.980469%, 83.459473%, 88.363647%)" offset="0.140625"/><stop stop-opacity="1" stop-color="rgb(79.432678%, 83.006287%, 88.044739%)" offset="0.144531"/><stop stop-opacity="1" stop-color="rgb(78.883362%, 82.553101%, 87.727356%)" offset="0.148438"/><stop stop-opacity="1" stop-color="rgb(78.335571%, 82.099915%, 87.408447%)" offset="0.152344"/><stop stop-opacity="1" stop-color="rgb(77.787781%, 81.646729%, 87.089539%)" offset="0.15625"/><stop stop-opacity="1" stop-color="rgb(77.238464%, 81.193542%, 86.77063%)" offset="0.160156"/><stop stop-opacity="1" stop-color="rgb(76.690674%, 80.740356%, 86.451721%)" offset="0.164062"/><stop stop-opacity="1" stop-color="rgb(76.141357%, 80.28717%, 86.132812%)" offset="0.167969"/><stop stop-opacity="1" stop-color="rgb(75.593567%, 79.833984%, 85.813904%)" offset="0.171875"/><stop stop-opacity="1" stop-color="rgb(75.04425%, 79.380798%, 85.494995%)" offset="0.175781"/><stop stop-opacity="1" stop-color="rgb(74.49646%, 78.927612%, 85.176086%)" offset="0.179688"/><stop stop-opacity="1" stop-color="rgb(73.948669%, 78.474426%, 84.857178%)" offset="0.183594"/><stop stop-opacity="1" stop-color="rgb(73.399353%, 78.02124%, 84.539795%)" offset="0.1875"/><stop stop-opacity="1" stop-color="rgb(72.851562%, 77.56958%, 84.220886%)" offset="0.191406"/><stop stop-opacity="1" stop-color="rgb(72.302246%, 77.116394%, 83.901978%)" offset="0.195312"/><stop stop-opacity="1" stop-color="rgb(71.754456%, 76.663208%, 83.583069%)" offset="0.199219"/><stop stop-opacity="1" stop-color="rgb(71.205139%, 76.210022%, 83.26416%)" offset="0.203125"/><stop stop-opacity="1" stop-color="rgb(70.657349%, 75.756836%, 82.945251%)" offset="0.207031"/><stop stop-opacity="1" stop-color="rgb(70.109558%, 75.30365%, 82.626343%)" offset="0.210938"/><stop stop-opacity="1" stop-color="rgb(69.560242%, 74.850464%, 82.307434%)" offset="0.214844"/><stop stop-opacity="1" stop-color="rgb(69.012451%, 74.397278%, 81.988525%)" offset="0.21875"/><stop stop-opacity="1" stop-color="rgb(68.463135%, 73.944092%, 81.671143%)" offset="0.222656"/><stop stop-opacity="1" stop-color="rgb(67.915344%, 73.490906%, 81.352234%)" offset="0.226562"/><stop stop-opacity="1" stop-color="rgb(67.366028%, 73.03772%, 81.033325%)" offset="0.230469"/><stop stop-opacity="1" stop-color="rgb(66.818237%, 72.584534%, 80.714417%)" offset="0.234375"/><stop stop-opacity="1" stop-color="rgb(66.270447%, 72.131348%, 80.395508%)" offset="0.238281"/><stop stop-opacity="1" stop-color="rgb(65.72113%, 71.678162%, 80.076599%)" offset="0.242188"/><stop stop-opacity="1" stop-color="rgb(65.17334%, 71.224976%, 79.75769%)" offset="0.246094"/><stop stop-opacity="1" stop-color="rgb(64.624023%, 70.77179%, 79.438782%)" offset="0.25"/><stop stop-opacity="1" stop-color="rgb(64.076233%, 70.318604%, 79.119873%)" offset="0.253906"/><stop stop-opacity="1" stop-color="rgb(63.528442%, 69.865417%, 78.800964%)" offset="0.257812"/><stop stop-opacity="1" stop-color="rgb(62.979126%, 69.412231%, 78.483582%)" offset="0.261719"/><stop stop-opacity="1" stop-color="rgb(62.431335%, 68.959045%, 78.164673%)" offset="0.265625"/><stop stop-opacity="1" stop-color="rgb(61.882019%, 68.505859%, 77.845764%)" offset="0.269531"/><stop stop-opacity="1" stop-color="rgb(61.334229%, 68.052673%, 77.526855%)" offset="0.273438"/><stop stop-opacity="1" stop-color="rgb(60.784912%, 67.599487%, 77.207947%)" offset="0.277344"/><stop stop-opacity="1" stop-color="rgb(60.237122%, 67.146301%, 76.889038%)" offset="0.28125"/><stop stop-opacity="1" stop-color="rgb(59.689331%, 66.693115%, 76.570129%)" offset="0.285156"/><stop stop-opacity="1" stop-color="rgb(59.140015%, 66.241455%, 76.251221%)" offset="0.289062"/><stop stop-opacity="1" stop-color="rgb(58.592224%, 65.788269%, 75.932312%)" offset="0.292969"/><stop stop-opacity="1" stop-color="rgb(58.042908%, 65.335083%, 75.614929%)" offset="0.296875"/><stop stop-opacity="1" stop-color="rgb(57.495117%, 64.881897%, 75.296021%)" offset="0.300781"/><stop stop-opacity="1" stop-color="rgb(56.945801%, 64.428711%, 74.977112%)" offset="0.304688"/><stop stop-opacity="1" stop-color="rgb(56.39801%, 63.975525%, 74.658203%)" offset="0.308594"/><stop stop-opacity="1" stop-color="rgb(55.85022%, 63.522339%, 74.339294%)" offset="0.3125"/><stop stop-opacity="1" stop-color="rgb(55.300903%, 63.069153%, 74.020386%)" offset="0.316406"/><stop stop-opacity="1" stop-color="rgb(54.753113%, 62.615967%, 73.701477%)" offset="0.320312"/><stop stop-opacity="1" stop-color="rgb(54.203796%, 62.162781%, 73.382568%)" offset="0.324219"/><stop stop-opacity="1" stop-color="rgb(53.656006%, 61.709595%, 73.06366%)" offset="0.328125"/><stop stop-opacity="1" stop-color="rgb(53.106689%, 61.256409%, 72.744751%)" offset="0.332031"/><stop stop-opacity="1" stop-color="rgb(52.558899%, 60.803223%, 72.427368%)" offset="0.335938"/><stop stop-opacity="1" stop-color="rgb(52.011108%, 60.350037%, 72.108459%)" offset="0.339844"/><stop stop-opacity="1" stop-color="rgb(51.461792%, 59.896851%, 71.789551%)" offset="0.34375"/><stop stop-opacity="1" stop-color="rgb(50.914001%, 59.443665%, 71.470642%)" offset="0.347656"/><stop stop-opacity="1" stop-color="rgb(50.364685%, 58.990479%, 71.151733%)" offset="0.351562"/><stop stop-opacity="1" stop-color="rgb(49.816895%, 58.537292%, 70.832825%)" offset="0.355469"/><stop stop-opacity="1" stop-color="rgb(49.267578%, 58.084106%, 70.513916%)" offset="0.359375"/><stop stop-opacity="1" stop-color="rgb(48.719788%, 57.63092%, 70.195007%)" offset="0.363281"/><stop stop-opacity="1" stop-color="rgb(48.171997%, 57.177734%, 69.876099%)" offset="0.367188"/><stop stop-opacity="1" stop-color="rgb(47.622681%, 56.724548%, 69.55719%)" offset="0.371094"/><stop stop-opacity="1" stop-color="rgb(47.07489%, 56.271362%, 69.239807%)" offset="0.375"/><stop stop-opacity="1" stop-color="rgb(46.525574%, 55.818176%, 68.920898%)" offset="0.378906"/><stop stop-opacity="1" stop-color="rgb(45.977783%, 55.36499%, 68.60199%)" offset="0.382812"/><stop stop-opacity="1" stop-color="rgb(45.429993%, 54.91333%, 68.283081%)" offset="0.386719"/><stop stop-opacity="1" stop-color="rgb(44.880676%, 54.460144%, 67.964172%)" offset="0.390625"/><stop stop-opacity="1" stop-color="rgb(44.332886%, 54.006958%, 67.645264%)" offset="0.394531"/><stop stop-opacity="1" stop-color="rgb(43.783569%, 53.553772%, 67.326355%)" offset="0.398438"/><stop stop-opacity="1" stop-color="rgb(43.235779%, 53.100586%, 67.007446%)" offset="0.402344"/><stop stop-opacity="1" stop-color="rgb(42.686462%, 52.6474%, 66.688538%)" offset="0.40625"/><stop stop-opacity="1" stop-color="rgb(42.138672%, 52.194214%, 66.371155%)" offset="0.410156"/><stop stop-opacity="1" stop-color="rgb(41.590881%, 51.741028%, 66.052246%)" offset="0.414062"/><stop stop-opacity="1" stop-color="rgb(41.041565%, 51.287842%, 65.733337%)" offset="0.417969"/><stop stop-opacity="1" stop-color="rgb(40.493774%, 50.834656%, 65.414429%)" offset="0.421875"/><stop stop-opacity="1" stop-color="rgb(39.944458%, 50.38147%, 65.09552%)" offset="0.425781"/><stop stop-opacity="1" stop-color="rgb(39.396667%, 49.928284%, 64.776611%)" offset="0.429688"/><stop stop-opacity="1" stop-color="rgb(38.847351%, 49.475098%, 64.457703%)" offset="0.433594"/><stop stop-opacity="1" stop-color="rgb(38.299561%, 49.021912%, 64.138794%)" offset="0.4375"/><stop stop-opacity="1" stop-color="rgb(37.75177%, 48.568726%, 63.819885%)" offset="0.441406"/><stop stop-opacity="1" stop-color="rgb(37.202454%, 48.11554%, 63.500977%)" offset="0.445312"/><stop stop-opacity="1" stop-color="rgb(36.654663%, 47.662354%, 63.183594%)" offset="0.449219"/><stop stop-opacity="1" stop-color="rgb(36.105347%, 47.209167%, 62.864685%)" offset="0.453125"/><stop stop-opacity="1" stop-color="rgb(35.557556%, 46.755981%, 62.545776%)" offset="0.457031"/><stop stop-opacity="1" stop-color="rgb(35.00824%, 46.302795%, 62.226868%)" offset="0.460938"/><stop stop-opacity="1" stop-color="rgb(34.460449%, 45.849609%, 61.907959%)" offset="0.464844"/><stop stop-opacity="1" stop-color="rgb(33.912659%, 45.396423%, 61.58905%)" offset="0.46875"/><stop stop-opacity="1" stop-color="rgb(33.363342%, 44.943237%, 61.270142%)" offset="0.472656"/><stop stop-opacity="1" stop-color="rgb(32.815552%, 44.490051%, 60.951233%)" offset="0.476562"/><stop stop-opacity="1" stop-color="rgb(32.266235%, 44.036865%, 60.632324%)" offset="0.480469"/><stop stop-opacity="1" stop-color="rgb(31.718445%, 43.585205%, 60.314941%)" offset="0.484375"/><stop stop-opacity="1" stop-color="rgb(31.170654%, 43.132019%, 59.996033%)" offset="0.488281"/><stop stop-opacity="1" stop-color="rgb(30.621338%, 42.678833%, 59.677124%)" offset="0.492188"/><stop stop-opacity="1" stop-color="rgb(30.073547%, 42.225647%, 59.358215%)" offset="0.496094"/><stop stop-opacity="1" stop-color="rgb(29.736328%, 41.882324%, 59.016418%)" offset="0.5"/><stop stop-opacity="1" stop-color="rgb(29.60968%, 41.648865%, 58.651733%)" offset="0.503906"/><stop stop-opacity="1" stop-color="rgb(29.484558%, 41.416931%, 58.287048%)" offset="0.507812"/><stop stop-opacity="1" stop-color="rgb(29.359436%, 41.183472%, 57.922363%)" offset="0.511719"/><stop stop-opacity="1" stop-color="rgb(29.232788%, 40.951538%, 57.556152%)" offset="0.515625"/><stop stop-opacity="1" stop-color="rgb(29.107666%, 40.718079%, 57.191467%)" offset="0.519531"/><stop stop-opacity="1" stop-color="rgb(28.981018%, 40.486145%, 56.826782%)" offset="0.523438"/><stop stop-opacity="1" stop-color="rgb(28.855896%, 40.252686%, 56.462097%)" offset="0.527344"/><stop stop-opacity="1" stop-color="rgb(28.729248%, 40.019226%, 56.097412%)" offset="0.53125"/><stop stop-opacity="1" stop-color="rgb(28.604126%, 39.787292%, 55.732727%)" offset="0.535156"/><stop stop-opacity="1" stop-color="rgb(28.477478%, 39.553833%, 55.368042%)" offset="0.539062"/><stop stop-opacity="1" stop-color="rgb(28.352356%, 39.321899%, 55.003357%)" offset="0.542969"/><stop stop-opacity="1" stop-color="rgb(28.227234%, 39.08844%, 54.638672%)" offset="0.546875"/><stop stop-opacity="1" stop-color="rgb(28.100586%, 38.856506%, 54.272461%)" offset="0.550781"/><stop stop-opacity="1" stop-color="rgb(27.975464%, 38.623047%, 53.907776%)" offset="0.554688"/><stop stop-opacity="1" stop-color="rgb(27.848816%, 38.389587%, 53.543091%)" offset="0.558594"/><stop stop-opacity="1" stop-color="rgb(27.723694%, 38.157654%, 53.178406%)" offset="0.5625"/><stop stop-opacity="1" stop-color="rgb(27.597046%, 37.924194%, 52.813721%)" offset="0.566406"/><stop stop-opacity="1" stop-color="rgb(27.471924%, 37.692261%, 52.449036%)" offset="0.570312"/><stop stop-opacity="1" stop-color="rgb(27.346802%, 37.458801%, 52.084351%)" offset="0.574219"/><stop stop-opacity="1" stop-color="rgb(27.220154%, 37.226868%, 51.719666%)" offset="0.578125"/><stop stop-opacity="1" stop-color="rgb(27.095032%, 36.993408%, 51.35498%)" offset="0.582031"/><stop stop-opacity="1" stop-color="rgb(26.968384%, 36.759949%, 50.990295%)" offset="0.585938"/><stop stop-opacity="1" stop-color="rgb(26.843262%, 36.528015%, 50.624084%)" offset="0.589844"/><stop stop-opacity="1" stop-color="rgb(26.716614%, 36.294556%, 50.259399%)" offset="0.59375"/><stop stop-opacity="1" stop-color="rgb(26.591492%, 36.062622%, 49.894714%)" offset="0.597656"/><stop stop-opacity="1" stop-color="rgb(26.46637%, 35.829163%, 49.530029%)" offset="0.601562"/><stop stop-opacity="1" stop-color="rgb(26.339722%, 35.595703%, 49.165344%)" offset="0.605469"/><stop stop-opacity="1" stop-color="rgb(26.2146%, 35.36377%, 48.800659%)" offset="0.609375"/><stop stop-opacity="1" stop-color="rgb(26.087952%, 35.13031%, 48.435974%)" offset="0.613281"/><stop stop-opacity="1" stop-color="rgb(25.96283%, 34.898376%, 48.071289%)" offset="0.617188"/><stop stop-opacity="1" stop-color="rgb(25.836182%, 34.664917%, 47.706604%)" offset="0.621094"/><stop stop-opacity="1" stop-color="rgb(25.71106%, 34.432983%, 47.340393%)" offset="0.625"/><stop stop-opacity="1" stop-color="rgb(25.585938%, 34.199524%, 46.975708%)" offset="0.628906"/><stop stop-opacity="1" stop-color="rgb(25.45929%, 33.966064%, 46.611023%)" offset="0.632812"/><stop stop-opacity="1" stop-color="rgb(25.334167%, 33.734131%, 46.246338%)" offset="0.636719"/><stop stop-opacity="1" stop-color="rgb(25.20752%, 33.500671%, 45.881653%)" offset="0.640625"/><stop stop-opacity="1" stop-color="rgb(25.082397%, 33.268738%, 45.516968%)" offset="0.644531"/><stop stop-opacity="1" stop-color="rgb(24.95575%, 33.035278%, 45.152283%)" offset="0.648438"/><stop stop-opacity="1" stop-color="rgb(24.830627%, 32.803345%, 44.787598%)" offset="0.652344"/><stop stop-opacity="1" stop-color="rgb(24.705505%, 32.569885%, 44.422913%)" offset="0.65625"/><stop stop-opacity="1" stop-color="rgb(24.578857%, 32.336426%, 44.058228%)" offset="0.660156"/><stop stop-opacity="1" stop-color="rgb(24.453735%, 32.104492%, 43.692017%)" offset="0.664062"/><stop stop-opacity="1" stop-color="rgb(24.327087%, 31.871033%, 43.327332%)" offset="0.667969"/><stop stop-opacity="1" stop-color="rgb(24.201965%, 31.639099%, 42.962646%)" offset="0.671875"/><stop stop-opacity="1" stop-color="rgb(24.075317%, 31.40564%, 42.597961%)" offset="0.675781"/><stop stop-opacity="1" stop-color="rgb(23.950195%, 31.173706%, 42.233276%)" offset="0.679688"/><stop stop-opacity="1" stop-color="rgb(23.823547%, 30.940247%, 41.868591%)" offset="0.683594"/><stop stop-opacity="1" stop-color="rgb(23.698425%, 30.706787%, 41.503906%)" offset="0.6875"/><stop stop-opacity="1" stop-color="rgb(23.573303%, 30.474854%, 41.139221%)" offset="0.691406"/><stop stop-opacity="1" stop-color="rgb(23.446655%, 30.241394%, 40.774536%)" offset="0.695312"/><stop stop-opacity="1" stop-color="rgb(23.321533%, 30.00946%, 40.409851%)" offset="0.699219"/><stop stop-opacity="1" stop-color="rgb(23.194885%, 29.776001%, 40.04364%)" offset="0.703125"/><stop stop-opacity="1" stop-color="rgb(23.069763%, 29.544067%, 39.678955%)" offset="0.707031"/><stop stop-opacity="1" stop-color="rgb(22.943115%, 29.310608%, 39.31427%)" offset="0.710938"/><stop stop-opacity="1" stop-color="rgb(22.817993%, 29.077148%, 38.949585%)" offset="0.714844"/><stop stop-opacity="1" stop-color="rgb(22.692871%, 28.845215%, 38.5849%)" offset="0.71875"/><stop stop-opacity="1" stop-color="rgb(22.566223%, 28.611755%, 38.220215%)" offset="0.722656"/><stop stop-opacity="1" stop-color="rgb(22.441101%, 28.379822%, 37.85553%)" offset="0.726562"/><stop stop-opacity="1" stop-color="rgb(22.314453%, 28.146362%, 37.490845%)" offset="0.730469"/><stop stop-opacity="1" stop-color="rgb(22.189331%, 27.912903%, 37.12616%)" offset="0.734375"/><stop stop-opacity="1" stop-color="rgb(22.062683%, 27.680969%, 36.759949%)" offset="0.738281"/><stop stop-opacity="1" stop-color="rgb(21.937561%, 27.44751%, 36.395264%)" offset="0.742188"/><stop stop-opacity="1" stop-color="rgb(21.812439%, 27.215576%, 36.030579%)" offset="0.746094"/><stop stop-opacity="1" stop-color="rgb(21.685791%, 26.982117%, 35.665894%)" offset="0.75"/><stop stop-opacity="1" stop-color="rgb(21.560669%, 26.750183%, 35.301208%)" offset="0.753906"/><stop stop-opacity="1" stop-color="rgb(21.434021%, 26.516724%, 34.936523%)" offset="0.757812"/><stop stop-opacity="1" stop-color="rgb(21.308899%, 26.283264%, 34.571838%)" offset="0.761719"/><stop stop-opacity="1" stop-color="rgb(21.182251%, 26.051331%, 34.207153%)" offset="0.765625"/><stop stop-opacity="1" stop-color="rgb(21.057129%, 25.817871%, 33.842468%)" offset="0.769531"/><stop stop-opacity="1" stop-color="rgb(20.932007%, 25.585938%, 33.477783%)" offset="0.773438"/><stop stop-opacity="1" stop-color="rgb(20.805359%, 25.352478%, 33.111572%)" offset="0.777344"/><stop stop-opacity="1" stop-color="rgb(20.680237%, 25.120544%, 32.746887%)" offset="0.78125"/><stop stop-opacity="1" stop-color="rgb(20.553589%, 24.887085%, 32.382202%)" offset="0.785156"/><stop stop-opacity="1" stop-color="rgb(20.428467%, 24.653625%, 32.017517%)" offset="0.789062"/><stop stop-opacity="1" stop-color="rgb(20.301819%, 24.421692%, 31.652832%)" offset="0.792969"/><stop stop-opacity="1" stop-color="rgb(20.176697%, 24.188232%, 31.288147%)" offset="0.796875"/><stop stop-opacity="1" stop-color="rgb(20.051575%, 23.956299%, 30.923462%)" offset="0.800781"/><stop stop-opacity="1" stop-color="rgb(19.924927%, 23.722839%, 30.558777%)" offset="0.804688"/><stop stop-opacity="1" stop-color="rgb(19.799805%, 23.490906%, 30.194092%)" offset="0.808594"/><stop stop-opacity="1" stop-color="rgb(19.673157%, 23.257446%, 29.827881%)" offset="0.8125"/><stop stop-opacity="1" stop-color="rgb(19.548035%, 23.023987%, 29.463196%)" offset="0.816406"/><stop stop-opacity="1" stop-color="rgb(19.421387%, 22.792053%, 29.098511%)" offset="0.820312"/><stop stop-opacity="1" stop-color="rgb(19.296265%, 22.558594%, 28.733826%)" offset="0.824219"/><stop stop-opacity="1" stop-color="rgb(19.171143%, 22.32666%, 28.369141%)" offset="0.828125"/><stop stop-opacity="1" stop-color="rgb(19.044495%, 22.093201%, 28.004456%)" offset="0.832031"/><stop stop-opacity="1" stop-color="rgb(18.919373%, 21.861267%, 27.639771%)" offset="0.835938"/><stop stop-opacity="1" stop-color="rgb(18.792725%, 21.627808%, 27.275085%)" offset="0.839844"/><stop stop-opacity="1" stop-color="rgb(18.667603%, 21.394348%, 26.9104%)" offset="0.84375"/><stop stop-opacity="1" stop-color="rgb(18.540955%, 21.162415%, 26.545715%)" offset="0.847656"/><stop stop-opacity="1" stop-color="rgb(18.415833%, 20.928955%, 26.179504%)" offset="0.851562"/><stop stop-opacity="1" stop-color="rgb(18.289185%, 20.697021%, 25.814819%)" offset="0.855469"/><stop stop-opacity="1" stop-color="rgb(18.164062%, 20.463562%, 25.450134%)" offset="0.859375"/><stop stop-opacity="1" stop-color="rgb(18.03894%, 20.230103%, 25.085449%)" offset="0.863281"/><stop stop-opacity="1" stop-color="rgb(17.912292%, 19.998169%, 24.720764%)" offset="0.867188"/><stop stop-opacity="1" stop-color="rgb(17.78717%, 19.764709%, 24.356079%)" offset="0.871094"/><stop stop-opacity="1" stop-color="rgb(17.660522%, 19.532776%, 23.991394%)" offset="0.875"/><stop stop-opacity="1" stop-color="rgb(17.5354%, 19.299316%, 23.626709%)" offset="0.878906"/><stop stop-opacity="1" stop-color="rgb(17.408752%, 19.067383%, 23.262024%)" offset="0.882812"/><stop stop-opacity="1" stop-color="rgb(17.28363%, 18.833923%, 22.897339%)" offset="0.886719"/><stop stop-opacity="1" stop-color="rgb(17.158508%, 18.600464%, 22.531128%)" offset="0.890625"/><stop stop-opacity="1" stop-color="rgb(17.03186%, 18.36853%, 22.166443%)" offset="0.894531"/><stop stop-opacity="1" stop-color="rgb(16.906738%, 18.135071%, 21.801758%)" offset="0.898438"/><stop stop-opacity="1" stop-color="rgb(16.78009%, 17.903137%, 21.437073%)" offset="0.902344"/><stop stop-opacity="1" stop-color="rgb(16.654968%, 17.669678%, 21.072388%)" offset="0.90625"/><stop stop-opacity="1" stop-color="rgb(16.52832%, 17.437744%, 20.707703%)" offset="0.910156"/><stop stop-opacity="1" stop-color="rgb(16.403198%, 17.204285%, 20.343018%)" offset="0.914062"/><stop stop-opacity="1" stop-color="rgb(16.278076%, 16.970825%, 19.978333%)" offset="0.917969"/><stop stop-opacity="1" stop-color="rgb(16.151428%, 16.738892%, 19.613647%)" offset="0.921875"/><stop stop-opacity="1" stop-color="rgb(16.026306%, 16.505432%, 19.247437%)" offset="0.925781"/><stop stop-opacity="1" stop-color="rgb(15.899658%, 16.273499%, 18.882751%)" offset="0.929688"/><stop stop-opacity="1" stop-color="rgb(15.774536%, 16.040039%, 18.518066%)" offset="0.933594"/><stop stop-opacity="1" stop-color="rgb(15.647888%, 15.808105%, 18.153381%)" offset="0.9375"/><stop stop-opacity="1" stop-color="rgb(15.522766%, 15.574646%, 17.788696%)" offset="0.941406"/><stop stop-opacity="1" stop-color="rgb(15.397644%, 15.341187%, 17.424011%)" offset="0.945312"/><stop stop-opacity="1" stop-color="rgb(15.270996%, 15.109253%, 17.059326%)" offset="0.949219"/><stop stop-opacity="1" stop-color="rgb(15.145874%, 14.875793%, 16.694641%)" offset="0.953125"/><stop stop-opacity="1" stop-color="rgb(15.019226%, 14.64386%, 16.329956%)" offset="0.957031"/><stop stop-opacity="1" stop-color="rgb(14.894104%, 14.4104%, 15.965271%)" offset="0.960938"/><stop stop-opacity="1" stop-color="rgb(14.767456%, 14.178467%, 15.59906%)" offset="0.964844"/><stop stop-opacity="1" stop-color="rgb(14.642334%, 13.945007%, 15.234375%)" offset="0.96875"/><stop stop-opacity="1" stop-color="rgb(14.517212%, 13.711548%, 14.86969%)" offset="0.972656"/><stop stop-opacity="1" stop-color="rgb(14.390564%, 13.479614%, 14.505005%)" offset="0.976562"/><stop stop-opacity="1" stop-color="rgb(14.265442%, 13.246155%, 14.14032%)" offset="0.980469"/><stop stop-opacity="1" stop-color="rgb(14.138794%, 13.014221%, 13.775635%)" offset="0.984375"/><stop stop-opacity="1" stop-color="rgb(14.013672%, 12.780762%, 13.41095%)" offset="0.988281"/><stop stop-opacity="1" stop-color="rgb(13.887024%, 12.547302%, 13.046265%)" offset="0.992188"/><stop stop-opacity="1" stop-color="rgb(13.761902%, 12.315369%, 12.68158%)" offset="0.996094"/><stop stop-opacity="1" stop-color="rgb(13.699341%, 12.199402%, 12.5%)" offset="1"/></radialGradient></defs><g clip-path="url(#412f827ef4)"><g clip-path="url(#6cb647172d)"><path fill="url(#c00a365e22)" d="M 159.902344 15.339844 L 159.902344 168.453125 L 450.507812 168.453125 L 450.507812 15.339844 Z M 159.902344 15.339844 " fill-rule="nonzero"/></g></g><path fill="#6181b6" d="M 444.828125 91.894531 C 444.828125 93.054688 444.773438 94.214844 444.660156 95.375 C 444.550781 96.53125 444.382812 97.6875 444.15625 98.84375 C 443.933594 99.996094 443.652344 101.148438 443.320312 102.296875 C 442.984375 103.441406 442.59375 104.585938 442.148438 105.722656 C 441.703125 106.859375 441.199219 107.992188 440.644531 109.117188 C 440.089844 110.242188 439.480469 111.359375 438.816406 112.46875 C 438.15625 113.578125 437.4375 114.679688 436.667969 115.773438 C 435.898438 116.863281 435.074219 117.945312 434.203125 119.015625 C 433.328125 120.089844 432.402344 121.148438 431.425781 122.199219 C 430.449219 123.246094 429.421875 124.28125 428.34375 125.304688 C 427.265625 126.328125 426.140625 127.335938 424.964844 128.332031 C 423.789062 129.324219 422.566406 130.304688 421.296875 131.269531 C 420.027344 132.234375 418.714844 133.183594 417.351562 134.113281 C 415.992188 135.046875 414.585938 135.960938 413.136719 136.855469 C 411.6875 137.753906 410.195312 138.628906 408.660156 139.488281 C 407.125 140.347656 405.550781 141.1875 403.933594 142.007812 C 402.320312 142.828125 400.664062 143.628906 398.972656 144.40625 C 397.277344 145.1875 395.546875 145.945312 393.78125 146.679688 C 392.015625 147.414062 390.214844 148.128906 388.378906 148.820312 C 386.542969 149.511719 384.675781 150.179688 382.777344 150.824219 C 380.875 151.46875 378.945312 152.085938 376.984375 152.683594 C 375.027344 153.28125 373.039062 153.851562 371.023438 154.398438 C 369.007812 154.945312 366.96875 155.464844 364.902344 155.960938 C 362.835938 156.457031 360.746094 156.929688 358.636719 157.371094 C 356.523438 157.816406 354.394531 158.234375 352.242188 158.625 C 350.089844 159.015625 347.921875 159.378906 345.734375 159.714844 C 343.546875 160.050781 341.347656 160.359375 339.128906 160.644531 C 336.914062 160.925781 334.683594 161.179688 332.445312 161.40625 C 330.203125 161.632812 327.953125 161.828125 325.691406 162 C 323.429688 162.171875 321.164062 162.3125 318.890625 162.425781 C 316.617188 162.539062 314.335938 162.625 312.054688 162.679688 C 309.773438 162.738281 307.488281 162.765625 305.203125 162.765625 C 302.917969 162.765625 300.636719 162.738281 298.351562 162.679688 C 296.070312 162.625 293.792969 162.539062 291.519531 162.425781 C 289.242188 162.3125 286.976562 162.171875 284.714844 162 C 282.457031 161.828125 280.203125 161.632812 277.964844 161.40625 C 275.722656 161.179688 273.492188 160.925781 271.277344 160.644531 C 269.0625 160.359375 266.859375 160.050781 264.671875 159.714844 C 262.484375 159.378906 260.316406 159.015625 258.164062 158.625 C 256.011719 158.234375 253.882812 157.816406 251.769531 157.371094 C 249.660156 156.929688 247.570312 156.457031 245.503906 155.960938 C 243.441406 155.464844 241.398438 154.945312 239.382812 154.398438 C 237.367188 153.851562 235.382812 153.28125 233.421875 152.683594 C 231.460938 152.085938 229.53125 151.46875 227.632812 150.824219 C 225.730469 150.179688 223.863281 149.511719 222.027344 148.820312 C 220.191406 148.128906 218.390625 147.414062 216.625 146.679688 C 214.859375 145.945312 213.128906 145.1875 211.4375 144.40625 C 209.742188 143.628906 208.089844 142.828125 206.472656 142.007812 C 204.855469 141.1875 203.28125 140.347656 201.746094 139.488281 C 200.210938 138.628906 198.71875 137.753906 197.269531 136.855469 C 195.820312 135.960938 194.414062 135.046875 193.054688 134.113281 C 191.695312 133.183594 190.378906 132.234375 189.109375 131.269531 C 187.839844 130.304688 186.617188 129.324219 185.441406 128.332031 C 184.265625 127.335938 183.140625 126.328125 182.0625 125.304688 C 180.988281 124.28125 179.960938 123.246094 178.984375 122.199219 C 178.003906 121.148438 177.082031 120.089844 176.207031 119.015625 C 175.332031 117.945312 174.507812 116.863281 173.738281 115.773438 C 172.96875 114.679688 172.253906 113.578125 171.589844 112.46875 C 170.925781 111.359375 170.316406 110.242188 169.761719 109.117188 C 169.207031 107.992188 168.707031 106.859375 168.261719 105.722656 C 167.8125 104.585938 167.421875 103.441406 167.089844 102.296875 C 166.753906 101.148438 166.472656 99.996094 166.25 98.84375 C 166.027344 97.6875 165.859375 96.53125 165.746094 95.375 C 165.632812 94.214844 165.578125 93.054688 165.578125 91.894531 C 165.578125 90.738281 165.632812 89.578125 165.746094 88.417969 C 165.859375 87.261719 166.027344 86.105469 166.25 84.949219 C 166.472656 83.796875 166.753906 82.644531 167.089844 81.496094 C 167.421875 80.351562 167.8125 79.207031 168.261719 78.070312 C 168.707031 76.933594 169.207031 75.800781 169.761719 74.675781 C 170.316406 73.550781 170.925781 72.433594 171.589844 71.324219 C 172.253906 70.214844 172.96875 69.113281 173.738281 68.019531 C 174.507812 66.929688 175.332031 65.847656 176.207031 64.777344 C 177.082031 63.703125 178.003906 62.644531 178.984375 61.59375 C 179.960938 60.546875 180.988281 59.511719 182.0625 58.488281 C 183.140625 57.464844 184.265625 56.457031 185.441406 55.460938 C 186.617188 54.46875 187.839844 53.488281 189.109375 52.523438 C 190.378906 51.558594 191.695312 50.609375 193.054688 49.679688 C 194.414062 48.746094 195.820312 47.832031 197.269531 46.9375 C 198.71875 46.039062 200.210938 45.164062 201.746094 44.304688 C 203.28125 43.445312 204.855469 42.605469 206.472656 41.785156 C 208.089844 40.964844 209.742188 40.164062 211.4375 39.386719 C 213.128906 38.605469 214.859375 37.847656 216.625 37.113281 C 218.390625 36.378906 220.191406 35.664062 222.027344 34.972656 C 223.863281 34.28125 225.730469 33.613281 227.632812 32.96875 C 229.53125 32.324219 231.460938 31.707031 233.421875 31.109375 C 235.382812 30.511719 237.367188 29.941406 239.382812 29.394531 C 241.398438 28.847656 243.441406 28.328125 245.503906 27.832031 C 247.570312 27.335938 249.660156 26.863281 251.769531 26.421875 C 253.882812 25.976562 256.011719 25.558594 258.164062 25.167969 C 260.316406 24.777344 262.484375 24.414062 264.671875 24.078125 C 266.859375 23.742188 269.0625 23.433594 271.277344 23.148438 C 273.492188 22.867188 275.722656 22.613281 277.964844 22.386719 C 280.203125 22.160156 282.457031 21.964844 284.714844 21.792969 C 286.976562 21.621094 289.242188 21.480469 291.519531 21.367188 C 293.792969 21.253906 296.070312 21.167969 298.351562 21.113281 C 300.636719 21.054688 302.917969 21.027344 305.203125 21.027344 C 307.488281 21.027344 309.773438 21.054688 312.054688 21.113281 C 314.335938 21.167969 316.617188 21.253906 318.890625 21.367188 C 321.164062 21.480469 323.429688 21.621094 325.691406 21.792969 C 327.953125 21.964844 330.203125 22.160156 332.445312 22.386719 C 334.683594 22.613281 336.914062 22.867188 339.128906 23.148438 C 341.347656 23.433594 343.546875 23.742188 345.734375 24.078125 C 347.921875 24.414062 350.089844 24.777344 352.242188 25.167969 C 354.394531 25.558594 356.523438 25.976562 358.636719 26.421875 C 360.746094 26.863281 362.835938 27.335938 364.902344 27.832031 C 366.96875 28.328125 369.007812 28.847656 371.023438 29.394531 C 373.039062 29.941406 375.027344 30.511719 376.984375 31.109375 C 378.945312 31.707031 380.875 32.324219 382.777344 32.96875 C 384.675781 33.613281 386.542969 34.28125 388.378906 34.972656 C 390.214844 35.664062 392.015625 36.378906 393.78125 37.113281 C 395.546875 37.847656 397.277344 38.605469 398.972656 39.386719 C 400.664062 40.164062 402.320312 40.964844 403.933594 41.785156 C 405.550781 42.605469 407.125 43.445312 408.660156 44.304688 C 410.195312 45.164062 411.6875 46.039062 413.136719 46.9375 C 414.585938 47.832031 415.992188 48.746094 417.351562 49.679688 C 418.714844 50.609375 420.027344 51.558594 421.296875 52.523438 C 422.566406 53.488281 423.789062 54.46875 424.964844 55.460938 C 426.140625 56.457031 427.265625 57.464844 428.34375 58.488281 C 429.421875 59.511719 430.449219 60.546875 431.425781 61.59375 C 432.402344 62.644531 433.328125 63.703125 434.203125 64.777344 C 435.074219 65.847656 435.898438 66.929688 436.667969 68.019531 C 437.4375 69.113281 438.15625 70.214844 438.816406 71.324219 C 439.480469 72.433594 440.089844 73.550781 440.644531 74.675781 C 441.199219 75.800781 441.703125 76.933594 442.148438 78.070312 C 442.59375 79.207031 442.984375 80.351562 443.320312 81.496094 C 443.652344 82.644531 443.933594 83.796875 444.15625 84.949219 C 444.382812 86.105469 444.550781 87.261719 444.660156 88.417969 C 444.773438 89.578125 444.828125 90.738281 444.828125 91.894531 Z M 444.828125 91.894531 " fill-opacity="1" fill-rule="nonzero"/><path fill="#ffffff" d="M 333.46875 114.875 L 340.394531 79.15625 C 341.984375 71.078125 340.621094 65.050781 336.535156 61.296875 C 332.5625 57.65625 325.75 55.835938 315.761719 55.835938 L 303.726562 55.835938 L 307.132812 38.089844 C 307.246094 37.40625 307.132812 36.722656 306.679688 36.15625 C 306.226562 35.585938 305.65625 35.359375 304.976562 35.359375 L 288.402344 35.359375 C 287.269531 35.359375 286.359375 36.15625 286.132812 37.179688 L 278.753906 75.058594 C 278.074219 70.738281 276.484375 67.097656 273.757812 64.140625 C 268.878906 58.566406 261.273438 55.722656 250.941406 55.722656 L 219.042969 55.722656 C 217.910156 55.722656 217 56.519531 216.773438 57.542969 L 201.902344 134.441406 C 201.789062 135.125 201.902344 135.804688 202.355469 136.375 C 202.8125 136.945312 203.378906 137.171875 204.058594 137.171875 L 220.746094 137.171875 C 221.882812 137.171875 222.789062 136.375 223.015625 135.351562 L 226.648438 116.808594 L 239.023438 116.808594 C 245.492188 116.808594 251.054688 116.125 255.257812 114.761719 C 259.683594 113.28125 263.65625 110.894531 267.175781 107.59375 C 270.011719 104.976562 272.398438 102.019531 274.214844 98.835938 L 271.261719 114.191406 C 271.148438 114.875 271.261719 115.558594 271.714844 116.125 C 272.171875 116.695312 272.738281 116.921875 273.417969 116.921875 L 289.992188 116.921875 C 291.128906 116.921875 292.035156 116.125 292.261719 115.101562 L 300.4375 73.011719 L 311.789062 73.011719 C 316.667969 73.011719 318.03125 73.921875 318.484375 74.378906 C 318.824219 74.71875 319.507812 76.085938 318.710938 80.292969 L 312.128906 114.304688 C 312.015625 114.988281 312.128906 115.671875 312.582031 116.242188 C 313.035156 116.808594 313.605469 117.035156 314.285156 117.035156 L 331.3125 117.035156 C 332.335938 116.695312 333.242188 115.898438 333.46875 114.875 Z M 256.730469 85.296875 C 255.710938 90.644531 253.78125 94.511719 250.941406 96.675781 C 248.105469 98.835938 243.449219 99.972656 237.320312 99.972656 L 229.941406 99.972656 L 235.277344 72.445312 L 244.8125 72.445312 C 251.851562 72.445312 254.6875 73.921875 255.824219 75.175781 C 257.300781 76.996094 257.640625 80.519531 256.730469 85.296875 Z M 256.730469 85.296875 " fill-opacity="1" fill-rule="nonzero"/><path fill="#ffffff" d="M 404.304688 64.140625 C 399.421875 58.566406 391.816406 55.722656 381.488281 55.722656 L 349.363281 55.722656 C 348.226562 55.722656 347.320312 56.519531 347.089844 57.542969 L 332.222656 134.328125 C 332.105469 135.011719 332.222656 135.691406 332.675781 136.261719 C 333.128906 136.832031 333.695312 137.058594 334.378906 137.058594 L 351.066406 137.058594 C 352.199219 137.058594 353.109375 136.261719 353.335938 135.238281 L 356.96875 116.695312 L 369.339844 116.695312 C 375.8125 116.695312 381.375 116.011719 385.574219 114.648438 C 390 113.167969 393.972656 110.78125 397.492188 107.480469 C 400.445312 104.75 402.941406 101.679688 404.757812 98.378906 C 406.574219 95.082031 407.9375 91.441406 408.730469 87.460938 C 410.660156 77.5625 409.183594 69.828125 404.304688 64.140625 Z M 386.9375 85.296875 C 385.914062 90.644531 383.984375 94.511719 381.148438 96.675781 C 378.308594 98.835938 373.65625 99.972656 367.523438 99.972656 L 360.144531 99.972656 L 365.480469 72.445312 L 375.015625 72.445312 C 382.054688 72.445312 384.894531 73.921875 386.027344 75.175781 C 387.617188 76.996094 387.957031 80.519531 386.9375 85.296875 Z M 386.9375 85.296875 " fill-opacity="1" fill-rule="nonzero"/><path fill="#000004" d="M 244.8125 70.167969 C 251.167969 70.167969 255.371094 71.304688 257.527344 73.695312 C 259.683594 76.085938 260.136719 80.066406 259.003906 85.753906 C 257.867188 91.667969 255.597656 95.992188 252.304688 98.496094 C 249.011719 100.996094 244.019531 102.25 237.320312 102.25 L 227.21875 102.25 L 233.460938 70.167969 Z M 204.171875 134.78125 L 220.859375 134.78125 L 224.832031 114.421875 L 239.136719 114.421875 C 245.492188 114.421875 250.601562 113.738281 254.6875 112.371094 C 258.773438 111.007812 262.40625 108.847656 265.8125 105.660156 C 268.652344 103.042969 270.921875 100.199219 272.625 97.128906 C 274.328125 94.058594 275.574219 90.644531 276.257812 86.890625 C 278.074219 77.789062 276.710938 70.738281 272.285156 65.617188 C 267.855469 60.5 260.816406 57.996094 251.167969 57.996094 L 219.042969 57.996094 Z M 204.171875 134.78125 " fill-opacity="1" fill-rule="nonzero"/><path fill="#000004" d="M 288.515625 37.632812 L 305.089844 37.632812 L 301.117188 57.996094 L 315.875 57.996094 C 325.183594 57.996094 331.539062 59.589844 335.058594 62.886719 C 338.578125 66.1875 339.597656 71.421875 338.238281 78.699219 L 331.3125 114.421875 L 314.511719 114.421875 L 321.097656 80.40625 C 321.890625 76.539062 321.550781 73.921875 320.300781 72.558594 C 319.054688 71.191406 316.214844 70.394531 312.015625 70.394531 L 298.734375 70.394531 L 290.21875 114.421875 L 273.644531 114.421875 Z M 288.515625 37.632812 " fill-opacity="1" fill-rule="nonzero"/><path fill="#000004" d="M 375.015625 70.167969 C 381.375 70.167969 385.574219 71.304688 387.730469 73.695312 C 389.886719 76.085938 390.339844 80.066406 389.207031 85.753906 C 388.070312 91.667969 385.800781 95.992188 382.507812 98.496094 C 379.21875 100.996094 374.222656 102.25 367.523438 102.25 L 357.421875 102.25 L 363.664062 70.167969 Z M 334.378906 134.78125 L 351.066406 134.78125 L 355.039062 114.421875 L 369.339844 114.421875 C 375.699219 114.421875 380.804688 113.738281 384.894531 112.371094 C 388.980469 111.007812 392.613281 108.847656 396.015625 105.660156 C 398.855469 103.042969 401.125 100.199219 402.828125 97.128906 C 404.53125 94.058594 405.78125 90.644531 406.460938 86.890625 C 408.277344 77.789062 406.914062 70.738281 402.488281 65.617188 C 398.0625 60.5 391.023438 57.996094 381.375 57.996094 L 349.25 57.996094 Z M 334.378906 134.78125 " fill-opacity="1" fill-rule="nonzero"/></svg>