<svg xmlns="http://www.w3.org/2000/svg" xmlns:xlink="http://www.w3.org/1999/xlink" width="860" zoomAndPan="magnify" viewBox="0 0 645 183.750001" height="245" preserveAspectRatio="xMidYMid meet" version="1.0"><path fill="#00618a" d="M 188.605469 133.945312 L 196.410156 133.945312 L 196.410156 103.128906 L 208.488281 129.992188 C 209.914062 133.246094 211.863281 134.394531 215.691406 134.394531 C 219.515625 134.394531 221.390625 133.246094 222.816406 129.992188 L 234.898438 103.128906 L 234.898438 133.945312 L 242.699219 133.945312 L 242.699219 103.179688 C 242.699219 100.175781 241.5 98.726562 239.023438 97.976562 C 233.097656 96.125 229.121094 97.726562 227.320312 101.726562 L 215.464844 128.242188 L 203.988281 101.726562 C 202.261719 97.726562 198.210938 96.125 192.28125 97.976562 C 189.804688 98.726562 188.605469 100.175781 188.605469 103.179688 Z M 249.1875 108.863281 L 256.988281 108.863281 L 256.988281 125.839844 C 256.914062 126.761719 257.285156 128.925781 261.558594 128.992188 C 263.738281 129.027344 278.386719 128.992188 278.523438 128.992188 L 278.523438 108.777344 L 286.34375 108.777344 C 286.378906 108.777344 286.335938 136.347656 286.335938 136.464844 C 286.378906 143.261719 277.902344 144.738281 273.992188 144.855469 L 249.355469 144.855469 L 249.355469 139.605469 C 249.398438 139.605469 273.976562 139.609375 274.039062 139.601562 C 279.058594 139.074219 278.464844 136.578125 278.464844 135.734375 L 278.464844 133.6875 L 261.882812 133.6875 C 254.164062 133.617188 249.25 130.25 249.191406 126.375 C 249.183594 126.015625 249.355469 109.03125 249.1875 108.859375 Z M 249.1875 108.863281 " fill-opacity="1" fill-rule="nonzero"/><path fill="#e48e00" d="M 292.355469 133.945312 L 314.789062 133.945312 C 317.414062 133.945312 319.964844 133.394531 321.992188 132.445312 C 325.367188 130.894531 327.019531 128.792969 327.019531 126.042969 L 327.019531 120.339844 C 327.019531 118.085938 325.140625 115.984375 321.464844 114.585938 C 319.515625 113.835938 317.113281 113.433594 314.789062 113.433594 L 305.335938 113.433594 C 302.183594 113.433594 300.683594 112.484375 300.308594 110.382812 C 300.234375 110.132812 300.234375 109.933594 300.234375 109.683594 L 300.234375 106.128906 C 300.234375 105.929688 300.234375 105.730469 300.308594 105.480469 C 300.683594 103.878906 301.507812 103.429688 304.285156 103.179688 C 304.511719 103.179688 304.808594 103.128906 305.035156 103.128906 L 327.316406 103.128906 L 327.316406 97.925781 L 305.410156 97.925781 C 302.257812 97.925781 300.609375 98.125 299.109375 98.574219 C 294.457031 100.027344 292.429688 102.328125 292.429688 106.332031 L 292.429688 110.882812 C 292.429688 114.386719 296.40625 117.386719 303.085938 118.085938 C 303.835938 118.136719 304.585938 118.1875 305.335938 118.1875 L 313.4375 118.1875 C 313.738281 118.1875 314.039062 118.1875 314.261719 118.238281 C 316.738281 118.4375 317.789062 118.886719 318.539062 119.789062 C 318.988281 120.238281 319.140625 120.6875 319.140625 121.1875 L 319.140625 125.738281 C 319.140625 126.292969 318.765625 126.992188 318.015625 127.59375 C 317.339844 128.191406 316.214844 128.59375 314.714844 128.691406 C 314.414062 128.691406 314.1875 128.742188 313.890625 128.742188 L 292.355469 128.742188 Z M 375.691406 124.890625 C 375.691406 130.242188 379.667969 133.246094 387.699219 133.847656 C 388.445312 133.894531 389.199219 133.945312 389.949219 133.945312 L 410.28125 133.945312 L 410.28125 128.742188 L 389.796875 128.742188 C 385.222656 128.742188 383.496094 127.59375 383.496094 124.839844 L 383.496094 97.925781 L 375.691406 97.925781 Z M 331.996094 125.164062 L 331.996094 106.613281 C 331.996094 101.902344 335.304688 99.042969 341.847656 98.140625 C 342.542969 98.042969 343.246094 97.992188 343.953125 97.992188 L 358.761719 97.992188 C 359.515625 97.992188 360.191406 98.042969 360.941406 98.140625 C 367.484375 99.042969 370.792969 101.902344 370.792969 106.613281 L 370.792969 125.164062 C 370.792969 128.984375 369.386719 131.03125 366.148438 132.367188 L 373.835938 139.304688 L 364.773438 139.304688 L 358.558594 133.691406 L 352.296875 134.085938 L 343.953125 134.085938 C 342.523438 134.085938 341.019531 133.886719 339.367188 133.433594 C 334.402344 132.082031 331.996094 129.472656 331.996094 125.164062 Z M 340.417969 124.710938 C 340.417969 124.964844 340.496094 125.214844 340.570312 125.515625 C 341.019531 127.671875 343.050781 128.875 346.132812 128.875 L 353.222656 128.875 L 346.710938 122.992188 L 355.769531 122.992188 L 361.449219 128.121094 C 362.496094 127.5625 363.183594 126.710938 363.425781 125.613281 C 363.5 125.363281 363.5 125.113281 363.5 124.863281 L 363.5 107.066406 C 363.5 106.867188 363.5 106.613281 363.425781 106.363281 C 362.972656 104.359375 360.945312 103.207031 357.9375 103.207031 L 346.132812 103.207031 C 342.675781 103.207031 340.417969 104.710938 340.417969 107.066406 Z M 340.417969 124.710938 " fill-opacity="1" fill-rule="nonzero"/><path fill="#00618a" d="M 417.144531 89.296875 C 412.347656 89.164062 408.683594 89.609375 405.550781 90.933594 C 404.664062 91.308594 403.242188 91.316406 403.097656 92.433594 C 403.585938 92.945312 403.664062 93.710938 404.050781 94.34375 C 404.800781 95.554688 406.0625 97.175781 407.1875 98.027344 C 408.417969 98.957031 409.6875 99.949219 411.007812 100.753906 C 413.355469 102.1875 415.976562 103.003906 418.234375 104.4375 C 419.566406 105.28125 420.890625 106.347656 422.191406 107.300781 C 422.832031 107.773438 423.265625 108.507812 424.101562 108.800781 L 424.101562 108.664062 C 423.660156 108.105469 423.546875 107.339844 423.144531 106.753906 L 421.371094 104.980469 C 419.640625 102.679688 417.4375 100.660156 415.097656 98.980469 C 413.234375 97.640625 409.058594 95.832031 408.28125 93.660156 L 408.144531 93.523438 C 409.464844 93.375 411.015625 92.894531 412.234375 92.570312 C 414.285156 92.019531 416.117188 92.160156 418.234375 91.613281 C 419.191406 91.339844 420.144531 91.066406 421.101562 90.796875 L 421.101562 90.25 C 420.03125 89.152344 419.265625 87.699219 418.097656 86.703125 C 415.046875 84.101562 411.710938 81.503906 408.28125 79.335938 C 406.375 78.136719 404.023438 77.355469 402.007812 76.335938 C 401.328125 75.996094 400.136719 75.816406 399.6875 75.246094 C 398.628906 73.894531 398.050781 72.179688 397.234375 70.605469 C 395.519531 67.308594 393.839844 63.707031 392.324219 60.238281 C 391.289062 57.875 390.613281 55.542969 389.324219 53.417969 C 383.128906 43.234375 376.464844 37.089844 366.140625 31.046875 C 363.941406 29.765625 361.296875 29.253906 358.5 28.59375 L 354 28.320312 C 353.085938 27.9375 352.132812 26.816406 351.273438 26.273438 C 347.851562 24.113281 339.078125 19.410156 336.542969 25.59375 C 334.945312 29.492188 338.933594 33.300781 340.363281 35.277344 C 341.363281 36.664062 342.648438 38.21875 343.363281 39.777344 C 343.832031 40.804688 343.914062 41.832031 344.316406 42.917969 C 345.308594 45.589844 346.171875 48.496094 347.453125 50.964844 C 348.101562 52.214844 348.816406 53.53125 349.636719 54.648438 C 350.140625 55.332031 351 55.636719 351.136719 56.695312 C 350.292969 57.871094 350.246094 59.703125 349.773438 61.195312 C 347.640625 67.917969 348.445312 76.273438 351.546875 81.246094 C 352.496094 82.773438 354.738281 86.050781 357.820312 84.792969 C 360.515625 83.695312 359.914062 80.292969 360.683594 77.292969 C 360.859375 76.609375 360.75 76.109375 361.09375 75.65625 L 361.09375 75.792969 L 363.546875 80.703125 C 365.363281 83.628906 368.589844 86.6875 371.320312 88.75 C 372.738281 89.820312 373.851562 91.671875 375.683594 92.296875 L 375.683594 92.160156 L 375.546875 92.160156 C 375.195312 91.605469 374.636719 91.378906 374.183594 90.933594 C 373.117188 89.886719 371.929688 88.585938 371.046875 87.386719 C 368.5625 84.011719 366.367188 80.316406 364.367188 76.472656 C 363.410156 74.636719 362.578125 72.613281 361.773438 70.742188 C 361.464844 70.023438 361.46875 68.933594 360.820312 68.5625 C 359.9375 69.929688 358.636719 71.039062 357.957031 72.652344 C 356.863281 75.238281 356.722656 78.386719 356.320312 81.65625 C 356.082031 81.742188 356.1875 81.683594 356.046875 81.792969 C 354.148438 81.335938 353.480469 79.378906 352.773438 77.699219 C 350.988281 73.457031 350.65625 66.625 352.226562 61.742188 C 352.632812 60.476562 354.472656 56.496094 353.726562 55.328125 C 353.371094 54.164062 352.203125 53.492188 351.546875 52.601562 C 350.734375 51.5 349.925781 50.050781 349.363281 48.78125 C 347.902344 45.472656 347.21875 41.757812 345.679688 38.414062 C 344.945312 36.816406 343.703125 35.199219 342.679688 33.777344 C 341.550781 32.203125 340.285156 31.042969 339.40625 29.136719 C 339.097656 28.460938 338.671875 27.378906 339.132812 26.683594 C 339.28125 26.214844 339.488281 26.019531 339.953125 25.863281 C 340.746094 25.253906 342.949219 26.066406 343.773438 26.410156 C 345.960938 27.320312 347.785156 28.183594 349.636719 29.410156 C 350.527344 30 351.425781 31.140625 352.5 31.457031 L 353.726562 31.457031 C 355.648438 31.898438 357.796875 31.59375 359.59375 32.140625 C 362.761719 33.105469 365.605469 34.601562 368.183594 36.230469 C 376.046875 41.195312 382.472656 48.261719 386.867188 56.695312 C 387.574219 58.050781 387.882812 59.347656 388.503906 60.785156 C 389.761719 63.6875 391.34375 66.675781 392.597656 69.515625 C 393.84375 72.347656 395.058594 75.207031 396.824219 77.566406 C 397.75 78.804688 401.332031 79.46875 402.960938 80.15625 C 404.101562 80.636719 405.972656 81.140625 407.050781 81.792969 C 409.117188 83.039062 411.117188 84.519531 413.054688 85.886719 C 414.023438 86.566406 416.996094 88.0625 417.144531 89.296875 Z M 417.144531 89.296875 " fill-opacity="1" fill-rule="nonzero"/><path fill="#00618a" d="M 356.183594 37.324219 C 355.183594 37.304688 354.476562 37.433594 353.726562 37.597656 L 353.726562 37.734375 L 353.863281 37.734375 C 354.339844 38.710938 355.183594 39.34375 355.773438 40.1875 C 356.226562 41.144531 356.683594 42.097656 357.136719 43.050781 L 357.273438 42.917969 C 358.117188 42.320312 358.503906 41.367188 358.5 39.914062 C 358.164062 39.558594 358.113281 39.113281 357.820312 38.6875 C 357.429688 38.121094 356.675781 37.800781 356.183594 37.324219 Z M 356.183594 37.324219 " fill-opacity="1" fill-rule="evenodd"/><path fill="#e48e00" d="M 413.941406 128.59375 C 413.941406 132.03125 416.65625 134.347656 419.691406 134.347656 C 422.730469 134.347656 425.441406 132.03125 425.441406 128.59375 C 425.441406 125.160156 422.730469 122.84375 419.691406 122.84375 C 416.65625 122.84375 413.941406 125.160156 413.941406 128.59375 Z M 424.15625 128.59375 C 424.15625 131.203125 422.164062 133.148438 419.691406 133.148438 C 417.195312 133.148438 415.230469 131.203125 415.230469 128.59375 C 415.230469 125.988281 417.191406 124.039062 419.691406 124.039062 C 422.164062 124.039062 424.15625 125.988281 424.15625 128.59375 Z M 421.242188 131.875 L 422.53125 131.875 L 420.644531 128.992188 C 421.65625 128.886719 422.421875 128.394531 422.421875 127.199219 C 422.421875 125.863281 421.578125 125.3125 419.953125 125.3125 L 417.394531 125.3125 L 417.394531 131.875 L 418.496094 131.875 L 418.496094 129.039062 L 419.523438 129.039062 Z M 418.496094 128.121094 L 418.496094 126.234375 L 419.769531 126.234375 C 420.429688 126.234375 421.226562 126.355469 421.226562 127.121094 C 421.226562 128.042969 420.507812 128.121094 419.675781 128.121094 Z M 418.496094 128.121094 " fill-opacity="1" fill-rule="evenodd"/></svg>