<svg xmlns="http://www.w3.org/2000/svg" xmlns:xlink="http://www.w3.org/1999/xlink" width="860" zoomAndPan="magnify" viewBox="0 0 645 183.750001" height="245" preserveAspectRatio="xMidYMid meet" version="1.0"><defs><clipPath id="5921792573"><path d="M 197 65 L 619.292969 65 L 619.292969 127 L 197 127 Z M 197 65 " clip-rule="nonzero"/></clipPath><clipPath id="8f434e37ef"><path d="M 47.070312 63.242188 L 166 63.242188 L 166 134 L 47.070312 134 Z M 47.070312 63.242188 " clip-rule="nonzero"/></clipPath></defs><g clip-path="url(#5921792573)"><path fill="#5ce1e6" d="M 224.339844 93.082031 L 214.027344 93.082031 L 214.027344 112.953125 C 214.027344 118.253906 217.523438 118.167969 224.339844 117.839844 L 224.339844 125.871094 C 210.539062 127.53125 205.042969 123.71875 205.042969 112.953125 L 205.042969 93.082031 L 197.394531 93.082031 L 197.394531 84.464844 L 205.042969 84.464844 L 205.042969 73.34375 L 214.027344 70.699219 L 214.027344 84.464844 L 224.339844 84.464844 Z M 263.65625 84.464844 L 272.640625 84.464844 L 272.640625 125.871094 L 263.65625 125.871094 L 263.65625 119.90625 C 260.496094 124.296875 255.582031 126.949219 249.097656 126.949219 C 237.789062 126.949219 228.394531 117.425781 228.394531 105.167969 C 228.394531 92.832031 237.789062 83.390625 249.097656 83.390625 C 255.582031 83.390625 260.496094 86.039062 263.65625 90.34375 Z M 250.511719 118.417969 C 258 118.417969 263.65625 112.871094 263.65625 105.167969 C 263.65625 97.464844 258 91.914062 250.511719 91.914062 C 243.027344 91.914062 237.375 97.464844 237.375 105.167969 C 237.375 112.871094 243.027344 118.417969 250.511719 118.417969 Z M 287.605469 78.257812 C 284.445312 78.257812 281.863281 75.605469 281.863281 72.542969 C 281.871094 71.792969 282.023438 71.046875 282.308594 70.355469 C 282.601562 69.652344 283.015625 69.035156 283.550781 68.5 C 284.089844 67.964844 284.710938 67.554688 285.410156 67.265625 C 286.105469 66.980469 286.855469 66.828125 287.605469 66.828125 C 288.359375 66.828125 289.101562 66.980469 289.800781 67.265625 C 290.496094 67.550781 291.125 67.972656 291.660156 68.503906 C 292.191406 69.039062 292.613281 69.667969 292.90625 70.355469 C 293.191406 71.046875 293.34375 71.792969 293.34375 72.542969 C 293.34375 75.605469 290.769531 78.257812 287.605469 78.257812 Z M 283.117188 125.871094 L 283.117188 84.464844 L 292.097656 84.464844 L 292.097656 125.871094 Z M 302.496094 125.871094 L 302.496094 65.421875 L 311.476562 65.421875 L 311.476562 125.871094 Z M 369.777344 84.464844 L 379.257812 84.464844 L 366.199219 125.871094 L 357.382812 125.871094 L 348.738281 97.964844 L 340.003906 125.871094 L 331.1875 125.871094 L 318.128906 84.464844 L 327.613281 84.464844 L 335.679688 113.035156 L 344.410156 84.464844 L 352.976562 84.464844 L 361.625 113.035156 Z M 390.402344 78.257812 C 387.238281 78.257812 384.664062 75.605469 384.664062 72.542969 C 384.664062 71.792969 384.816406 71.046875 385.101562 70.355469 C 385.394531 69.667969 385.816406 69.039062 386.34375 68.503906 C 386.882812 67.972656 387.511719 67.550781 388.203125 67.265625 C 388.90625 66.980469 389.648438 66.828125 390.402344 66.828125 C 391.160156 66.828125 391.890625 66.972656 392.59375 67.265625 C 393.296875 67.554688 393.917969 67.964844 394.457031 68.503906 C 394.992188 69.039062 395.414062 69.667969 395.699219 70.355469 C 395.992188 71.046875 396.144531 71.792969 396.144531 72.542969 C 396.144531 75.605469 393.5625 78.257812 390.402344 78.257812 Z M 385.910156 125.871094 L 385.910156 84.464844 L 394.890625 84.464844 L 394.890625 125.871094 Z M 443.132812 100.449219 L 443.132812 125.871094 L 434.152344 125.871094 L 434.152344 101.363281 C 434.152344 95.0625 430.492188 91.75 424.835938 91.75 C 418.925781 91.75 414.273438 95.234375 414.273438 103.679688 L 414.273438 125.871094 L 405.289062 125.871094 L 405.289062 84.464844 L 414.273438 84.464844 L 414.273438 89.761719 C 417.019531 85.457031 421.507812 83.390625 427.164062 83.390625 C 436.476562 83.390625 443.132812 89.683594 443.132812 100.449219 Z M 485.714844 67.902344 L 494.695312 67.902344 L 494.695312 125.871094 L 485.714844 125.871094 L 485.714844 119.90625 C 482.550781 124.296875 477.648438 126.949219 471.160156 126.949219 C 459.847656 126.949219 450.449219 117.425781 450.449219 105.167969 C 450.449219 92.832031 459.847656 83.390625 471.160156 83.390625 C 477.648438 83.390625 482.550781 86.039062 485.714844 90.34375 Z M 472.578125 118.417969 C 480.058594 118.417969 485.714844 112.871094 485.714844 105.167969 C 485.714844 97.464844 480.058594 91.914062 472.578125 91.914062 C 465.089844 91.914062 459.433594 97.464844 459.433594 105.167969 C 459.433594 112.871094 465.089844 118.417969 472.578125 118.417969 Z M 502.847656 105.167969 C 502.847656 92.832031 512.246094 83.390625 524.800781 83.390625 C 532.957031 83.390625 540.019531 87.609375 543.347656 94.074219 L 535.617188 98.546875 C 533.785156 94.65625 529.707031 92.167969 524.71875 92.167969 C 517.402344 92.167969 511.832031 97.714844 511.832031 105.167969 C 511.832031 112.617188 517.402344 118.167969 524.71875 118.167969 C 529.707031 118.167969 533.785156 115.601562 535.78125 111.796875 L 543.519531 116.179688 C 540.019531 122.722656 532.957031 126.949219 524.800781 126.949219 C 512.246094 126.949219 502.847656 117.425781 502.847656 105.167969 Z M 580.691406 114.191406 C 580.691406 122.472656 573.453125 126.949219 564.472656 126.949219 C 556.152344 126.949219 550.167969 123.21875 547.507812 117.261719 L 555.238281 112.785156 C 556.574219 116.515625 559.902344 118.746094 564.472656 118.746094 C 568.46875 118.746094 571.542969 117.425781 571.542969 114.113281 C 571.542969 106.742188 549.175781 110.882812 549.175781 96.054688 C 549.175781 88.277344 555.910156 83.390625 564.390625 83.390625 C 571.207031 83.390625 576.863281 86.539062 579.773438 92 L 572.207031 96.226562 C 570.714844 92.996094 567.804688 91.507812 564.390625 91.507812 C 561.144531 91.507812 558.320312 92.910156 558.320312 95.890625 C 558.320312 103.429688 580.691406 98.875 580.691406 114.191406 Z M 619.035156 114.191406 C 619.035156 122.472656 611.796875 126.949219 602.816406 126.949219 C 594.5 126.949219 588.507812 123.21875 585.847656 117.261719 L 593.585938 112.785156 C 594.914062 116.515625 598.238281 118.746094 602.816406 118.746094 C 606.808594 118.746094 609.882812 117.425781 609.882812 114.113281 C 609.882812 106.742188 587.511719 110.882812 587.511719 96.054688 C 587.511719 88.277344 594.25 83.390625 602.730469 83.390625 C 609.554688 83.390625 615.210938 86.539062 618.121094 92 L 610.546875 96.226562 C 609.050781 92.996094 606.140625 91.507812 602.730469 91.507812 C 599.492188 91.507812 596.660156 92.910156 596.660156 95.890625 C 596.660156 103.429688 619.035156 98.875 619.035156 114.191406 Z M 619.035156 114.191406 " fill-opacity="1" fill-rule="nonzero"/></g><g clip-path="url(#8f434e37ef)"><path fill="#06b6d4" d="M 106.164062 63.332031 C 90.410156 63.332031 80.554688 71.175781 76.613281 86.867188 C 82.527344 79.023438 89.421875 76.074219 97.304688 78.035156 C 101.792969 79.15625 105.003906 82.40625 108.566406 86 C 114.359375 91.851562 121.066406 98.632812 135.710938 98.632812 C 151.46875 98.632812 161.316406 90.785156 165.253906 75.097656 C 159.347656 82.941406 152.453125 85.878906 144.574219 83.921875 C 140.082031 82.804688 136.863281 79.550781 133.308594 75.960938 C 127.515625 70.105469 120.808594 63.332031 106.164062 63.332031 Z M 76.613281 98.632812 C 60.859375 98.632812 51.011719 106.476562 47.070312 122.164062 C 52.980469 114.320312 59.871094 111.382812 67.753906 113.339844 C 72.25 114.457031 75.460938 117.710938 79.015625 121.300781 C 84.808594 127.15625 91.515625 133.929688 106.164062 133.929688 C 121.925781 133.929688 131.773438 126.085938 135.710938 110.394531 C 129.796875 118.238281 122.90625 121.1875 115.03125 119.226562 C 110.53125 118.105469 107.320312 114.855469 103.761719 111.261719 C 97.96875 105.410156 91.261719 98.632812 76.613281 98.632812 Z M 76.613281 98.632812 " fill-opacity="1" fill-rule="nonzero"/></g></svg>