<svg xmlns="http://www.w3.org/2000/svg" xmlns:xlink="http://www.w3.org/1999/xlink" width="860" zoomAndPan="magnify" viewBox="0 0 645 183.750001" height="245" preserveAspectRatio="xMidYMid meet" version="1.0"><defs><g/><clipPath id="6a21ee9973"><path d="M 221 18.351562 L 231 18.351562 L 231 28 L 221 28 Z M 221 18.351562 " clip-rule="nonzero"/></clipPath><clipPath id="dbe3925b92"><path d="M 221 167 L 231 167 L 231 176.085938 L 221 176.085938 Z M 221 167 " clip-rule="nonzero"/></clipPath><clipPath id="7c7f2f4889"><path d="M 113.097656 138 L 123 138 L 123 148 L 113.097656 148 Z M 113.097656 138 " clip-rule="nonzero"/></clipPath><clipPath id="3b0392bd59"><path d="M 113.097656 47 L 123 47 L 123 57 L 113.097656 57 Z M 113.097656 47 " clip-rule="nonzero"/></clipPath><clipPath id="84797d13b6"><path d="M 113.097656 92 L 123 92 L 123 102 L 113.097656 102 Z M 113.097656 92 " clip-rule="nonzero"/></clipPath><clipPath id="acabad6983"><path d="M 131 18.351562 L 141 18.351562 L 141 28 L 131 28 Z M 131 18.351562 " clip-rule="nonzero"/></clipPath><clipPath id="4206c7c499"><path d="M 131 167 L 141 167 L 141 176.085938 L 131 176.085938 Z M 131 167 " clip-rule="nonzero"/></clipPath><clipPath id="da3ba0e7eb"><path d="M 176 18.351562 L 186 18.351562 L 186 28 L 176 28 Z M 176 18.351562 " clip-rule="nonzero"/></clipPath><clipPath id="98fe7a0fc7"><path d="M 176 167 L 186 167 L 186 176.085938 L 176 176.085938 Z M 176 167 " clip-rule="nonzero"/></clipPath><clipPath id="b284729de0"><path d="M 221 18.351562 L 230 18.351562 L 230 26 L 221 26 Z M 221 18.351562 " clip-rule="nonzero"/></clipPath><clipPath id="e43d949b34"><path d="M 113.097656 138 L 123 138 L 123 146 L 113.097656 146 Z M 113.097656 138 " clip-rule="nonzero"/></clipPath><clipPath id="15f7928089"><path d="M 113.097656 47 L 123 47 L 123 55 L 113.097656 55 Z M 113.097656 47 " clip-rule="nonzero"/></clipPath><clipPath id="2f4bb6545a"><path d="M 113.097656 92 L 123 92 L 123 100 L 113.097656 100 Z M 113.097656 92 " clip-rule="nonzero"/></clipPath><clipPath id="86a69b644a"><path d="M 131 18.351562 L 140 18.351562 L 140 26 L 131 26 Z M 131 18.351562 " clip-rule="nonzero"/></clipPath><clipPath id="6cab648517"><path d="M 176 18.351562 L 185 18.351562 L 185 26 L 176 26 Z M 176 18.351562 " clip-rule="nonzero"/></clipPath></defs><path fill="#5e56a9" d="M 216.042969 86.53125 C 216.042969 77.015625 200.34375 69.300781 180.984375 69.300781 C 161.617188 69.300781 145.921875 77.015625 145.921875 86.53125 C 145.921875 96.050781 161.621094 103.765625 180.984375 103.765625 C 200.347656 103.765625 216.042969 96.050781 216.042969 86.53125 Z M 216.042969 86.53125 " fill-opacity="1" fill-rule="evenodd"/><path fill="#5e56a9" d="M 216.042969 86.53125 C 216.042969 77.015625 200.34375 69.300781 180.984375 69.300781 C 161.617188 69.300781 145.921875 77.015625 145.921875 86.53125 L 145.921875 128.699219 C 145.921875 138.214844 161.621094 145.929688 180.984375 145.929688 C 200.347656 145.929688 216.042969 138.214844 216.042969 128.699219 Z M 216.042969 86.53125 " fill-opacity="1" fill-rule="evenodd"/><path fill="#453f7f" d="M 216.042969 86.53125 C 216.042969 96.050781 200.34375 103.765625 180.984375 103.765625 C 161.617188 103.765625 145.921875 96.050781 145.921875 86.53125 L 145.921875 107.617188 C 145.921875 117.132812 161.621094 124.847656 180.984375 124.847656 C 200.347656 124.847656 216.042969 117.132812 216.042969 107.617188 Z M 216.042969 86.53125 " fill-opacity="1" fill-rule="evenodd"/><path fill="#453f7f" d="M 216.042969 107.617188 C 216.042969 117.132812 200.34375 124.847656 180.984375 124.847656 C 161.617188 124.847656 145.921875 117.132812 145.921875 107.617188 L 145.921875 128.699219 C 145.921875 138.214844 161.621094 145.929688 180.984375 145.929688 C 200.347656 145.929688 216.042969 138.214844 216.042969 128.699219 Z M 216.042969 107.617188 " fill-opacity="1" fill-rule="evenodd"/><path fill="#554d98" d="M 180.984375 69.300781 L 180.984375 103.765625 C 200.347656 103.765625 216.042969 96.050781 216.042969 86.53125 C 216.042969 77.015625 200.347656 69.300781 180.984375 69.300781 Z M 180.984375 69.300781 " fill-opacity="1" fill-rule="evenodd"/><path fill="#3e3972" d="M 216.042969 86.53125 C 216.042969 96.050781 200.34375 103.765625 180.984375 103.765625 L 180.984375 124.847656 C 200.347656 124.847656 216.042969 117.132812 216.042969 107.617188 Z M 216.042969 86.53125 " fill-opacity="1" fill-rule="evenodd"/><path fill="#3e3972" d="M 216.042969 107.617188 C 216.042969 117.132812 200.34375 124.847656 180.984375 124.847656 L 180.984375 145.929688 C 200.347656 145.929688 216.042969 138.214844 216.042969 128.699219 Z M 216.042969 107.617188 " fill-opacity="1" fill-rule="evenodd"/><path fill="#5e56a9" d="M 216.042969 65.429688 C 216.042969 55.914062 200.34375 48.199219 180.984375 48.199219 C 161.617188 48.199219 145.921875 55.914062 145.921875 65.429688 C 145.921875 74.949219 161.621094 82.664062 180.984375 82.664062 C 200.347656 82.664062 216.042969 74.949219 216.042969 65.429688 Z M 216.042969 65.429688 " fill-opacity="1" fill-rule="evenodd"/><path fill="#5e56a9" d="M 216.042969 65.429688 C 216.042969 55.914062 200.34375 48.199219 180.984375 48.199219 C 161.617188 48.199219 145.921875 55.914062 145.921875 65.429688 L 145.921875 107.597656 C 145.921875 117.113281 161.621094 124.828125 180.984375 124.828125 C 200.347656 124.828125 216.042969 117.113281 216.042969 107.597656 Z M 216.042969 65.429688 " fill-opacity="1" fill-rule="evenodd"/><path fill="#453f7f" d="M 216.042969 65.429688 C 216.042969 74.949219 200.34375 82.664062 180.984375 82.664062 C 161.617188 82.664062 145.921875 74.949219 145.921875 65.429688 L 145.921875 86.515625 C 145.921875 96.03125 161.621094 103.746094 180.984375 103.746094 C 200.347656 103.746094 216.042969 96.03125 216.042969 86.515625 Z M 216.042969 65.429688 " fill-opacity="1" fill-rule="evenodd"/><path fill="#5e56a9" d="M 216.042969 86.511719 C 216.042969 96.027344 200.34375 103.742188 180.984375 103.742188 C 161.617188 103.742188 145.921875 96.027344 145.921875 86.511719 L 145.921875 107.59375 C 145.921875 117.109375 161.621094 124.828125 180.984375 124.828125 C 200.347656 124.828125 216.042969 117.109375 216.042969 107.59375 Z M 216.042969 86.511719 " fill-opacity="1" fill-rule="evenodd"/><path fill="#554d98" d="M 180.984375 48.199219 L 180.984375 82.664062 C 200.347656 82.664062 216.042969 74.949219 216.042969 65.429688 C 216.042969 55.914062 200.347656 48.199219 180.984375 48.199219 Z M 180.984375 48.199219 " fill-opacity="1" fill-rule="evenodd"/><path fill="#3e3972" d="M 216.042969 65.429688 C 216.042969 74.949219 200.34375 82.664062 180.984375 82.664062 L 180.984375 103.746094 C 200.347656 103.746094 216.042969 96.03125 216.042969 86.515625 Z M 216.042969 65.429688 " fill-opacity="1" fill-rule="evenodd"/><path fill="#554d98" d="M 216.042969 86.511719 C 216.042969 96.027344 200.34375 103.742188 180.984375 103.742188 L 180.984375 124.828125 C 200.347656 124.828125 216.042969 117.109375 216.042969 107.59375 Z M 216.042969 86.511719 " fill-opacity="1" fill-rule="evenodd"/><path fill="#f8bd40" d="M 160.847656 86.039062 C 162.515625 86.039062 163.871094 87.402344 163.871094 89.082031 C 163.871094 90.761719 162.519531 92.125 160.847656 92.125 C 159.179688 92.125 157.828125 90.765625 157.828125 89.082031 C 157.828125 87.402344 159.179688 86.039062 160.847656 86.039062 Z M 160.847656 86.039062 " fill-opacity="1" fill-rule="evenodd"/><path fill="#f8bd40" d="M 174.273438 88.957031 C 175.9375 88.957031 177.292969 90.316406 177.292969 92 C 177.292969 93.679688 175.941406 95.042969 174.273438 95.042969 C 172.601562 95.042969 171.25 93.679688 171.25 92 C 171.25 90.316406 172.601562 88.957031 174.273438 88.957031 Z M 174.273438 88.957031 " fill-opacity="1" fill-rule="evenodd"/><path fill="#f9aa3a" d="M 201.117188 86.039062 C 199.449219 86.039062 198.09375 87.402344 198.09375 89.082031 C 198.09375 90.761719 199.445312 92.125 201.117188 92.125 C 202.785156 92.125 204.136719 90.765625 204.136719 89.082031 C 204.136719 87.402344 202.785156 86.039062 201.117188 86.039062 Z M 201.117188 86.039062 " fill-opacity="1" fill-rule="evenodd"/><path fill="#f9aa3a" d="M 187.691406 88.957031 C 186.023438 88.957031 184.671875 90.316406 184.671875 92 C 184.671875 93.679688 186.023438 95.042969 187.691406 95.042969 C 189.363281 95.042969 190.714844 93.679688 190.714844 92 C 190.714844 90.316406 189.363281 88.957031 187.691406 88.957031 Z M 187.691406 88.957031 " fill-opacity="1" fill-rule="evenodd"/><path fill="#f8bd40" d="M 160.847656 107.464844 C 162.515625 107.464844 163.871094 108.828125 163.871094 110.507812 C 163.871094 112.191406 162.519531 113.554688 160.847656 113.554688 C 159.179688 113.554688 157.828125 112.191406 157.828125 110.507812 C 157.828125 108.828125 159.179688 107.464844 160.847656 107.464844 Z M 160.847656 107.464844 " fill-opacity="1" fill-rule="evenodd"/><path fill="#f8bd40" d="M 174.273438 110.386719 C 175.9375 110.386719 177.292969 111.746094 177.292969 113.429688 C 177.292969 115.113281 175.941406 116.472656 174.273438 116.472656 C 172.601562 116.472656 171.25 115.113281 171.25 113.429688 C 171.25 111.746094 172.601562 110.386719 174.273438 110.386719 Z M 174.273438 110.386719 " fill-opacity="1" fill-rule="evenodd"/><path fill="#f9aa3a" d="M 201.117188 107.464844 C 199.449219 107.464844 198.09375 108.828125 198.09375 110.507812 C 198.09375 112.191406 199.445312 113.554688 201.117188 113.554688 C 202.785156 113.554688 204.136719 112.191406 204.136719 110.507812 C 204.136719 108.828125 202.785156 107.464844 201.117188 107.464844 Z M 201.117188 107.464844 " fill-opacity="1" fill-rule="evenodd"/><path fill="#f9aa3a" d="M 187.691406 110.386719 C 186.023438 110.386719 184.671875 111.746094 184.671875 113.429688 C 184.671875 115.113281 186.023438 116.472656 187.691406 116.472656 C 189.363281 116.472656 190.714844 115.113281 190.714844 113.429688 C 190.714844 111.746094 189.363281 110.386719 187.691406 110.386719 Z M 187.691406 110.386719 " fill-opacity="1" fill-rule="evenodd"/><path fill="#f8bd40" d="M 160.847656 128.890625 C 162.515625 128.890625 163.871094 130.253906 163.871094 131.933594 C 163.871094 133.617188 162.519531 134.980469 160.847656 134.980469 C 159.179688 134.980469 157.828125 133.617188 157.828125 131.933594 C 157.828125 130.257812 159.179688 128.890625 160.847656 128.890625 Z M 160.847656 128.890625 " fill-opacity="1" fill-rule="evenodd"/><path fill="#f8bd40" d="M 174.273438 131.8125 C 175.9375 131.8125 177.292969 133.171875 177.292969 134.855469 C 177.292969 136.539062 175.941406 137.898438 174.273438 137.898438 C 172.601562 137.898438 171.25 136.539062 171.25 134.855469 C 171.25 133.171875 172.601562 131.8125 174.273438 131.8125 Z M 174.273438 131.8125 " fill-opacity="1" fill-rule="evenodd"/><path fill="#f9aa3a" d="M 201.117188 128.890625 C 199.449219 128.890625 198.09375 130.253906 198.09375 131.933594 C 198.09375 133.617188 199.445312 134.980469 201.117188 134.980469 C 202.785156 134.980469 204.136719 133.617188 204.136719 131.933594 C 204.136719 130.257812 202.785156 128.890625 201.117188 128.890625 Z M 201.117188 128.890625 " fill-opacity="1" fill-rule="evenodd"/><path fill="#f9aa3a" d="M 187.691406 131.8125 C 186.023438 131.8125 184.671875 133.171875 184.671875 134.855469 C 184.671875 136.539062 186.023438 137.898438 187.691406 137.898438 C 189.363281 137.898438 190.714844 136.539062 190.714844 134.855469 C 190.714844 133.171875 189.363281 131.8125 187.691406 131.8125 Z M 187.691406 131.8125 " fill-opacity="1" fill-rule="evenodd"/><path fill="#4e95fb" d="M 120.039062 138.445312 C 120.039062 139.417969 119.253906 140.207031 118.289062 140.207031 C 117.328125 140.207031 116.542969 139.417969 116.542969 138.445312 L 116.542969 126.242188 C 116.542969 124.105469 117.410156 122.164062 118.800781 120.765625 C 120.195312 119.359375 122.121094 118.492188 124.238281 118.492188 L 124.238281 118.496094 L 135.933594 118.496094 C 136.890625 118.496094 137.671875 119.277344 137.671875 120.246094 C 137.671875 121.214844 136.890625 121.996094 135.933594 121.996094 L 124.238281 121.996094 L 124.238281 122.003906 C 123.085938 122.003906 122.035156 122.480469 121.269531 123.25 C 120.507812 124.015625 120.035156 125.074219 120.035156 126.242188 L 120.035156 138.445312 Z M 120.039062 138.445312 " fill-opacity="1" fill-rule="evenodd"/><path fill="#4e95fb" d="M 116.542969 56.019531 C 116.542969 55.046875 117.328125 54.257812 118.289062 54.257812 C 119.253906 54.257812 120.039062 55.046875 120.039062 56.019531 L 120.039062 68.222656 C 120.039062 69.386719 120.507812 70.445312 121.273438 71.214844 C 122.035156 71.980469 123.085938 72.460938 124.242188 72.460938 L 124.242188 72.46875 L 135.9375 72.46875 C 136.894531 72.46875 137.675781 73.25 137.675781 74.21875 C 137.675781 75.1875 136.894531 75.96875 135.9375 75.96875 L 124.242188 75.96875 L 124.242188 75.976562 C 122.125 75.976562 120.195312 75.105469 118.804688 73.703125 C 117.410156 72.300781 116.546875 70.359375 116.546875 68.226562 L 116.546875 56.019531 Z M 116.542969 56.019531 " fill-opacity="1" fill-rule="evenodd"/><path fill="#4e95fb" d="M 122.59375 98.992188 C 121.632812 98.992188 120.847656 98.203125 120.847656 97.234375 C 120.847656 96.261719 121.632812 95.472656 122.59375 95.472656 L 135.1875 95.472656 C 136.152344 95.472656 136.9375 96.261719 136.9375 97.234375 C 136.9375 98.203125 136.152344 98.992188 135.1875 98.992188 Z M 122.59375 98.992188 " fill-opacity="1" fill-rule="evenodd"/><path fill="#4e95fb" d="M 140.066406 24.496094 C 139.101562 24.496094 138.320312 23.710938 138.320312 22.738281 C 138.320312 21.769531 139.101562 20.980469 140.066406 20.980469 L 152.183594 20.980469 C 154.300781 20.980469 156.230469 21.851562 157.621094 23.253906 C 159.015625 24.660156 159.878906 26.597656 159.878906 28.730469 L 159.875 28.730469 L 159.875 40.507812 C 159.875 41.476562 159.09375 42.261719 158.136719 42.261719 C 157.175781 42.261719 156.394531 41.476562 156.394531 40.507812 L 156.394531 28.730469 L 156.386719 28.730469 C 156.386719 27.566406 155.917969 26.507812 155.152344 25.738281 C 154.390625 24.972656 153.339844 24.496094 152.183594 24.496094 Z M 140.066406 24.496094 " fill-opacity="1" fill-rule="evenodd"/><path fill="#4e95fb" d="M 179.238281 27.074219 C 179.238281 26.105469 180.019531 25.316406 180.984375 25.316406 C 181.945312 25.316406 182.730469 26.105469 182.730469 27.074219 L 182.730469 39.761719 C 182.730469 40.730469 181.945312 41.519531 180.984375 41.519531 C 180.019531 41.519531 179.238281 40.730469 179.238281 39.761719 Z M 179.238281 27.074219 " fill-opacity="1" fill-rule="evenodd"/><path fill="#4e95fb" d="M 245.421875 138.445312 C 245.421875 139.417969 244.636719 140.207031 243.675781 140.207031 C 242.710938 140.207031 241.929688 139.417969 241.929688 138.445312 L 241.929688 126.242188 C 241.929688 125.078125 241.457031 124.019531 240.691406 123.25 C 239.933594 122.484375 238.882812 122.003906 237.722656 122.003906 L 237.722656 121.996094 L 226.03125 121.996094 C 225.070312 121.996094 224.289062 121.214844 224.289062 120.246094 C 224.289062 119.277344 225.070312 118.496094 226.03125 118.496094 L 237.722656 118.496094 L 237.722656 118.488281 C 239.839844 118.488281 241.769531 119.359375 243.160156 120.761719 C 244.554688 122.164062 245.417969 124.105469 245.417969 126.238281 L 245.417969 138.445312 Z M 245.421875 138.445312 " fill-opacity="1" fill-rule="evenodd"/><path fill="#4e95fb" d="M 241.929688 56.019531 C 241.929688 55.046875 242.710938 54.257812 243.675781 54.257812 C 244.636719 54.257812 245.421875 55.046875 245.421875 56.019531 L 245.421875 68.222656 C 245.421875 70.359375 244.554688 72.300781 243.164062 73.699219 C 241.769531 75.105469 239.84375 75.972656 237.726562 75.972656 L 237.726562 75.96875 L 226.035156 75.96875 C 225.074219 75.96875 224.292969 75.183594 224.292969 74.214844 C 224.292969 73.246094 225.074219 72.464844 226.035156 72.464844 L 237.726562 72.464844 L 237.726562 72.457031 C 238.882812 72.457031 239.933594 71.980469 240.695312 71.210938 C 241.457031 70.445312 241.933594 69.386719 241.933594 68.21875 L 241.933594 56.019531 Z M 241.929688 56.019531 " fill-opacity="1" fill-rule="evenodd"/><path fill="#4e95fb" d="M 239.371094 95.472656 C 240.335938 95.472656 241.117188 96.261719 241.117188 97.234375 C 241.117188 98.203125 240.335938 98.992188 239.371094 98.992188 L 226.777344 98.992188 C 225.8125 98.992188 225.03125 98.203125 225.03125 97.234375 C 225.03125 96.261719 225.8125 95.472656 226.777344 95.472656 Z M 239.371094 95.472656 " fill-opacity="1" fill-rule="evenodd"/><path fill="#4e95fb" d="M 221.898438 20.980469 C 222.863281 20.980469 223.644531 21.769531 223.644531 22.738281 C 223.644531 23.710938 222.863281 24.496094 221.898438 24.496094 L 209.785156 24.496094 C 208.628906 24.496094 207.578125 24.972656 206.8125 25.742188 C 206.050781 26.507812 205.578125 27.566406 205.578125 28.734375 L 205.570312 28.734375 L 205.570312 40.511719 C 205.570312 41.480469 204.789062 42.265625 203.832031 42.265625 C 202.871094 42.265625 202.089844 41.480469 202.089844 40.511719 L 202.089844 28.734375 L 202.085938 28.734375 C 202.085938 26.601562 202.949219 24.660156 204.339844 23.257812 C 205.738281 21.851562 207.660156 20.984375 209.78125 20.984375 L 221.898438 20.984375 Z M 221.898438 20.980469 " fill-opacity="1" fill-rule="evenodd"/><path fill="#4e95fb" d="M 140.066406 173.484375 C 139.101562 173.484375 138.320312 172.695312 138.320312 171.726562 C 138.320312 170.753906 139.101562 169.96875 140.066406 169.96875 L 152.183594 169.96875 C 153.335938 169.96875 154.386719 169.492188 155.152344 168.722656 C 155.914062 167.957031 156.386719 166.898438 156.386719 165.730469 L 156.394531 165.730469 L 156.394531 153.953125 C 156.394531 152.984375 157.175781 152.203125 158.136719 152.203125 C 159.09375 152.203125 159.875 152.984375 159.875 153.953125 L 159.875 165.730469 L 159.882812 165.730469 C 159.882812 167.863281 159.015625 169.804688 157.625 171.207031 C 156.230469 172.613281 154.304688 173.480469 152.1875 173.480469 L 140.066406 173.480469 Z M 140.066406 173.484375 " fill-opacity="1" fill-rule="evenodd"/><path fill="#4e95fb" d="M 221.898438 169.96875 C 222.863281 169.96875 223.644531 170.753906 223.644531 171.726562 C 223.644531 172.695312 222.863281 173.484375 221.898438 173.484375 L 209.785156 173.484375 C 207.664062 173.484375 205.738281 172.613281 204.34375 171.210938 C 202.949219 169.804688 202.085938 167.867188 202.085938 165.734375 L 202.09375 165.734375 L 202.09375 153.957031 C 202.09375 152.988281 202.875 152.203125 203.835938 152.203125 C 204.792969 152.203125 205.574219 152.988281 205.574219 153.957031 L 205.574219 165.734375 L 205.582031 165.734375 C 205.582031 166.898438 206.050781 167.957031 206.816406 168.726562 C 207.578125 169.492188 208.628906 169.96875 209.785156 169.96875 Z M 221.898438 169.96875 " fill-opacity="1" fill-rule="evenodd"/><path fill="#4e95fb" d="M 182.730469 167.390625 C 182.730469 168.359375 181.945312 169.148438 180.984375 169.148438 C 180.019531 169.148438 179.238281 168.359375 179.238281 167.390625 L 179.238281 154.703125 C 179.238281 153.734375 180.019531 152.945312 180.984375 152.945312 C 181.945312 152.945312 182.730469 153.734375 182.730469 154.703125 Z M 182.730469 167.390625 " fill-opacity="1" fill-rule="evenodd"/><path fill="#bb0056" d="M 246.714844 139.714844 C 246.914062 139.917969 247.09375 140.136719 247.25 140.371094 C 247.40625 140.609375 247.539062 140.859375 247.648438 141.121094 C 247.757812 141.386719 247.839844 141.65625 247.894531 141.933594 C 247.949219 142.214844 247.976562 142.496094 247.976562 142.78125 C 247.976562 143.066406 247.949219 143.347656 247.894531 143.628906 C 247.839844 143.90625 247.757812 144.175781 247.648438 144.441406 C 247.539062 144.703125 247.40625 144.953125 247.25 145.191406 C 247.09375 145.425781 246.914062 145.644531 246.714844 145.847656 C 246.515625 146.046875 246.296875 146.226562 246.0625 146.386719 C 245.828125 146.542969 245.582031 146.679688 245.320312 146.785156 C 245.058594 146.894531 244.789062 146.976562 244.511719 147.035156 C 244.234375 147.089844 243.953125 147.117188 243.671875 147.117188 C 243.390625 147.117188 243.109375 147.089844 242.832031 147.035156 C 242.554688 146.976562 242.285156 146.894531 242.023438 146.785156 C 241.765625 146.679688 241.515625 146.542969 241.28125 146.386719 C 241.046875 146.226562 240.828125 146.046875 240.628906 145.847656 C 240.429688 145.644531 240.25 145.425781 240.09375 145.191406 C 239.9375 144.953125 239.804688 144.703125 239.695312 144.441406 C 239.585938 144.175781 239.503906 143.90625 239.449219 143.628906 C 239.394531 143.347656 239.367188 143.066406 239.367188 142.78125 C 239.367188 142.496094 239.394531 142.214844 239.449219 141.9375 C 239.503906 141.65625 239.585938 141.386719 239.695312 141.121094 C 239.804688 140.859375 239.9375 140.609375 240.09375 140.371094 C 240.25 140.136719 240.429688 139.917969 240.628906 139.714844 C 240.828125 139.515625 241.046875 139.335938 241.28125 139.175781 C 241.515625 139.019531 241.761719 138.886719 242.023438 138.777344 C 242.285156 138.667969 242.554688 138.585938 242.832031 138.527344 C 243.109375 138.472656 243.390625 138.445312 243.671875 138.445312 C 243.953125 138.445312 244.234375 138.472656 244.511719 138.527344 C 244.789062 138.585938 245.058594 138.667969 245.320312 138.777344 C 245.582031 138.882812 245.828125 139.019531 246.0625 139.175781 C 246.296875 139.335938 246.515625 139.515625 246.714844 139.714844 Z M 246.714844 139.714844 " fill-opacity="1" fill-rule="nonzero"/><path fill="#bb0056" d="M 247.980469 51.683594 C 247.980469 51.96875 247.953125 52.25 247.894531 52.527344 C 247.839844 52.808594 247.757812 53.078125 247.652344 53.34375 C 247.542969 53.605469 247.410156 53.855469 247.253906 54.09375 C 247.097656 54.328125 246.917969 54.546875 246.71875 54.75 C 246.519531 54.949219 246.300781 55.128906 246.066406 55.289062 C 245.832031 55.445312 245.582031 55.578125 245.320312 55.6875 C 245.0625 55.796875 244.792969 55.878906 244.515625 55.933594 C 244.238281 55.992188 243.957031 56.019531 243.675781 56.019531 C 243.390625 56.019531 243.113281 55.992188 242.835938 55.933594 C 242.558594 55.878906 242.289062 55.796875 242.027344 55.6875 C 241.765625 55.578125 241.519531 55.445312 241.285156 55.289062 C 241.046875 55.128906 240.832031 54.949219 240.632812 54.75 C 240.429688 54.546875 240.253906 54.328125 240.097656 54.09375 C 239.9375 53.855469 239.804688 53.605469 239.699219 53.34375 C 239.589844 53.078125 239.507812 52.808594 239.453125 52.527344 C 239.398438 52.25 239.371094 51.96875 239.371094 51.683594 C 239.371094 51.398438 239.398438 51.117188 239.453125 50.835938 C 239.507812 50.558594 239.589844 50.285156 239.699219 50.023438 C 239.804688 49.761719 239.9375 49.511719 240.097656 49.273438 C 240.253906 49.039062 240.429688 48.820312 240.632812 48.617188 C 240.832031 48.417969 241.046875 48.238281 241.285156 48.078125 C 241.519531 47.921875 241.765625 47.785156 242.027344 47.675781 C 242.289062 47.570312 242.558594 47.488281 242.835938 47.429688 C 243.113281 47.375 243.390625 47.347656 243.675781 47.347656 C 243.957031 47.347656 244.238281 47.375 244.515625 47.429688 C 244.792969 47.488281 245.0625 47.570312 245.320312 47.675781 C 245.582031 47.785156 245.832031 47.921875 246.066406 48.078125 C 246.300781 48.238281 246.519531 48.417969 246.71875 48.617188 C 246.917969 48.820312 247.097656 49.039062 247.253906 49.273438 C 247.410156 49.511719 247.542969 49.761719 247.652344 50.023438 C 247.757812 50.285156 247.839844 50.558594 247.894531 50.835938 C 247.953125 51.117188 247.980469 51.398438 247.980469 51.683594 Z M 247.980469 51.683594 " fill-opacity="1" fill-rule="nonzero"/><path fill="#bb0056" d="M 247.980469 97.234375 C 247.980469 99.625 246.050781 101.566406 243.675781 101.566406 C 241.296875 101.566406 239.371094 99.625 239.371094 97.234375 C 239.371094 94.839844 241.296875 92.898438 243.675781 92.898438 C 246.050781 92.898438 247.980469 94.839844 247.980469 97.234375 Z M 247.980469 97.234375 " fill-opacity="1" fill-rule="evenodd"/><g clip-path="url(#6a21ee9973)"><path fill="#bb0056" d="M 226.203125 27.074219 C 228.574219 27.074219 230.507812 25.125 230.507812 22.738281 C 230.507812 20.351562 228.574219 18.402344 226.203125 18.402344 C 223.835938 18.402344 221.898438 20.351562 221.898438 22.738281 C 221.898438 25.125 223.835938 27.074219 226.203125 27.074219 Z M 226.203125 27.074219 " fill-opacity="1" fill-rule="evenodd"/></g><g clip-path="url(#dbe3925b92)"><path fill="#bb0056" d="M 226.203125 176.0625 C 228.574219 176.0625 230.507812 174.113281 230.507812 171.726562 C 230.507812 169.339844 228.574219 167.390625 226.203125 167.390625 C 223.835938 167.390625 221.898438 169.339844 221.898438 171.726562 C 221.898438 174.113281 223.835938 176.0625 226.203125 176.0625 Z M 226.203125 176.0625 " fill-opacity="1" fill-rule="evenodd"/></g><g clip-path="url(#7c7f2f4889)"><path fill="#bb0056" d="M 119.273438 138.5625 C 119.546875 138.628906 119.8125 138.722656 120.070312 138.839844 C 120.328125 138.957031 120.570312 139.097656 120.800781 139.265625 C 121.03125 139.429688 121.242188 139.617188 121.433594 139.828125 C 121.628906 140.035156 121.796875 140.257812 121.945312 140.5 C 122.097656 140.742188 122.21875 140.996094 122.320312 141.265625 C 122.417969 141.53125 122.492188 141.804688 122.535156 142.085938 C 122.582031 142.367188 122.601562 142.648438 122.589844 142.933594 C 122.582031 143.21875 122.542969 143.5 122.480469 143.777344 C 122.414062 144.054688 122.324219 144.320312 122.207031 144.582031 C 122.089844 144.839844 121.949219 145.085938 121.78125 145.316406 C 121.617188 145.546875 121.433594 145.761719 121.226562 145.953125 C 121.019531 146.148438 120.796875 146.320312 120.554688 146.46875 C 120.316406 146.621094 120.0625 146.746094 119.796875 146.84375 C 119.535156 146.945312 119.261719 147.019531 118.984375 147.0625 C 118.703125 147.109375 118.421875 147.128906 118.140625 147.117188 C 117.859375 147.109375 117.578125 147.070312 117.304688 147.007812 C 117.027344 146.941406 116.761719 146.847656 116.503906 146.730469 C 116.25 146.613281 116.003906 146.472656 115.777344 146.304688 C 115.546875 146.140625 115.335938 145.953125 115.140625 145.742188 C 114.949219 145.535156 114.777344 145.3125 114.628906 145.070312 C 114.480469 144.828125 114.355469 144.574219 114.257812 144.304688 C 114.160156 144.039062 114.085938 143.765625 114.039062 143.484375 C 113.996094 143.203125 113.976562 142.921875 113.988281 142.636719 C 113.996094 142.351562 114.035156 142.070312 114.097656 141.792969 C 114.164062 141.515625 114.253906 141.25 114.371094 140.988281 C 114.488281 140.730469 114.628906 140.484375 114.792969 140.253906 C 114.957031 140.023438 115.144531 139.808594 115.351562 139.617188 C 115.558594 139.421875 115.78125 139.25 116.019531 139.101562 C 116.261719 138.949219 116.511719 138.824219 116.777344 138.726562 C 117.042969 138.625 117.316406 138.550781 117.59375 138.507812 C 117.871094 138.460938 118.152344 138.441406 118.4375 138.453125 C 118.71875 138.460938 118.996094 138.5 119.273438 138.5625 Z M 119.273438 138.5625 " fill-opacity="1" fill-rule="nonzero"/></g><g clip-path="url(#3b0392bd59)"><path fill="#bb0056" d="M 122.59375 51.683594 C 122.59375 51.96875 122.566406 52.25 122.511719 52.527344 C 122.457031 52.808594 122.375 53.078125 122.265625 53.34375 C 122.160156 53.605469 122.027344 53.855469 121.871094 54.09375 C 121.710938 54.328125 121.535156 54.546875 121.335938 54.75 C 121.132812 54.949219 120.917969 55.128906 120.683594 55.289062 C 120.445312 55.445312 120.199219 55.578125 119.9375 55.6875 C 119.675781 55.796875 119.40625 55.878906 119.128906 55.933594 C 118.851562 55.992188 118.574219 56.019531 118.289062 56.019531 C 118.007812 56.019531 117.726562 55.992188 117.449219 55.933594 C 117.175781 55.878906 116.90625 55.796875 116.644531 55.6875 C 116.382812 55.578125 116.132812 55.445312 115.898438 55.289062 C 115.664062 55.128906 115.445312 54.949219 115.246094 54.75 C 115.046875 54.546875 114.867188 54.328125 114.710938 54.09375 C 114.554688 53.855469 114.421875 53.605469 114.3125 53.34375 C 114.207031 53.078125 114.125 52.808594 114.070312 52.527344 C 114.015625 52.25 113.988281 51.96875 113.988281 51.683594 C 113.988281 51.398438 114.015625 51.117188 114.070312 50.835938 C 114.125 50.558594 114.207031 50.285156 114.3125 50.023438 C 114.421875 49.761719 114.554688 49.511719 114.710938 49.273438 C 114.867188 49.039062 115.046875 48.820312 115.246094 48.617188 C 115.445312 48.417969 115.664062 48.238281 115.898438 48.078125 C 116.132812 47.921875 116.382812 47.785156 116.644531 47.675781 C 116.90625 47.570312 117.175781 47.488281 117.449219 47.429688 C 117.726562 47.375 118.007812 47.347656 118.289062 47.347656 C 118.574219 47.347656 118.851562 47.375 119.128906 47.429688 C 119.40625 47.488281 119.675781 47.570312 119.9375 47.675781 C 120.199219 47.785156 120.445312 47.921875 120.683594 48.078125 C 120.917969 48.238281 121.132812 48.417969 121.335938 48.617188 C 121.535156 48.820312 121.710938 49.039062 121.871094 49.273438 C 122.027344 49.511719 122.160156 49.761719 122.265625 50.023438 C 122.375 50.285156 122.457031 50.558594 122.511719 50.835938 C 122.566406 51.117188 122.59375 51.398438 122.59375 51.683594 Z M 122.59375 51.683594 " fill-opacity="1" fill-rule="nonzero"/></g><g clip-path="url(#84797d13b6)"><path fill="#bb0056" d="M 113.988281 97.234375 C 113.988281 99.625 115.914062 101.566406 118.289062 101.566406 C 120.667969 101.566406 122.59375 99.625 122.59375 97.234375 C 122.59375 94.839844 120.667969 92.898438 118.289062 92.898438 C 115.914062 92.898438 113.988281 94.839844 113.988281 97.234375 Z M 113.988281 97.234375 " fill-opacity="1" fill-rule="evenodd"/></g><g clip-path="url(#acabad6983)"><path fill="#bb0056" d="M 135.761719 27.074219 C 138.132812 27.074219 140.066406 25.125 140.066406 22.738281 C 140.066406 20.351562 138.132812 18.402344 135.761719 18.402344 C 133.390625 18.402344 131.457031 20.351562 131.457031 22.738281 C 131.457031 25.125 133.390625 27.074219 135.761719 27.074219 Z M 135.761719 27.074219 " fill-opacity="1" fill-rule="evenodd"/></g><g clip-path="url(#4206c7c499)"><path fill="#bb0056" d="M 135.761719 176.0625 C 138.132812 176.0625 140.066406 174.113281 140.066406 171.726562 C 140.066406 169.339844 138.132812 167.390625 135.761719 167.390625 C 133.390625 167.390625 131.457031 169.339844 131.457031 171.726562 C 131.457031 174.113281 133.390625 176.0625 135.761719 176.0625 Z M 135.761719 176.0625 " fill-opacity="1" fill-rule="evenodd"/></g><g clip-path="url(#da3ba0e7eb)"><path fill="#bb0056" d="M 180.984375 27.074219 C 183.351562 27.074219 185.285156 25.125 185.285156 22.738281 C 185.285156 20.351562 183.351562 18.402344 180.984375 18.402344 C 178.613281 18.402344 176.679688 20.351562 176.679688 22.738281 C 176.679688 25.125 178.613281 27.074219 180.984375 27.074219 Z M 180.984375 27.074219 " fill-opacity="1" fill-rule="evenodd"/></g><g clip-path="url(#98fe7a0fc7)"><path fill="#bb0056" d="M 180.984375 176.0625 C 183.351562 176.0625 185.285156 174.113281 185.285156 171.726562 C 185.285156 169.339844 183.351562 167.390625 180.984375 167.390625 C 178.613281 167.390625 176.679688 169.339844 176.679688 171.726562 C 176.679688 174.113281 178.613281 176.0625 180.984375 176.0625 Z M 180.984375 176.0625 " fill-opacity="1" fill-rule="evenodd"/></g><path fill="#d0005f" d="M 247.398438 140.609375 C 246.652344 139.320312 245.265625 138.449219 243.675781 138.449219 C 241.296875 138.449219 239.371094 140.390625 239.371094 142.785156 C 239.371094 142.929688 239.378906 143.078125 239.390625 143.21875 C 240.136719 144.511719 241.527344 145.382812 243.117188 145.382812 C 245.492188 145.382812 247.421875 143.441406 247.421875 141.046875 C 247.421875 140.898438 247.414062 140.753906 247.398438 140.609375 Z M 247.398438 140.609375 " fill-opacity="1" fill-rule="evenodd"/><path fill="#d0005f" d="M 239.390625 52.117188 C 239.378906 51.976562 239.371094 51.828125 239.371094 51.679688 C 239.371094 49.285156 241.296875 47.34375 243.675781 47.34375 C 245.265625 47.34375 246.652344 48.210938 247.398438 49.503906 C 247.414062 49.648438 247.421875 49.792969 247.421875 49.941406 C 247.421875 52.335938 245.492188 54.277344 243.117188 54.277344 C 241.527344 54.28125 240.136719 53.414062 239.390625 52.117188 Z M 239.390625 52.117188 " fill-opacity="1" fill-rule="evenodd"/><path fill="#d0005f" d="M 239.390625 97.671875 C 239.378906 97.527344 239.371094 97.382812 239.371094 97.234375 C 239.371094 94.839844 241.296875 92.898438 243.675781 92.898438 C 245.265625 92.898438 246.652344 93.765625 247.398438 95.058594 C 247.414062 95.199219 247.421875 95.34375 247.421875 95.496094 C 247.421875 97.890625 245.492188 99.832031 243.117188 99.832031 C 241.527344 99.832031 240.136719 98.960938 239.390625 97.671875 Z M 239.390625 97.671875 " fill-opacity="1" fill-rule="evenodd"/><g clip-path="url(#b284729de0)"><path fill="#d0005f" d="M 226.203125 18.402344 C 223.828125 18.402344 221.898438 20.34375 221.898438 22.738281 C 221.898438 22.886719 221.90625 23.03125 221.921875 23.175781 C 222.667969 24.46875 224.054688 25.335938 225.644531 25.335938 C 228.023438 25.335938 229.949219 23.394531 229.949219 21 C 229.949219 20.855469 229.941406 20.710938 229.929688 20.5625 C 229.1875 19.273438 227.792969 18.402344 226.203125 18.402344 Z M 226.203125 18.402344 " fill-opacity="1" fill-rule="evenodd"/></g><path fill="#d0005f" d="M 221.921875 172.164062 C 221.90625 172.023438 221.898438 171.875 221.898438 171.726562 C 221.898438 169.332031 223.828125 167.390625 226.203125 167.390625 C 227.792969 167.390625 229.1875 168.257812 229.929688 169.550781 C 229.941406 169.691406 229.949219 169.839844 229.949219 169.988281 C 229.949219 172.382812 228.023438 174.324219 225.644531 174.324219 C 224.054688 174.324219 222.667969 173.457031 221.921875 172.164062 Z M 221.921875 172.164062 " fill-opacity="1" fill-rule="evenodd"/><g clip-path="url(#e43d949b34)"><path fill="#d0005f" d="M 113.988281 142.78125 C 113.988281 140.386719 115.914062 138.445312 118.289062 138.445312 C 119.882812 138.445312 121.269531 139.316406 122.015625 140.605469 C 122.03125 140.75 122.039062 140.894531 122.039062 141.042969 C 122.039062 143.4375 120.109375 145.378906 117.734375 145.378906 C 116.140625 145.378906 114.753906 144.511719 114.007812 143.214844 C 113.992188 143.074219 113.988281 142.929688 113.988281 142.78125 Z M 113.988281 142.78125 " fill-opacity="1" fill-rule="evenodd"/></g><g clip-path="url(#15f7928089)"><path fill="#d0005f" d="M 113.988281 51.683594 C 113.988281 51.828125 113.992188 51.976562 114.007812 52.121094 C 114.753906 53.414062 116.140625 54.28125 117.734375 54.28125 C 120.109375 54.28125 122.039062 52.339844 122.039062 49.945312 C 122.039062 49.800781 122.03125 49.652344 122.015625 49.507812 C 121.269531 48.214844 119.882812 47.347656 118.289062 47.347656 C 115.914062 47.347656 113.988281 49.289062 113.988281 51.683594 Z M 113.988281 51.683594 " fill-opacity="1" fill-rule="evenodd"/></g><g clip-path="url(#2f4bb6545a)"><path fill="#d0005f" d="M 113.988281 97.234375 C 113.988281 97.378906 113.992188 97.523438 114.007812 97.671875 C 114.753906 98.960938 116.140625 99.832031 117.734375 99.832031 C 120.109375 99.832031 122.039062 97.890625 122.039062 95.496094 C 122.039062 95.347656 122.03125 95.203125 122.015625 95.058594 C 121.269531 93.765625 119.882812 92.898438 118.289062 92.898438 C 115.914062 92.898438 113.988281 94.839844 113.988281 97.234375 Z M 113.988281 97.234375 " fill-opacity="1" fill-rule="evenodd"/></g><g clip-path="url(#86a69b644a)"><path fill="#d0005f" d="M 135.761719 18.402344 C 137.351562 18.402344 138.738281 19.273438 139.488281 20.566406 C 139.5 20.710938 139.507812 20.855469 139.507812 21.003906 C 139.507812 23.398438 137.582031 25.339844 135.203125 25.339844 C 133.613281 25.339844 132.226562 24.472656 131.480469 23.179688 C 131.464844 23.039062 131.457031 22.890625 131.457031 22.742188 C 131.457031 20.34375 133.386719 18.402344 135.761719 18.402344 Z M 135.761719 18.402344 " fill-opacity="1" fill-rule="evenodd"/></g><path fill="#d0005f" d="M 139.488281 169.550781 C 138.738281 168.257812 137.351562 167.390625 135.761719 167.390625 C 133.386719 167.390625 131.457031 169.332031 131.457031 171.726562 C 131.457031 171.871094 131.464844 172.019531 131.480469 172.164062 C 132.226562 173.457031 133.613281 174.324219 135.203125 174.324219 C 137.582031 174.324219 139.507812 172.382812 139.507812 169.988281 C 139.507812 169.84375 139.5 169.695312 139.488281 169.550781 Z M 139.488281 169.550781 " fill-opacity="1" fill-rule="evenodd"/><g clip-path="url(#6cab648517)"><path fill="#d0005f" d="M 180.984375 18.402344 C 178.605469 18.402344 176.679688 20.34375 176.679688 22.738281 C 176.679688 22.886719 176.6875 23.03125 176.699219 23.175781 C 177.445312 24.46875 178.835938 25.335938 180.425781 25.335938 C 182.800781 25.335938 184.730469 23.394531 184.730469 21 C 184.730469 20.855469 184.722656 20.710938 184.707031 20.5625 C 183.960938 19.273438 182.574219 18.402344 180.984375 18.402344 Z M 180.984375 18.402344 " fill-opacity="1" fill-rule="evenodd"/></g><path fill="#d0005f" d="M 176.699219 172.164062 C 176.6875 172.023438 176.679688 171.875 176.679688 171.726562 C 176.679688 169.332031 178.605469 167.390625 180.984375 167.390625 C 182.574219 167.390625 183.960938 168.257812 184.707031 169.550781 C 184.722656 169.691406 184.730469 169.839844 184.730469 169.988281 C 184.730469 172.382812 182.800781 174.324219 180.425781 174.324219 C 178.835938 174.324219 177.445312 173.457031 176.699219 172.164062 Z M 176.699219 172.164062 " fill-opacity="1" fill-rule="evenodd"/><g fill="#a6a6a6" fill-opacity="1"><g transform="translate(285.446915, 132.781174)"><g><path d="M 57.984375 -68.921875 L 57.984375 -24.484375 C 57.984375 -16.015625 55.695312 -9.609375 51.125 -5.265625 C 46.5625 -0.921875 39.878906 1.25 31.078125 1.25 C 22.273438 1.25 15.585938 -0.921875 11.015625 -5.265625 C 6.453125 -9.609375 4.171875 -16.015625 4.171875 -24.484375 L 4.171875 -68.921875 L 19.890625 -68.921875 L 19.890625 -29.078125 C 19.890625 -23.503906 20.765625 -19.628906 22.515625 -17.453125 C 24.265625 -15.285156 27.117188 -14.203125 31.078125 -14.203125 C 35.035156 -14.203125 37.890625 -15.285156 39.640625 -17.453125 C 41.398438 -19.628906 42.28125 -23.503906 42.28125 -29.078125 L 42.28125 -68.921875 Z M 57.984375 -68.921875 "/></g></g></g><g fill="#a6a6a6" fill-opacity="1"><g transform="translate(343.420944, 132.781174)"><g><path d="M 61.984375 0 L 58.734375 -40.859375 L 58.3125 -40.859375 L 44.203125 -0.421875 L 34.84375 -0.421875 L 20.71875 -40.859375 L 20.296875 -40.859375 L 17.046875 0 L 1.34375 0 L 7.515625 -68.921875 L 24.234375 -68.921875 L 39.515625 -29.15625 L 54.8125 -68.921875 L 71.515625 -68.921875 L 77.703125 0 Z M 61.984375 0 "/></g></g></g><g fill="#a6a6a6" fill-opacity="1"><g transform="translate(418.269412, 132.781174)"><g><path d="M 20.71875 -68.921875 L 20.71875 -13.78125 L 44.453125 -13.78125 L 44.453125 0 L 5.015625 0 L 5.015625 -68.921875 Z M 20.71875 -68.921875 "/></g></g></g></svg>