<svg xmlns="http://www.w3.org/2000/svg" xmlns:xlink="http://www.w3.org/1999/xlink" width="500" zoomAndPan="magnify" viewBox="0 0 375 374.999991" height="500" preserveAspectRatio="xMidYMid meet" version="1.0"><defs><g/><clipPath id="d2e8664962"><path d="M 78 183 L 129.941406 183 L 129.941406 192 L 78 192 Z M 78 183 " clip-rule="nonzero"/></clipPath><clipPath id="7ff20eb61a"><path d="M 88 163 L 129.941406 163 L 129.941406 172 L 88 172 Z M 88 163 " clip-rule="nonzero"/></clipPath><clipPath id="2841b8f081"><path d="M 109 173 L 129.941406 173 L 129.941406 182 L 109 182 Z M 109 173 " clip-rule="nonzero"/></clipPath><clipPath id="eca58c5054"><path d="M 65.441406 183 L 75 183 L 75 192 L 65.441406 192 Z M 65.441406 183 " clip-rule="nonzero"/></clipPath><clipPath id="ab33482441"><path d="M 90 193 L 129.941406 193 L 129.941406 202 L 90 202 Z M 90 193 " clip-rule="nonzero"/></clipPath><clipPath id="b28d5ac2f2"><path d="M 94 202 L 129.941406 202 L 129.941406 211 L 94 211 Z M 94 202 " clip-rule="nonzero"/></clipPath></defs><g clip-path="url(#d2e8664962)"><path fill="#0091ff" d="M 152.207031 183.402344 L 110.691406 183.402344 L 108.917969 186.46875 L 104.816406 186.46875 L 103.042969 183.402344 C 101.511719 183.402344 82.359375 183.402344 80.832031 183.402344 L 78.539062 187.375 L 80.832031 191.347656 C 82.359375 191.347656 101.511719 191.347656 103.042969 191.347656 L 104.816406 188.28125 L 108.917969 188.28125 L 110.691406 191.347656 L 152.207031 191.347656 C 152.664062 188.722656 152.664062 186.035156 152.207031 183.402344 Z M 152.207031 183.402344 " fill-opacity="1" fill-rule="nonzero"/></g><g clip-path="url(#7ff20eb61a)"><path fill="#0091ff" d="M 95.210938 171.820312 L 96.984375 168.757812 L 101.085938 168.757812 L 102.859375 171.820312 L 146.628906 171.820312 C 138.402344 162.546875 129.175781 163.871094 118.050781 163.871094 L 102.859375 163.871094 L 101.085938 166.9375 L 96.984375 166.9375 L 95.210938 163.871094 L 90.625 163.871094 L 88.332031 167.84375 L 90.625 171.8125 L 95.210938 171.8125 Z M 95.210938 171.820312 " fill-opacity="1" fill-rule="nonzero"/></g><g clip-path="url(#2841b8f081)"><path fill="#0091ff" d="M 122.628906 176.707031 L 118.523438 176.707031 L 116.75 173.640625 L 112.164062 173.640625 L 109.871094 177.613281 L 112.164062 181.585938 L 116.75 181.585938 L 118.523438 178.519531 L 122.628906 178.519531 L 124.402344 181.585938 L 151.820312 181.585938 C 151.082031 178.683594 149.796875 175.996094 148.085938 173.632812 L 124.402344 173.632812 Z M 122.628906 176.707031 " fill-opacity="1" fill-rule="nonzero"/></g><g clip-path="url(#eca58c5054)"><path fill="#0091ff" d="M 67.734375 183.402344 L 65.441406 187.375 L 67.734375 191.355469 L 72.328125 191.355469 L 74.621094 187.375 L 72.328125 183.402344 Z M 67.734375 183.402344 " fill-opacity="1" fill-rule="nonzero"/></g><path fill="#0091ff" d="M 96.777344 177.613281 L 99.070312 181.585938 L 103.664062 181.585938 L 105.957031 177.613281 L 103.664062 173.640625 L 99.070312 173.640625 Z M 96.777344 177.613281 " fill-opacity="1" fill-rule="nonzero"/><path fill="#0091ff" d="M 83.40625 202.929688 L 81.105469 206.90625 L 83.40625 210.878906 L 87.992188 210.878906 L 90.285156 206.90625 L 87.992188 202.929688 Z M 83.40625 202.929688 " fill-opacity="1" fill-rule="nonzero"/><g clip-path="url(#ab33482441)"><path fill="#0091ff" d="M 103.042969 196.230469 L 98.9375 196.230469 L 97.164062 193.167969 L 92.578125 193.167969 L 90.285156 197.136719 L 92.578125 201.109375 L 97.164062 201.109375 L 98.9375 198.042969 L 103.042969 198.042969 L 104.816406 201.109375 L 148.078125 201.109375 C 149.789062 198.746094 151.074219 196.058594 151.8125 193.160156 C 137.449219 193.160156 119.171875 193.160156 104.808594 193.160156 Z M 103.042969 196.230469 " fill-opacity="1" fill-rule="nonzero"/></g><g clip-path="url(#b28d5ac2f2)"><path fill="#0091ff" d="M 114.796875 206 L 110.691406 206 L 108.917969 202.9375 C 104.78125 202.9375 100.636719 202.9375 96.496094 202.9375 L 94.203125 206.90625 L 96.496094 210.878906 C 100.636719 210.878906 104.773438 210.878906 108.917969 210.878906 L 110.691406 207.8125 L 114.796875 207.8125 L 116.570312 210.878906 C 128.316406 210.878906 138.191406 212.445312 146.628906 202.929688 L 116.570312 202.929688 Z M 114.796875 206 " fill-opacity="1" fill-rule="nonzero"/></g><g fill="#ffffff" fill-opacity="1"><g transform="translate(141.387753, 189.047844)"><g><path d="M 1.4375 -16.828125 L 11.546875 -16.828125 C 13.222656 -16.828125 14.441406 -16.445312 15.203125 -15.6875 C 15.972656 -14.925781 16.359375 -13.707031 16.359375 -12.03125 L 16.359375 -9.625 C 16.359375 -7.9375 15.972656 -6.710938 15.203125 -5.953125 C 14.441406 -5.191406 13.222656 -4.8125 11.546875 -4.8125 L 5.765625 -4.8125 L 5.765625 0 L 1.4375 0 Z M 12.03125 -12.03125 C 12.03125 -12.988281 11.546875 -13.46875 10.578125 -13.46875 L 5.765625 -13.46875 L 5.765625 -8.171875 L 10.578125 -8.171875 C 11.546875 -8.171875 12.03125 -8.65625 12.03125 -9.625 Z M 12.03125 -12.03125 "/></g></g></g><g fill="#ffffff" fill-opacity="1"><g transform="translate(163.27181, 189.047844)"><g><path d="M 5.765625 -3.359375 L 14.546875 -3.359375 L 14.546875 0 L 1.4375 0 L 1.4375 -16.828125 L 5.765625 -16.828125 Z M 5.765625 -3.359375 "/></g></g></g><g fill="#ffffff" fill-opacity="1"><g transform="translate(182.87141, 189.047844)"><g><path d="M 4.453125 0 L -0.234375 0 L 6.125 -16.828125 L 10.9375 -16.828125 L 17.3125 0 L 12.625 0 L 11.546875 -3 L 5.53125 -3 Z M 6.609375 -6.125 L 10.453125 -6.125 L 8.53125 -11.78125 Z M 6.609375 -6.125 "/></g></g></g><g fill="#ffffff" fill-opacity="1"><g transform="translate(204.75547, 189.047844)"><g><path d="M 9.625 0 L 5.296875 0 L 5.296875 -13.46875 L 0.234375 -13.46875 L 0.234375 -16.828125 L 14.671875 -16.828125 L 14.671875 -13.46875 L 9.625 -13.46875 Z M 9.625 0 "/></g></g></g><g fill="#ffffff" fill-opacity="1"><g transform="translate(224.475298, 189.047844)"><g><path d="M 5.765625 0 L 1.4375 0 L 1.4375 -16.828125 L 14.78125 -16.828125 L 14.78125 -13.46875 L 5.765625 -13.46875 L 5.765625 -9.5 L 12.859375 -9.5 L 12.859375 -6.125 L 5.765625 -6.125 Z M 5.765625 0 "/></g></g></g><g fill="#ffffff" fill-opacity="1"><g transform="translate(244.315358, 189.047844)"><g><path d="M 12.265625 -12.265625 C 12.265625 -13.222656 11.785156 -13.703125 10.828125 -13.703125 L 6.734375 -13.703125 C 5.773438 -13.703125 5.296875 -13.222656 5.296875 -12.265625 L 5.296875 -4.5625 C 5.296875 -3.601562 5.773438 -3.125 6.734375 -3.125 L 10.828125 -3.125 C 11.785156 -3.125 12.265625 -3.601562 12.265625 -4.5625 Z M 16.59375 -4.5625 C 16.59375 -2.882812 16.210938 -1.664062 15.453125 -0.90625 C 14.691406 -0.144531 13.46875 0.234375 11.78125 0.234375 L 5.765625 0.234375 C 4.085938 0.234375 2.867188 -0.144531 2.109375 -0.90625 C 1.347656 -1.664062 0.96875 -2.882812 0.96875 -4.5625 L 0.96875 -12.265625 C 0.96875 -13.941406 1.347656 -15.160156 2.109375 -15.921875 C 2.867188 -16.691406 4.085938 -17.078125 5.765625 -17.078125 L 11.78125 -17.078125 C 13.46875 -17.078125 14.691406 -16.691406 15.453125 -15.921875 C 16.210938 -15.160156 16.59375 -13.941406 16.59375 -12.265625 Z M 16.59375 -4.5625 "/></g></g></g><g fill="#ffffff" fill-opacity="1"><g transform="translate(266.680351, 189.047844)"><g><path d="M 1.4375 -16.828125 L 11.546875 -16.828125 C 13.222656 -16.828125 14.441406 -16.445312 15.203125 -15.6875 C 15.972656 -14.925781 16.359375 -13.707031 16.359375 -12.03125 L 16.359375 -9.859375 C 16.359375 -8.523438 16.132812 -7.488281 15.6875 -6.75 C 15.25 -6.019531 14.550781 -5.535156 13.59375 -5.296875 L 16.59375 0 L 11.90625 0 L 9.140625 -5.046875 L 5.765625 -5.046875 L 5.765625 0 L 1.4375 0 Z M 12.03125 -12.03125 C 12.03125 -12.988281 11.546875 -13.46875 10.578125 -13.46875 L 5.765625 -13.46875 L 5.765625 -8.421875 L 10.578125 -8.421875 C 11.546875 -8.421875 12.03125 -8.898438 12.03125 -9.859375 Z M 12.03125 -12.03125 "/></g></g></g><g fill="#ffffff" fill-opacity="1"><g transform="translate(288.804869, 189.047844)"><g><path d="M 14.78125 0 L 1.4375 0 L 1.4375 -16.828125 L 14.78125 -16.828125 L 14.78125 -13.46875 L 5.765625 -13.46875 L 5.765625 -10.21875 L 12.859375 -10.21875 L 12.859375 -6.859375 L 5.765625 -6.859375 L 5.765625 -3.359375 L 14.78125 -3.359375 Z M 14.78125 0 "/></g></g></g><g fill="#ffffff" fill-opacity="1"><g transform="translate(308.885403, 189.047844)"><g><path d="M 12.265625 -12.265625 C 12.265625 -13.222656 11.785156 -13.703125 10.828125 -13.703125 L 6.734375 -13.703125 C 5.773438 -13.703125 5.296875 -13.222656 5.296875 -12.265625 L 5.296875 -4.5625 C 5.296875 -3.601562 5.773438 -3.125 6.734375 -3.125 L 10.828125 -3.125 C 11.785156 -3.125 12.265625 -3.601562 12.265625 -4.5625 Z M 16.59375 -4.5625 C 16.59375 -2.882812 16.210938 -1.664062 15.453125 -0.90625 C 14.691406 -0.144531 13.46875 0.234375 11.78125 0.234375 L 5.765625 0.234375 C 4.085938 0.234375 2.867188 -0.144531 2.109375 -0.90625 C 1.347656 -1.664062 0.96875 -2.882812 0.96875 -4.5625 L 0.96875 -12.265625 C 0.96875 -13.941406 1.347656 -15.160156 2.109375 -15.921875 C 2.867188 -16.691406 4.085938 -17.078125 5.765625 -17.078125 L 11.78125 -17.078125 C 13.46875 -17.078125 14.691406 -16.691406 15.453125 -15.921875 C 16.210938 -15.160156 16.59375 -13.941406 16.59375 -12.265625 Z M 16.59375 -4.5625 "/></g></g></g><g fill="#ffffff" fill-opacity="1"><g transform="translate(166.252239, 207.160404)"><g><path d="M 5.09375 0 L 2.796875 0 L 2.796875 -7.125 L 0.125 -7.125 L 0.125 -8.90625 L 7.765625 -8.90625 L 7.765625 -7.125 L 5.09375 -7.125 Z M 5.09375 0 "/></g></g></g><g fill="#ffffff" fill-opacity="1"><g transform="translate(181.111391, 207.160404)"><g><path d="M 0.5 -1.84375 C 2.820312 -1.71875 4.394531 -1.65625 5.21875 -1.65625 C 5.40625 -1.65625 5.554688 -1.710938 5.671875 -1.828125 C 5.785156 -1.941406 5.84375 -2.097656 5.84375 -2.296875 L 5.84375 -3.4375 L 2.921875 -3.4375 C 2.035156 -3.4375 1.390625 -3.632812 0.984375 -4.03125 C 0.578125 -4.4375 0.375 -5.085938 0.375 -5.984375 L 0.375 -6.359375 C 0.375 -7.242188 0.578125 -7.890625 0.984375 -8.296875 C 1.390625 -8.703125 2.035156 -8.90625 2.921875 -8.90625 L 7.390625 -8.90625 L 7.390625 -7.125 L 3.4375 -7.125 C 2.925781 -7.125 2.671875 -6.867188 2.671875 -6.359375 L 2.671875 -6.109375 C 2.671875 -5.597656 2.925781 -5.34375 3.4375 -5.34375 L 5.71875 -5.34375 C 6.550781 -5.34375 7.160156 -5.144531 7.546875 -4.75 C 7.941406 -4.363281 8.140625 -3.753906 8.140625 -2.921875 L 8.140625 -2.296875 C 8.140625 -1.460938 7.941406 -0.847656 7.546875 -0.453125 C 7.160156 -0.0664062 6.550781 0.125 5.71875 0.125 C 5.289062 0.125 4.832031 0.117188 4.34375 0.109375 L 3.171875 0.046875 C 2.304688 0.00390625 1.414062 -0.0507812 0.5 -0.125 Z M 0.5 -1.84375 "/></g></g></g><g fill="#ffffff" fill-opacity="1"><g transform="translate(196.606531, 207.160404)"><g><path d="M 8.390625 -4.953125 L 6.609375 -1.78125 L 4.828125 -1.78125 L 3.046875 -4.953125 L 3.046875 0 L 0.765625 0 L 0.765625 -8.90625 L 3.171875 -8.90625 L 5.71875 -4.203125 L 8.265625 -8.90625 L 10.6875 -8.90625 L 10.6875 0 L 8.390625 0 Z M 8.390625 -4.953125 "/></g></g></g><g fill="#ffffff" fill-opacity="1"><g transform="translate(215.027238, 207.160404)"><g><path d="M 0.375 -1.90625 L 2.671875 -1.90625 L 2.671875 0 L 0.375 0 Z M 0.375 -1.90625 "/></g></g></g><g fill="#ffffff" fill-opacity="1"><g transform="translate(225.05285, 207.160404)"><g><path d="M 6.484375 -6.484375 C 6.484375 -6.992188 6.226562 -7.25 5.71875 -7.25 L 3.5625 -7.25 C 3.050781 -7.25 2.796875 -6.992188 2.796875 -6.484375 L 2.796875 -2.421875 C 2.796875 -1.910156 3.050781 -1.65625 3.5625 -1.65625 L 5.71875 -1.65625 C 6.226562 -1.65625 6.484375 -1.910156 6.484375 -2.421875 Z M 8.78125 -2.421875 C 8.78125 -1.523438 8.578125 -0.875 8.171875 -0.46875 C 7.765625 -0.0703125 7.117188 0.125 6.234375 0.125 L 3.046875 0.125 C 2.160156 0.125 1.515625 -0.0703125 1.109375 -0.46875 C 0.710938 -0.875 0.515625 -1.523438 0.515625 -2.421875 L 0.515625 -6.484375 C 0.515625 -7.378906 0.710938 -8.023438 1.109375 -8.421875 C 1.515625 -8.828125 2.160156 -9.03125 3.046875 -9.03125 L 6.234375 -9.03125 C 7.117188 -9.03125 7.765625 -8.828125 8.171875 -8.421875 C 8.578125 -8.023438 8.78125 -7.378906 8.78125 -6.484375 Z M 8.78125 -2.421875 "/></g></g></g><g fill="#ffffff" fill-opacity="1"><g transform="translate(241.311179, 207.160404)"><g><path d="M 0.5 -1.84375 C 2.820312 -1.71875 4.394531 -1.65625 5.21875 -1.65625 C 5.40625 -1.65625 5.554688 -1.710938 5.671875 -1.828125 C 5.785156 -1.941406 5.84375 -2.097656 5.84375 -2.296875 L 5.84375 -3.4375 L 2.921875 -3.4375 C 2.035156 -3.4375 1.390625 -3.632812 0.984375 -4.03125 C 0.578125 -4.4375 0.375 -5.085938 0.375 -5.984375 L 0.375 -6.359375 C 0.375 -7.242188 0.578125 -7.890625 0.984375 -8.296875 C 1.390625 -8.703125 2.035156 -8.90625 2.921875 -8.90625 L 7.390625 -8.90625 L 7.390625 -7.125 L 3.4375 -7.125 C 2.925781 -7.125 2.671875 -6.867188 2.671875 -6.359375 L 2.671875 -6.109375 C 2.671875 -5.597656 2.925781 -5.34375 3.4375 -5.34375 L 5.71875 -5.34375 C 6.550781 -5.34375 7.160156 -5.144531 7.546875 -4.75 C 7.941406 -4.363281 8.140625 -3.753906 8.140625 -2.921875 L 8.140625 -2.296875 C 8.140625 -1.460938 7.941406 -0.847656 7.546875 -0.453125 C 7.160156 -0.0664062 6.550781 0.125 5.71875 0.125 C 5.289062 0.125 4.832031 0.117188 4.34375 0.109375 L 3.171875 0.046875 C 2.304688 0.00390625 1.414062 -0.0507812 0.5 -0.125 Z M 0.5 -1.84375 "/></g></g></g><g fill="#ffffff" fill-opacity="1"><g transform="translate(256.806319, 207.160404)"><g><path d="M 8.390625 -4.953125 L 6.609375 -1.78125 L 4.828125 -1.78125 L 3.046875 -4.953125 L 3.046875 0 L 0.765625 0 L 0.765625 -8.90625 L 3.171875 -8.90625 L 5.71875 -4.203125 L 8.265625 -8.90625 L 10.6875 -8.90625 L 10.6875 0 L 8.390625 0 Z M 8.390625 -4.953125 "/></g></g></g><path stroke-linecap="round" transform="matrix(0, 0.75, -0.75, 0, 131.314947, 159.251942)" fill="none" stroke-linejoin="miter" d="M 1.497411 1.498055 L 73.830749 1.498055 " stroke="#0091ff" stroke-width="3" stroke-opacity="1" stroke-miterlimit="4"/></svg>